<?xml version="1.0" encoding="UTF-8" standalone="no"?>
<!-- Created with Inkscape (http://www.inkscape.org/) -->

<svg
   xmlns:dc="http://purl.org/dc/elements/1.1/"
   xmlns:cc="http://creativecommons.org/ns#"
   xmlns:rdf="http://www.w3.org/1999/02/22-rdf-syntax-ns#"
   xmlns:svg="http://www.w3.org/2000/svg"
   xmlns="http://www.w3.org/2000/svg"
   xmlns:sodipodi="http://sodipodi.sourceforge.net/DTD/sodipodi-0.dtd"
   xmlns:inkscape="http://www.inkscape.org/namespaces/inkscape"
   width="662.367"
   height="248.11948"
   id="svg3176"
   version="1.1"
   inkscape:version="0.48.5 r10040"
   sodipodi:docname="lakeside-mountain-light.svg">
  <defs
     id="defs3178" />
  <sodipodi:namedview
     id="base"
     pagecolor="#ffffff"
     bordercolor="#666666"
     borderopacity="1.0"
     inkscape:pageopacity="0.0"
     inkscape:pageshadow="2"
     inkscape:zoom="1"
     inkscape:cx="291.13267"
     inkscape:cy="24.750407"
     inkscape:document-units="px"
     inkscape:current-layer="layer1"
     showgrid="false"
     fit-margin-top="5"
     fit-margin-left="5"
     fit-margin-right="5"
     fit-margin-bottom="5"
     inkscape:window-width="1920"
     inkscape:window-height="1027"
     inkscape:window-x="0"
     inkscape:window-y="28"
     inkscape:window-maximized="1"
     showborder="true"
     borderlayer="true"
     inkscape:showpageshadow="false" />
  <metadata
     id="metadata3181">
    <rdf:RDF>
      <cc:Work
         rdf:about="">
        <dc:format>image/svg+xml</dc:format>
        <dc:type
           rdf:resource="http://purl.org/dc/dcmitype/StillImage" />
        <dc:title />
      </cc:Work>
    </rdf:RDF>
  </metadata>
  <g
     inkscape:label="Layer 1"
     inkscape:groupmode="layer"
     id="layer1"
     transform="translate(-77.387924,-288.20539)">
    <g
       style="fill:#1a1a1a;fill-opacity:1"
       transform="matrix(2.9433889,0,0,2.9433889,-423.31016,-1167.1982)"
       id="g5825">
      <path
         inkscape:connector-curvature="0"
         id="path5827"
         style="font-size:275.91748047px;font-style:normal;font-variant:normal;font-weight:600;font-stretch:normal;text-align:start;line-height:100%;letter-spacing:0px;word-spacing:0px;writing-mode:lr-tb;text-anchor:start;fill:#1a1a1a;fill-opacity:1;stroke:none;font-family:NEXT ART;-inkscape-font-specification:NEXT ART Semi-Bold"
         d="m 171.80811,540.91444 0,35.67214 24.3366,0 2.58755,-5.51861 -20.95808,0 0,-30.15353 -5.96607,0"
         sodipodi:nodetypes="ccccccc" />
      <path
         inkscape:connector-curvature="0"
         id="path5829"
         style="font-size:275.91748047px;font-style:normal;font-variant:normal;font-weight:600;font-stretch:normal;text-align:start;line-height:100%;letter-spacing:0px;word-spacing:0px;writing-mode:lr-tb;text-anchor:start;fill:#1a1a1a;fill-opacity:1;stroke:none;font-family:NEXT ART;-inkscape-font-specification:NEXT ART Semi-Bold"
         d="m 216.00859,535.58821 -17.65089,40.99837 6.35001,0 4.83827,-10.70418 c 4.54888,-0.10814 13.80706,-2.18261 17.61324,-4.86552 l 6.71992,15.5697 6.57082,0 c -5.78056,-13.4396 -11.77085,-27.6462 -18.24535,-42.66694 m -2.95818,7.43274 5.75914,14.69149 c -3.5491,2.85954 -10.13147,4.34486 -13.70209,4.34328 l 7.94295,-19.03477"
         sodipodi:nodetypes="cccccccccccc" />
      <path
         inkscape:connector-curvature="0"
         id="path5831"
         style="font-size:275.91748047px;font-style:normal;font-variant:normal;font-weight:600;font-stretch:normal;text-align:start;line-height:100%;letter-spacing:0px;word-spacing:0px;writing-mode:lr-tb;text-anchor:start;fill:#1a1a1a;fill-opacity:1;stroke:none;font-family:NEXT ART;-inkscape-font-specification:NEXT ART Semi-Bold"
         d="m 265.9376,535.80571 c -13.07421,2.61392 -16.03498,10.71886 -20.06856,13.0176 l 0,-20.35315 -5.96607,1.03501 0,47.08141 5.96607,0 0,-19.91605 c 1.63125,-0.79114 3.796,-2.02133 6.41859,-5.02647 l 16.51007,24.94252 6.46324,0 -19.10136,-28.79737 c 2.25294,-2.93025 6.31193,-6.17316 12.04101,-6.97977"
         sodipodi:nodetypes="cccccccccccc" />
      <path
         inkscape:connector-curvature="0"
         id="path5833"
         style="font-size:275.91748047px;font-style:normal;font-variant:normal;font-weight:600;font-stretch:normal;text-align:start;line-height:100%;letter-spacing:0px;word-spacing:0px;writing-mode:lr-tb;text-anchor:start;fill:#1a1a1a;fill-opacity:1;stroke:none;font-family:NEXT ART;-inkscape-font-specification:NEXT ART Semi-Bold"
         d="m 274.80163,535.29082 0,41.29576 31.67838,0 c -2.96824,-2.23767 -5.10606,-4.16911 -6.64876,-5.49376 l -19.08841,0 0,-7.67647 c 3.65189,-1.21532 10.0338,-1.42903 13.22536,-0.17647 l -1.1204,-5.37073 c -3.16201,-1.34992 -7.43038,-1.71606 -12.10496,-0.56133 l 0,-16.49838 15.36911,0 c -0.84263,-1.39539 -2.70544,-4.93845 -3.16394,-5.51862 l -18.14638,0"
         sodipodi:nodetypes="ccccccccccccc" />
      <path
         sodipodi:nodetypes="sscccccsscsccccs"
         inkscape:connector-curvature="0"
         id="path5835"
         transform="matrix(0.33974444,0,0,0.33974444,170.10939,494.46526)"
         d="m 418.5,123.40625 c -17.24614,-0.1042 -33.7107,9.84944 -37,27.40625 -4.56758,24.37994 35.42629,41.53531 42.3125,43.71875 6.94466,2.26882 24.30904,8.18838 25.21875,20.21875 -0.25166,9.72616 -5.9439,17.16246 -23.94406,12.14222 -16.36205,-5.14166 -30.49617,-24.71114 -54.64969,-36.89605 l 3.10572,16.66077 c 19.88273,13.57939 31.23261,29.41371 49.19201,34.48227 16.214,4.57596 39.45881,2.89272 42.04602,-23.26421 2.55672,-25.84869 -25.82452,-33.87294 -33.53125,-37.34375 -7.30426,-2.3362 -34.6111,-16.28389 -32.46875,-27.71875 1.75164,-9.34923 13.91071,-14.88584 24.4375,-13.0625 9.79424,1.76053 18.96127,5.99107 26.3125,16.1875 l 7.25,-13.90625 c -10.08767,-10.52521 -18.11862,-15.69646 -30.875,-17.9375 -2.45917,-0.43283 -4.94252,-0.67261 -7.40625,-0.6875 z"
         style="font-size:275.91748047px;font-style:normal;font-variant:normal;font-weight:600;font-stretch:normal;text-align:start;line-height:100%;letter-spacing:0px;word-spacing:0px;writing-mode:lr-tb;text-anchor:start;fill:#1a1a1a;fill-opacity:1;stroke:none;font-family:NEXT ART;-inkscape-font-specification:NEXT ART Semi-Bold" />
      <path
         inkscape:connector-curvature="0"
         id="path5837"
         style="font-size:275.91748047px;font-style:normal;font-variant:normal;font-weight:600;font-stretch:normal;text-align:start;line-height:100%;letter-spacing:0px;word-spacing:0px;writing-mode:lr-tb;text-anchor:start;fill:#1a1a1a;fill-opacity:1;stroke:none;font-family:NEXT ART;-inkscape-font-specification:NEXT ART Semi-Bold"
         d="m 329.94043,576.58658 5.96607,0 0,-35.64153 -5.96607,-1.73965 0,37.38118"
         sodipodi:nodetypes="ccccc" />
      <path
         inkscape:connector-curvature="0"
         id="path5839"
         style="font-size:275.91748047px;font-style:normal;font-variant:normal;font-weight:600;font-stretch:normal;text-align:start;line-height:100%;letter-spacing:0px;word-spacing:0px;writing-mode:lr-tb;text-anchor:start;fill:#1a1a1a;fill-opacity:1;stroke:none;font-family:NEXT ART;-inkscape-font-specification:NEXT ART Semi-Bold"
         d="m 349.96242,571.19226 -5.81693,0 0,-24.83377 5.81693,0 c 7.15929,0 11.9073,5.79206 11.9073,12.42931 0,7.01013 -5.24518,12.40446 -11.9073,12.40446 m 0,-30.2281 -11.75814,0 0,35.62242 11.75814,0 c 9.96832,0 18.07224,-7.90505 18.07224,-17.79878 0,-10.06773 -8.22821,-17.82364 -18.07224,-17.82364"
         sodipodi:nodetypes="cccssccccssc" />
      <path
         inkscape:connector-curvature="0"
         id="path5841"
         style="font-size:275.91748047px;font-style:normal;font-variant:normal;font-weight:600;font-stretch:normal;text-align:start;line-height:100%;letter-spacing:0px;word-spacing:0px;writing-mode:lr-tb;text-anchor:start;fill:#1a1a1a;fill-opacity:1;stroke:none;font-family:NEXT ART;-inkscape-font-specification:NEXT ART Semi-Bold"
         d="m 368.77065,540.80944 0,35.77714 24.67552,0 -0.2209,-5.49376 -18.5134,0 0,-11.35728 c 6.21523,1.65863 10.20708,0.98802 13.89597,0 l -1.75869,-5.24414 c -4.03339,0.94775 -7.64497,0.90733 -12.13728,-0.27447 l 0,-7.88887 16.83637,0 -1.46943,-5.51862 -21.30816,0"
         sodipodi:nodetypes="ccccccccccccc" />
    </g>
    <path
       sodipodi:nodetypes="cccsccsccsccccscccscscccsccccscsscccssccsccccccccccscccccc"
       inkscape:connector-curvature="0"
       id="path5875"
       d="m 402.64326,293.20539 c -6.8421,1.49975 -16.97874,3.9368 -18.68586,4.03926 -0.72656,0.92775 -17.1144,9.94235 -18.75375,10.31881 -3.79679,-1.3966 -9.1073,-5.62593 -10.77704,-5.8213 -1.23947,-0.14502 -58.11119,29.7714 -59.02764,30.20966 -0.80374,-0.56269 -38.11416,-16.98021 -38.7505,-17.17338 -5.79944,1.62918 -11.00025,2.99332 -17.40891,4.9198 -4.96509,1.49252 -14.2458,2.89342 -16.3268,3.39434 -16.09783,7.46607 -70.92849,34.0647 -73.18205,35.1654 -1.12159,0.0684 -12.85276,-1.28796 -15.17272,-0.8995 -1.54141,0.25809 -11.04953,7.40433 -11.67654,7.75608 -9.55509,4.37013 -15.83479,6.79597 -24.456242,11.04859 -4.067923,3.34851 -9.719006,7.61977 -12.355412,9.01198 4.371253,0.70266 28.356954,3.75709 30.315664,3.45334 1.6226,-1.15087 22.58203,-16.05492 23.48962,-16.43951 0.91084,-0.38597 16.67849,3.00864 18.14097,2.92104 2.04455,-0.95844 12.23198,-6.19019 13.33112,-6.49589 1.77055,-1.37903 13.48823,-11.56402 15.44978,-12.93582 1.15712,-0.38921 17.60252,-9.48156 20.23028,-10.87888 1.5769,-0.83851 14.58291,-11.03037 17.30619,-12.12028 5.13124,-1.29097 11.82242,-1.31096 16.46105,-3.02497 1.9706,-0.72816 8.36152,-3.34322 10.40174,-3.14929 4.38657,1.50661 45.5008,21.84143 46.76549,22.23198 0.84602,-0.0326 13.25469,-6.91236 14.59568,-6.99234 5.96855,-2.94005 40.11194,-27.97434 40.6303,-28.34277 0.63701,-0.45277 8.08635,5.05298 13.33977,7.09417 2.83167,-1.70631 16.52678,-9.32653 19.60233,-10.84492 1.31055,-0.33773 13.82558,-4.82534 16.22497,-5.12546 4.39966,2.01029 28.25451,11.13615 35.01268,14.81631 8.78396,4.23607 17.29502,6.49892 25.00165,10.93731 14.555,8.38255 33.69834,18.08422 43.03533,24.59183 -2.59213,0.6817 -6.59849,0.5141 -12.37642,2.15292 -19.02848,5.39712 -44.53749,11.19976 -45.2339,11.59106 -0.65617,0.36868 -13.96552,9.19501 -15.30919,11.31625 4.64221,1.82905 15.29762,7.50333 18.98312,9.10265 l 13.72233,-7.89425 c 2.53125,-0.9255 20.29986,-8.12866 21.02206,-8.53635 1.06176,-0.59937 13.14323,-2.78709 15.1869,-3.91833 2.1689,-1.20054 16.6603,-5.16145 20.16479,-5.65789 3.00152,-1.03646 52.295,-14.16436 53.42056,-14.56728 10.83866,2.26646 29.5341,7.38038 32.92915,8.13975 3.07425,0.68765 24.61258,6.89419 36.38997,9.92373 1.10895,0.28287 2.78462,0.7768 3.13975,0.8995 0.85428,0.29515 2.18389,0.70242 3.27556,1.00134 4.64596,1.64092 46.75701,15.59906 50.32091,16.93774 6.95552,2.73493 13.51307,5.44285 23.01365,7.82397 l -10.26276,-9.18847 c -19.7118,-6.83356 -47.15998,-17.78506 -64.96285,-23.6577 -2.73465,-1.44239 -65.10308,-18.80248 -66.65796,-19.17216 -2.83827,-0.67474 -7.35204,-1.19039 -11.04862,-2.80033 -0.11356,-0.004 -0.22555,-0.008 -0.33943,0 -13.18749,4.13405 -48.85232,12.51246 -50.7115,12.76273 -1.49845,0.20172 -2.8809,0.46778 -4.1411,0.7807 -11.52317,-7.13883 -29.50765,-17.37447 -40.01931,-24.16773 -0.27301,-0.47631 -10.09147,-5.86094 -10.82796,-6.38136 -2.84766,-1.15743 -23.0685,-11.84597 -26.25527,-13.27189 -10.80987,-4.66441 -25.20917,-11.50501 -36.18368,-14.88419 z"
       style="font-size:medium;font-style:normal;font-variant:normal;font-weight:normal;font-stretch:normal;text-indent:0;text-align:start;text-decoration:none;line-height:normal;letter-spacing:normal;word-spacing:normal;text-transform:none;direction:ltr;block-progression:tb;writing-mode:lr-tb;text-anchor:start;baseline-shift:baseline;color:#000000;fill:#1a1a1a;fill-opacity:1;fill-rule:nonzero;stroke:none;stroke-width:15;marker:none;visibility:visible;display:inline;overflow:visible;enable-background:accumulate;font-family:Sans;-inkscape-font-specification:Sans" />
  </g>
</svg>
