<?xml version="1.0" encoding="UTF-8" standalone="no"?>
<!-- Created with Inkscape (http://www.inkscape.org/) -->

<svg
   xmlns:dc="http://purl.org/dc/elements/1.1/"
   xmlns:cc="http://creativecommons.org/ns#"
   xmlns:rdf="http://www.w3.org/1999/02/22-rdf-syntax-ns#"
   xmlns:svg="http://www.w3.org/2000/svg"
   xmlns="http://www.w3.org/2000/svg"
   xmlns:sodipodi="http://sodipodi.sourceforge.net/DTD/sodipodi-0.dtd"
   xmlns:inkscape="http://www.inkscape.org/namespaces/inkscape"
   width="662.367"
   height="316.88501"
   id="svg3176"
   version="1.1"
   inkscape:version="0.48.5 r10040"
   sodipodi:docname="lakeside-completeblack-light.svg">
  <defs
     id="defs3178" />
  <sodipodi:namedview
     id="base"
     pagecolor="#ffffff"
     bordercolor="#666666"
     borderopacity="1.0"
     inkscape:pageopacity="0.0"
     inkscape:pageshadow="2"
     inkscape:zoom="1.0839695"
     inkscape:cx="518.40406"
     inkscape:cy="50.654463"
     inkscape:document-units="px"
     inkscape:current-layer="layer1"
     showgrid="false"
     fit-margin-top="5"
     fit-margin-left="5"
     fit-margin-right="5"
     fit-margin-bottom="5"
     inkscape:window-width="1920"
     inkscape:window-height="1027"
     inkscape:window-x="0"
     inkscape:window-y="28"
     inkscape:window-maximized="1"
     showborder="true"
     borderlayer="true" />
  <metadata
     id="metadata3181">
    <rdf:RDF>
      <cc:Work
         rdf:about="">
        <dc:format>image/svg+xml</dc:format>
        <dc:type
           rdf:resource="http://purl.org/dc/dcmitype/StillImage" />
        <dc:title />
      </cc:Work>
    </rdf:RDF>
  </metadata>
  <g
     inkscape:label="Layer 1"
     inkscape:groupmode="layer"
     id="layer1"
     transform="translate(-77.387926,-288.20538)">
    <path
       style="fill:#1a1a1a;fill-opacity:1;fill-rule:evenodd;stroke:none"
       d="M 469.09375 277.09375 L 469.09375 288.65625 L 457.53125 288.65625 L 457.53125 300.21875 L 469.09375 300.21875 L 469.09375 311.78125 L 480.65625 311.78125 L 480.65625 300.21875 L 492.1875 300.21875 L 492.1875 288.65625 L 480.65625 288.65625 L 480.65625 277.09375 L 469.09375 277.09375 z "
       id="rect6169"
       transform="translate(77.387926,288.20538)" />
    <g
       style="fill:#1a1a1a;fill-opacity:1"
       transform="matrix(2.9433889,0,0,2.9433889,-423.31016,-1167.1982)"
       id="g5825">
      <path
         inkscape:connector-curvature="0"
         id="path5827"
         style="font-size:275.91748047px;font-style:normal;font-variant:normal;font-weight:600;font-stretch:normal;text-align:start;line-height:100%;letter-spacing:0px;word-spacing:0px;writing-mode:lr-tb;text-anchor:start;fill:#1a1a1a;fill-opacity:1;stroke:none;font-family:NEXT ART;-inkscape-font-specification:NEXT ART Semi-Bold"
         d="m 171.80811,540.91444 0,35.67214 24.3366,0 2.58755,-5.51861 -20.95808,0 0,-30.15353 -5.96607,0"
         sodipodi:nodetypes="ccccccc" />
      <path
         inkscape:connector-curvature="0"
         id="path5829"
         style="font-size:275.91748047px;font-style:normal;font-variant:normal;font-weight:600;font-stretch:normal;text-align:start;line-height:100%;letter-spacing:0px;word-spacing:0px;writing-mode:lr-tb;text-anchor:start;fill:#1a1a1a;fill-opacity:1;stroke:none;font-family:NEXT ART;-inkscape-font-specification:NEXT ART Semi-Bold"
         d="m 216.00859,535.58821 -17.65089,40.99837 6.35001,0 4.83827,-10.70418 c 4.54888,-0.10814 13.80706,-2.18261 17.61324,-4.86552 l 6.71992,15.5697 6.57082,0 c -5.78056,-13.4396 -11.77085,-27.6462 -18.24535,-42.66694 m -2.95818,7.43274 5.75914,14.69149 c -3.5491,2.85954 -10.13147,4.34486 -13.70209,4.34328 l 7.94295,-19.03477"
         sodipodi:nodetypes="cccccccccccc" />
      <path
         inkscape:connector-curvature="0"
         id="path5831"
         style="font-size:275.91748047px;font-style:normal;font-variant:normal;font-weight:600;font-stretch:normal;text-align:start;line-height:100%;letter-spacing:0px;word-spacing:0px;writing-mode:lr-tb;text-anchor:start;fill:#1a1a1a;fill-opacity:1;stroke:none;font-family:NEXT ART;-inkscape-font-specification:NEXT ART Semi-Bold"
         d="m 265.9376,535.80571 c -13.07421,2.61392 -16.03498,10.71886 -20.06856,13.0176 l 0,-20.35315 -5.96607,1.03501 0,47.08141 5.96607,0 0,-19.91605 c 1.63125,-0.79114 3.796,-2.02133 6.41859,-5.02647 l 16.51007,24.94252 6.46324,0 -19.10136,-28.79737 c 2.25294,-2.93025 6.31193,-6.17316 12.04101,-6.97977"
         sodipodi:nodetypes="cccccccccccc" />
      <path
         inkscape:connector-curvature="0"
         id="path5833"
         style="font-size:275.91748047px;font-style:normal;font-variant:normal;font-weight:600;font-stretch:normal;text-align:start;line-height:100%;letter-spacing:0px;word-spacing:0px;writing-mode:lr-tb;text-anchor:start;fill:#1a1a1a;fill-opacity:1;stroke:none;font-family:NEXT ART;-inkscape-font-specification:NEXT ART Semi-Bold"
         d="m 274.80163,535.29082 0,41.29576 31.67838,0 c -2.96824,-2.23767 -5.10606,-4.16911 -6.64876,-5.49376 l -19.08841,0 0,-7.67647 c 3.65189,-1.21532 10.0338,-1.42903 13.22536,-0.17647 l -1.1204,-5.37073 c -3.16201,-1.34992 -7.43038,-1.71606 -12.10496,-0.56133 l 0,-16.49838 15.36911,0 c -0.84263,-1.39539 -2.70544,-4.93845 -3.16394,-5.51862 l -18.14638,0"
         sodipodi:nodetypes="ccccccccccccc" />
      <path
         sodipodi:nodetypes="sscccccsscsccccs"
         inkscape:connector-curvature="0"
         id="path5835"
         transform="matrix(0.33974444,0,0,0.33974444,170.10939,494.46526)"
         d="m 418.5,123.40625 c -17.24614,-0.1042 -33.7107,9.84944 -37,27.40625 -4.56758,24.37994 35.42629,41.53531 42.3125,43.71875 6.94466,2.26882 24.30904,8.18838 25.21875,20.21875 -0.25166,9.72616 -5.9439,17.16246 -23.94406,12.14222 -16.36205,-5.14166 -30.49617,-24.71114 -54.64969,-36.89605 l 3.10572,16.66077 c 19.88273,13.57939 31.23261,29.41371 49.19201,34.48227 16.214,4.57596 39.45881,2.89272 42.04602,-23.26421 2.55672,-25.84869 -25.82452,-33.87294 -33.53125,-37.34375 -7.30426,-2.3362 -34.6111,-16.28389 -32.46875,-27.71875 1.75164,-9.34923 13.91071,-14.88584 24.4375,-13.0625 9.79424,1.76053 18.96127,5.99107 26.3125,16.1875 l 7.25,-13.90625 c -10.08767,-10.52521 -18.11862,-15.69646 -30.875,-17.9375 -2.45917,-0.43283 -4.94252,-0.67261 -7.40625,-0.6875 z"
         style="font-size:275.91748047px;font-style:normal;font-variant:normal;font-weight:600;font-stretch:normal;text-align:start;line-height:100%;letter-spacing:0px;word-spacing:0px;writing-mode:lr-tb;text-anchor:start;fill:#1a1a1a;fill-opacity:1;stroke:none;font-family:NEXT ART;-inkscape-font-specification:NEXT ART Semi-Bold" />
      <path
         inkscape:connector-curvature="0"
         id="path5837"
         style="font-size:275.91748047px;font-style:normal;font-variant:normal;font-weight:600;font-stretch:normal;text-align:start;line-height:100%;letter-spacing:0px;word-spacing:0px;writing-mode:lr-tb;text-anchor:start;fill:#1a1a1a;fill-opacity:1;stroke:none;font-family:NEXT ART;-inkscape-font-specification:NEXT ART Semi-Bold"
         d="m 329.94043,576.58658 5.96607,0 0,-35.64153 -5.96607,-1.73965 0,37.38118"
         sodipodi:nodetypes="ccccc" />
      <path
         inkscape:connector-curvature="0"
         id="path5839"
         style="font-size:275.91748047px;font-style:normal;font-variant:normal;font-weight:600;font-stretch:normal;text-align:start;line-height:100%;letter-spacing:0px;word-spacing:0px;writing-mode:lr-tb;text-anchor:start;fill:#1a1a1a;fill-opacity:1;stroke:none;font-family:NEXT ART;-inkscape-font-specification:NEXT ART Semi-Bold"
         d="m 349.96242,571.19226 -5.81693,0 0,-24.83377 5.81693,0 c 7.15929,0 11.9073,5.79206 11.9073,12.42931 0,7.01013 -5.24518,12.40446 -11.9073,12.40446 m 0,-30.2281 -11.75814,0 0,35.62242 11.75814,0 c 9.96832,0 18.07224,-7.90505 18.07224,-17.79878 0,-10.06773 -8.22821,-17.82364 -18.07224,-17.82364"
         sodipodi:nodetypes="cccssccccssc" />
      <path
         inkscape:connector-curvature="0"
         id="path5841"
         style="font-size:275.91748047px;font-style:normal;font-variant:normal;font-weight:600;font-stretch:normal;text-align:start;line-height:100%;letter-spacing:0px;word-spacing:0px;writing-mode:lr-tb;text-anchor:start;fill:#1a1a1a;fill-opacity:1;stroke:none;font-family:NEXT ART;-inkscape-font-specification:NEXT ART Semi-Bold"
         d="m 368.77065,540.80944 0,35.77714 24.67552,0 -0.2209,-5.49376 -18.5134,0 0,-11.35728 c 6.21523,1.65863 10.20708,0.98802 13.89597,0 l -1.75869,-5.24414 c -4.03339,0.94775 -7.64497,0.90733 -12.13728,-0.27447 l 0,-7.88887 16.83637,0 -1.46943,-5.51862 -21.30816,0"
         sodipodi:nodetypes="ccccccccccccc" />
    </g>
    <path
       id="path5845"
       style="font-size:85.83184814000000529px;font-style:normal;font-variant:normal;font-weight:normal;font-stretch:normal;text-align:start;line-height:100%;letter-spacing:22.58870505999999878px;word-spacing:0px;writing-mode:lr-tb;text-anchor:start;fill:#1a1a1a;fill-opacity:1;stroke:none;font-family:SGRegular;-inkscape-font-specification:SGRegular"
       d="m 114.58102,599.34457 0,-14.54387 -16.268575,0 0,14.54387 -5.220865,0 0,-33.09655 5.220865,0 0,13.84459 16.268575,0 0,-13.84459 5.22087,0 0,33.09655 -5.22087,0"
       inkscape:connector-curvature="0" />
    <path
       id="path5847"
       style="font-size:85.83184814000000529px;font-style:normal;font-variant:normal;font-weight:normal;font-stretch:normal;text-align:start;line-height:100%;letter-spacing:22.58870505999999878px;word-spacing:0px;writing-mode:lr-tb;text-anchor:start;fill:#1a1a1a;fill-opacity:1;stroke:none;font-family:SGRegular;-inkscape-font-specification:SGRegular"
       d="m 138.49964,599.34457 0,-33.09655 21.86236,0 0.79245,4.7081 -17.43395,0 0,8.48391 14.31076,0 0.83907,4.84794 -15.14983,0 0,10.30186 17.38734,0 -0.83907,4.75474 -21.76913,0"
       inkscape:connector-curvature="0" />
    <path
       id="path5849"
       style="font-size:85.83184814000000529px;font-style:normal;font-variant:normal;font-weight:normal;font-stretch:normal;text-align:start;line-height:100%;letter-spacing:22.58870505999999878px;word-spacing:0px;writing-mode:lr-tb;text-anchor:start;fill:#1a1a1a;fill-opacity:1;stroke:none;font-family:SGRegular;-inkscape-font-specification:SGRegular"
       d="m 183.93901,585.54659 0,13.79798 -5.22086,0 0,-33.09655 10.76802,0 c 3.66702,3e-5 6.63483,0.90126 8.90344,2.70366 2.29964,1.77139 3.44947,4.08662 3.4495,6.94563 -3e-5,2.29969 -0.76141,4.27302 -2.28413,5.92007 -1.4917,1.61597 -3.52721,2.71922 -6.10654,3.30967 l 11.46725,14.21752 -6.33962,0 -10.48834,-13.79798 -4.14872,0 m 12.67924,-9.64928 c -2e-5,-3.29408 -2.57938,-4.94116 -7.73807,-4.94119 l -4.94117,0 0,9.83573 4.94117,0 c 5.15869,0 7.73805,-1.63151 7.73807,-4.89454"
       inkscape:connector-curvature="0" />
    <path
       id="path5851"
       style="font-size:85.83184814000000529px;font-style:normal;font-variant:normal;font-weight:normal;font-stretch:normal;text-align:start;line-height:100%;letter-spacing:22.58870505999999878px;word-spacing:0px;writing-mode:lr-tb;text-anchor:start;fill:#1a1a1a;fill-opacity:1;stroke:none;font-family:SGRegular;-inkscape-font-specification:SGRegular"
       d="m 232.77763,599.34457 -11.74695,0 0,-33.09655 10.53496,0 c 3.57379,3e-5 6.41729,0.76141 8.53052,2.28413 2.11318,1.52278 3.16978,3.66707 3.16981,6.43283 -3e-5,1.9268 -0.57494,3.51171 -1.72475,4.75475 -1.11878,1.24309 -2.64153,2.01998 -4.56825,2.33074 2.4861,0.31076 4.38177,1.18091 5.687,2.61044 1.33627,1.39842 2.00442,3.16978 2.00444,5.31408 -2e-5,2.48612 -1.13432,4.67702 -3.40288,6.5727 -2.23753,1.8646 -5.0655,2.79688 -8.4839,2.79688 m 5.50055,-23.8202 c -2e-5,-1.55379 -0.62155,-2.70363 -1.8646,-3.44949 -1.24308,-0.74581 -3.21643,-1.11873 -5.92008,-1.11876 l -4.24195,0 0,9.0899 4.24195,0 c 2.70365,0 4.677,-0.37289 5.92008,-1.11878 1.24305,-0.74578 1.86458,-1.88009 1.8646,-3.40287 m 1.21199,14.03108 c -2e-5,-1.77136 -0.60602,-3.04552 -1.81799,-3.82241 -1.18092,-0.80797 -3.13874,-1.21197 -5.87347,-1.21197 l -5.54716,0 0,10.06876 5.54716,0 c 2.73473,0 4.69255,-0.38842 5.87347,-1.16537 1.21197,-0.7769 1.81797,-2.06659 1.81799,-3.86901"
       inkscape:connector-curvature="0" />
    <path
       id="path5853"
       style="font-size:85.83184814000000529px;font-style:normal;font-variant:normal;font-weight:normal;font-stretch:normal;text-align:start;line-height:100%;letter-spacing:22.58870505999999878px;word-spacing:0px;writing-mode:lr-tb;text-anchor:start;fill:#1a1a1a;fill-opacity:1;stroke:none;font-family:SGRegular;-inkscape-font-specification:SGRegular"
       d="m 266.61646,592.86512 0,-0.0933 -2.37735,6.5727 -5.36071,0 12.53939,-32.77024 5.03441,-0.55938 12.53939,33.32962 -5.59378,0 -2.89012,-8.01776 -13.89123,1.53831 m 7.17869,-19.99779 -5.3607,14.87016 10.34849,-1.16537 -4.98779,-13.70479"
       inkscape:connector-curvature="0" />
    <path
       id="path5855"
       style="font-size:85.83184814000000529px;font-style:normal;font-variant:normal;font-weight:normal;font-stretch:normal;text-align:start;line-height:100%;letter-spacing:22.58870505999999878px;word-spacing:0px;writing-mode:lr-tb;text-anchor:start;fill:#1a1a1a;fill-opacity:1;stroke:none;font-family:SGRegular;-inkscape-font-specification:SGRegular"
       d="m 326.86771,594.58983 0,4.75474 -21.30299,0 0,-33.09655 5.22086,0 0,28.34181 16.08213,0"
       inkscape:connector-curvature="0" />
    <path
       id="path5857"
       style="font-size:85.83184814000000529px;font-style:normal;font-variant:normal;font-weight:normal;font-stretch:normal;text-align:start;line-height:100%;letter-spacing:22.58870505999999878px;word-spacing:0px;writing-mode:lr-tb;text-anchor:start;fill:#1a1a1a;fill-opacity:1;stroke:none;font-family:SGRegular;-inkscape-font-specification:SGRegular"
       d="m 387.4286,568.53215 1.02553,6.01329 c -1.77139,-1.36729 -3.41845,-2.33069 -4.94118,-2.89009 -1.52277,-0.59043 -3.18536,-0.88566 -4.98779,-0.88569 -4.2575,3e-5 -6.38624,1.25863 -6.38623,3.77578 -1e-5,0.65264 0.10876,1.22756 0.3263,1.72476 0.24861,0.4662 0.6526,0.88574 1.21199,1.25863 0.55937,0.37294 1.04106,0.65263 1.44506,0.83908 0.43506,0.18644 1.1032,0.4506 2.00444,0.79243 l 5.12763,1.86461 c 2.79687,1.02552 4.84792,2.25302 6.15316,3.68256 1.33626,1.42953 2.00441,3.26302 2.00444,5.50052 -3e-5,2.76582 -1.13432,5.1121 -3.40289,7.03889 -2.2686,1.89562 -5.22088,2.84348 -8.85682,2.84348 -1.7403,0 -3.68258,-0.35735 -5.82685,-1.07212 -2.11321,-0.74583 -3.86904,-1.66263 -5.26748,-2.75029 l -1.07214,-6.71254 c 1.61598,1.61598 3.55826,2.95226 5.82685,4.00885 2.26858,1.02553 4.36625,1.53832 6.29301,1.53832 2.14427,0 3.8224,-0.40401 5.0344,-1.21197 1.24304,-0.80802 1.86458,-1.88014 1.86459,-3.21643 -10e-6,-1.30522 -0.38847,-2.34628 -1.16536,-3.12323 -0.77694,-0.7769 -2.31523,-1.58486 -4.61488,-2.42394 l -5.12763,-1.86461 c -2.48613,-0.93227 -4.33518,-2.05105 -5.54717,-3.35627 -1.21198,-1.33629 -1.81798,-3.06099 -1.81797,-5.17423 -10e-6,-2.7658 1.05659,-4.94116 3.16981,-6.52609 2.11319,-1.58488 4.92562,-2.37733 8.43728,-2.37736 3.23195,3e-5 6.26191,0.90125 9.0899,2.70366"
       inkscape:connector-curvature="0" />
    <path
       id="path5859"
       style="font-size:85.83184814000000529px;font-style:normal;font-variant:normal;font-weight:normal;font-stretch:normal;text-align:start;line-height:100%;letter-spacing:22.58870505999999878px;word-spacing:0px;writing-mode:lr-tb;text-anchor:start;fill:#1a1a1a;fill-opacity:1;stroke:none;font-family:SGRegular;-inkscape-font-specification:SGRegular"
       d="m 439.34304,576.64315 c 0.74584,1.98892 1.11873,4.03997 1.11878,6.15315 -5e-5,2.11324 -0.37294,4.16424 -1.11878,6.15316 -0.74583,1.98892 -1.81801,3.80688 -3.21642,5.45392 -1.36741,1.61598 -3.13876,2.9212 -5.31408,3.91567 -2.17536,0.96334 -4.58381,1.44506 -7.2253,1.44506 -3.51166,0 -6.58824,-0.83908 -9.22974,-2.51719 -2.61043,-1.70923 -4.55272,-3.82241 -5.82685,-6.33966 -1.24307,-2.54825 -1.8646,-5.25189 -1.86459,-8.11096 -1e-5,-2.85901 0.62152,-5.54717 1.86459,-8.06436 1.27413,-2.54826 3.21642,-4.66147 5.82685,-6.33963 2.6415,-1.70918 5.71808,-2.56379 9.22974,-2.56382 2.64149,3e-5 5.04994,0.49726 7.2253,1.49168 2.17532,0.9634 3.94667,2.26861 5.31408,3.91564 1.39841,1.61599 2.47059,3.41847 3.21642,5.40734 m -7.45837,14.8701 c 2.08211,-2.33069 3.12317,-5.23636 3.12323,-8.71695 -6e-5,-3.48058 -1.04112,-6.3862 -3.12323,-8.717 -2.05106,-2.3307 -4.81688,-3.49607 -8.29743,-3.49609 -3.51166,2e-5 -6.29301,1.16539 -8.34405,3.49609 -2.05107,2.3308 -3.07659,5.23642 -3.07658,8.717 -10e-6,3.48059 1.02551,6.38626 3.07658,8.71695 2.05104,2.33075 4.83239,3.49612 8.34405,3.49612 3.48055,0 6.24637,-1.16537 8.29743,-3.49612"
       inkscape:connector-curvature="0" />
    <path
       id="path5861"
       style="font-size:85.83184814000000529px;font-style:normal;font-variant:normal;font-weight:normal;font-stretch:normal;text-align:start;line-height:100%;letter-spacing:22.58870505999999878px;word-spacing:0px;writing-mode:lr-tb;text-anchor:start;fill:#1a1a1a;fill-opacity:1;stroke:none;font-family:SGRegular;-inkscape-font-specification:SGRegular"
       d="m 479.36562,594.58983 0,4.75474 -21.30296,0 0,-33.09655 5.22088,0 0,28.34181 16.08208,0"
       inkscape:connector-curvature="0" />
    <path
       id="path5863"
       style="font-size:85.83184814000000529px;font-style:normal;font-variant:normal;font-weight:normal;font-stretch:normal;text-align:start;line-height:100%;letter-spacing:22.58870505999999878px;word-spacing:0px;writing-mode:lr-tb;text-anchor:start;fill:#1a1a1a;fill-opacity:1;stroke:none;font-family:SGRegular;-inkscape-font-specification:SGRegular"
       d="m 495.76106,566.24802 5.22088,0 0,19.01888 c -6e-5,2.98333 0.74583,5.37626 2.23749,7.17868 1.49167,1.77136 3.60485,2.65704 6.33961,2.65704 2.70363,0 4.80134,-0.88568 6.293,-2.65704 1.49167,-1.80242 2.2375,-4.19535 2.2375,-7.17868 l 0,-19.01888 5.22088,0 0,18.1798 c 0,4.75474 -1.18091,8.5305 -3.54272,11.32738 -2.33074,2.76582 -5.73367,4.14876 -10.20866,4.14876 -4.50612,0 -7.94005,-1.38294 -10.30186,-4.14876 -2.33075,-2.79688 -3.49612,-6.57264 -3.49612,-11.32738 l 0,-18.1798"
       inkscape:connector-curvature="0" />
    <path
       style="font-size:85.83184814px;font-style:normal;font-variant:normal;font-weight:normal;font-stretch:normal;text-align:start;line-height:100%;letter-spacing:22.58870506px;word-spacing:0px;writing-mode:lr-tb;text-anchor:start;fill:#008641;fill-opacity:1;stroke:none;font-family:SGRegular;-inkscape-font-specification:SGRegular"
       d="m 765.51771,714.87747 0,0.65625 0,0.15625 0,0.65626 c 0.0141,0.9101 0.025,2.06458 0,4.06249 0,0.29235 0.005,0.33351 0,0.65625 l 0,8.15627 -1,0 -0.65622,0 -12.03124,0 -0.65627,0 0,0.65622 0,4.56254 0,0.65622 0.65627,0 12.03124,0 0.65622,0 1,0 0,1 0,0.65628 0,12.03124 0,0.65622 0.65628,0 4.56249,0 0.65627,0 0,-0.65622 0,-12.68752 0,-1 8.15626,0 0.65622,0 c 0.87177,0.0103 2.15706,0.025 4.06251,0 0.28904,0 0.34845,0.005 0.65622,0 l 0.15625,0 0.65628,0 0,-0.65622 0,-4.56254 0,-0.65622 -0.65628,0 -0.15625,0 c -0.12138,0.005 -0.5092,0 -0.65622,0 -0.75153,0.0179 -2.2527,0.0163 -4.06251,0 l -0.65622,0 -8.15626,0 0,-8.15627 c 0.0114,-0.73705 0.0293,-2.50544 0,-4.71874 l 0,-0.81251 0,-0.65625 -0.65627,0 -4.56249,0 -0.65628,0 z"
       id="path3539"
       inkscape:connector-curvature="0" />
    <path
       id="path5867"
       style="font-size:85.83184814000000529px;font-style:normal;font-variant:normal;font-weight:normal;font-stretch:normal;text-align:start;line-height:100%;letter-spacing:22.58870505999999878px;word-spacing:0px;writing-mode:lr-tb;text-anchor:start;fill:#1a1a1a;fill-opacity:1;stroke:none;font-family:SGRegular;-inkscape-font-specification:SGRegular"
       d="m 582.7242,599.34457 0,-33.09655 5.22082,0 0,33.09655 -5.22082,0"
       inkscape:connector-curvature="0" />
    <path
       id="path5869"
       style="font-size:85.83184814000000529px;font-style:normal;font-variant:normal;font-weight:normal;font-stretch:normal;text-align:start;line-height:100%;letter-spacing:22.58870505999999878px;word-spacing:0px;writing-mode:lr-tb;text-anchor:start;fill:#1a1a1a;fill-opacity:1;stroke:none;font-family:SGRegular;-inkscape-font-specification:SGRegular"
       d="m 638.25056,576.64315 c 0.74577,1.98892 1.11872,4.03997 1.11872,6.15315 0,2.11324 -0.37295,4.16424 -1.11872,6.15316 -0.74589,1.98892 -1.81801,3.80688 -3.21643,5.45392 -1.3674,1.61598 -3.13876,2.9212 -5.31408,3.91567 -2.17542,0.96334 -4.58383,1.44506 -7.22533,1.44506 -3.51165,0 -6.58823,-0.83908 -9.22974,-2.51719 -2.61044,-1.70923 -4.55271,-3.82241 -5.82686,-6.33966 -1.24304,-2.54825 -1.86456,-5.25189 -1.86456,-8.11096 0,-2.85901 0.62152,-5.54717 1.86456,-8.06436 1.27415,-2.54826 3.21642,-4.66147 5.82686,-6.33963 2.64151,-1.70918 5.71809,-2.56379 9.22974,-2.56382 2.6415,3e-5 5.04991,0.49726 7.22533,1.49168 2.17532,0.9634 3.94668,2.26861 5.31408,3.91564 1.39842,1.61599 2.47054,3.41847 3.21643,5.40734 m -7.45838,14.8701 c 2.08212,-2.33069 3.12317,-5.23636 3.12317,-8.71695 0,-3.48058 -1.04105,-6.3862 -3.12317,-8.717 -2.05111,-2.3307 -4.81687,-3.49607 -8.29746,-3.49609 -3.51165,2e-5 -6.29301,1.16539 -8.34406,3.49609 -2.05105,2.3308 -3.07658,5.23642 -3.07658,8.717 0,3.48059 1.02553,6.38626 3.07658,8.71695 2.05105,2.33075 4.83241,3.49612 8.34406,3.49612 3.48059,0 6.24635,-1.16537 8.29746,-3.49612"
       inkscape:connector-curvature="0" />
    <path
       id="path5871"
       style="font-size:85.83184814000000529px;font-style:normal;font-variant:normal;font-weight:normal;font-stretch:normal;text-align:start;line-height:100%;letter-spacing:22.58870505999999878px;word-spacing:0px;writing-mode:lr-tb;text-anchor:start;fill:#1a1a1a;fill-opacity:1;stroke:none;font-family:SGRegular;-inkscape-font-specification:SGRegular"
       d="m 684.23984,566.24802 0,33.09655 -5.59377,0 -16.96781,-25.40511 0.55939,25.40511 -5.26748,0 0,-33.09655 5.59377,0 16.96781,25.40508 -0.55939,-25.40508 5.26748,0"
       inkscape:connector-curvature="0" />
    <path
       id="path5873"
       style="font-size:85.83184814000000529px;font-style:normal;font-variant:normal;font-weight:normal;font-stretch:normal;text-align:start;line-height:100%;letter-spacing:22.58870505999999878px;word-spacing:0px;writing-mode:lr-tb;text-anchor:start;fill:#1a1a1a;fill-opacity:1;stroke:none;font-family:SGRegular;-inkscape-font-specification:SGRegular"
       d="m 723.01547,568.53215 1.02552,6.01329 c -1.77136,-1.36729 -3.4184,-2.33069 -4.94113,-2.89009 -1.52278,-0.59043 -3.18542,-0.88566 -4.98784,-0.88569 -4.25748,3e-5 -6.3862,1.25863 -6.3862,3.77578 0,0.65264 0.10873,1.22756 0.32629,1.72476 0.24863,0.4662 0.65259,0.88574 1.21197,1.25863 0.55939,0.37294 1.04106,0.65263 1.44507,0.83908 0.43507,0.18644 1.10324,0.4506 2.00446,0.79243 l 5.12763,1.86461 c 2.79688,1.02552 4.84793,2.25302 6.15316,3.68256 1.33628,1.42953 2.0044,3.26302 2.00445,5.50052 -5e-5,2.76582 -1.13436,5.1121 -3.40292,7.03889 -2.26857,1.89562 -5.22089,2.84348 -8.8568,2.84348 -1.74029,0 -3.68256,-0.35735 -5.82686,-1.07212 -2.11319,-0.74583 -3.86901,-1.66263 -5.26748,-2.75029 l -1.07213,-6.71254 c 1.61598,1.61598 3.55825,2.95226 5.82687,4.00885 2.26856,1.02553 4.36621,1.53832 6.293,1.53832 2.14425,0 3.82236,-0.40401 5.03439,-1.21197 1.24303,-0.80802 1.86455,-1.88014 1.8646,-3.21643 -5e-5,-1.30522 -0.38847,-2.34628 -1.16537,-3.12323 -0.77695,-0.7769 -2.31521,-1.58486 -4.61489,-2.42394 l -5.12764,-1.86461 c -2.48612,-0.93227 -4.3352,-2.05105 -5.54717,-3.35627 -1.21197,-1.33629 -1.81795,-3.06099 -1.81795,-5.17423 0,-2.7658 1.05659,-4.94116 3.16982,-6.52609 2.11319,-1.58488 4.9256,-2.37733 8.43726,-2.37736 3.23196,3e-5 6.26194,0.90125 9.08989,2.70366"
       inkscape:connector-curvature="0" />
    <path
       sodipodi:nodetypes="cccsccsccsccccscccscscccsccccscsscccssccsccccccccccscccccc"
       inkscape:connector-curvature="0"
       id="path5875"
       d="m 402.64326,293.20539 c -6.8421,1.49975 -16.97874,3.9368 -18.68586,4.03926 -0.72656,0.92775 -17.1144,9.94235 -18.75375,10.31881 -3.79679,-1.3966 -9.1073,-5.62593 -10.77704,-5.8213 -1.23947,-0.14502 -58.11119,29.7714 -59.02764,30.20966 -0.80374,-0.56269 -38.11416,-16.98021 -38.7505,-17.17338 -5.79944,1.62918 -11.00025,2.99332 -17.40891,4.9198 -4.96509,1.49252 -14.2458,2.89342 -16.3268,3.39434 -16.09783,7.46607 -70.92849,34.0647 -73.18205,35.1654 -1.12159,0.0684 -12.85276,-1.28796 -15.17272,-0.8995 -1.54141,0.25809 -11.04953,7.40433 -11.67654,7.75608 -9.55509,4.37013 -15.83479,6.79597 -24.456242,11.04859 -4.067923,3.34851 -9.719006,7.61977 -12.355412,9.01198 4.371253,0.70266 28.356954,3.75709 30.315664,3.45334 1.6226,-1.15087 22.58203,-16.05492 23.48962,-16.43951 0.91084,-0.38597 16.67849,3.00864 18.14097,2.92104 2.04455,-0.95844 12.23198,-6.19019 13.33112,-6.49589 1.77055,-1.37903 13.48823,-11.56402 15.44978,-12.93582 1.15712,-0.38921 17.60252,-9.48156 20.23028,-10.87888 1.5769,-0.83851 14.58291,-11.03037 17.30619,-12.12028 5.13124,-1.29097 11.82242,-1.31096 16.46105,-3.02497 1.9706,-0.72816 8.36152,-3.34322 10.40174,-3.14929 4.38657,1.50661 45.5008,21.84143 46.76549,22.23198 0.84602,-0.0326 13.25469,-6.91236 14.59568,-6.99234 5.96855,-2.94005 40.11194,-27.97434 40.6303,-28.34277 0.63701,-0.45277 8.08635,5.05298 13.33977,7.09417 2.83167,-1.70631 16.52678,-9.32653 19.60233,-10.84492 1.31055,-0.33773 13.82558,-4.82534 16.22497,-5.12546 4.39966,2.01029 28.25451,11.13615 35.01268,14.81631 8.78396,4.23607 17.29502,6.49892 25.00165,10.93731 14.555,8.38255 33.69834,18.08422 43.03533,24.59183 -2.59213,0.6817 -6.59849,0.5141 -12.37642,2.15292 -19.02848,5.39712 -44.53749,11.19976 -45.2339,11.59106 -0.65617,0.36868 -13.96552,9.19501 -15.30919,11.31625 4.64221,1.82905 15.29762,7.50333 18.98312,9.10265 l 13.72233,-7.89425 c 2.53125,-0.9255 20.29986,-8.12866 21.02206,-8.53635 1.06176,-0.59937 13.14323,-2.78709 15.1869,-3.91833 2.1689,-1.20054 16.6603,-5.16145 20.16479,-5.65789 3.00152,-1.03646 52.295,-14.16436 53.42056,-14.56728 10.83866,2.26646 29.5341,7.38038 32.92915,8.13975 3.07425,0.68765 24.61258,6.89419 36.38997,9.92373 1.10895,0.28287 2.78462,0.7768 3.13975,0.8995 0.85428,0.29515 2.18389,0.70242 3.27556,1.00134 4.64596,1.64092 46.75701,15.59906 50.32091,16.93774 6.95552,2.73493 13.51307,5.44285 23.01365,7.82397 l -10.26276,-9.18847 c -19.7118,-6.83356 -47.15998,-17.78506 -64.96285,-23.6577 -2.73465,-1.44239 -65.10308,-18.80248 -66.65796,-19.17216 -2.83827,-0.67474 -7.35204,-1.19039 -11.04862,-2.80033 -0.11356,-0.004 -0.22555,-0.008 -0.33943,0 -13.18749,4.13405 -48.85232,12.51246 -50.7115,12.76273 -1.49845,0.20172 -2.8809,0.46778 -4.1411,0.7807 -11.52317,-7.13883 -29.50765,-17.37447 -40.01931,-24.16773 -0.27301,-0.47631 -10.09147,-5.86094 -10.82796,-6.38136 -2.84766,-1.15743 -23.0685,-11.84597 -26.25527,-13.27189 -10.80987,-4.66441 -25.20917,-11.50501 -36.18368,-14.88419 z"
       style="font-size:medium;font-style:normal;font-variant:normal;font-weight:normal;font-stretch:normal;text-indent:0;text-align:start;text-decoration:none;line-height:normal;letter-spacing:normal;word-spacing:normal;text-transform:none;direction:ltr;block-progression:tb;writing-mode:lr-tb;text-anchor:start;baseline-shift:baseline;color:#000000;fill:#1a1a1a;fill-opacity:1;fill-rule:nonzero;stroke:none;stroke-width:15;marker:none;visibility:visible;display:inline;overflow:visible;enable-background:accumulate;font-family:Sans;-inkscape-font-specification:Sans" />
    <g
       id="g3417">
      <g
         transform="translate(-15.283845,-15.131007)"
         id="g3395">
        <path
           inkscape:connector-curvature="0"
           style="fill:#dddddd;fill-opacity:1;fill-rule:evenodd;stroke:none"
           d="m 866.84411,801.90151 130.33565,0 0,65.00004 -130.33565,0 z"
           id="rect3077" />
        <g
           transform="translate(746.84411,12.199245)"
           style="font-size:40px;font-style:italic;font-variant:normal;font-weight:normal;font-stretch:normal;text-align:start;line-height:100%;letter-spacing:0px;word-spacing:0px;writing-mode:lr-tb;text-anchor:start;fill:#1a1a1a;fill-opacity:1;stroke:none;font-family:Fanwood Text;-inkscape-font-specification:Fanwood Text Italic"
           id="text3163">
          <path
             inkscape:connector-curvature="0"
             d="m 131.936,839.54227 c -1e-5,0.08 -0.04,0.12001 -0.12,0.12 l -0.84,0 c -0.04,10e-6 -0.06,0.016 -0.06,0.048 l -0.24,1.656 c -10e-6,0.032 0.012,0.048 0.036,0.048 l 0.684,0 c 0.08,0 0.11999,0.04 0.12,0.12 l 0,0.756 c -1e-5,0.08 -0.04,0.12 -0.12,0.12 l -0.84,0 c -0.04,0 -0.06,0.016 -0.06,0.048 l -0.288,1.896 c -0.008,0.072 -0.048,0.108 -0.12,0.108 l -0.912,-0.012 c -0.032,0 -0.06,-0.012 -0.084,-0.036 -0.024,-0.024 -0.032,-0.056 -0.024,-0.096 l 0.276,-1.86 c 0,-0.032 -0.012,-0.048 -0.036,-0.048 l -1.572,0 c -0.04,0 -0.06,0.016 -0.06,0.048 l -0.288,1.896 c -0.008,0.072 -0.048,0.108 -0.12,0.108 l -0.912,-0.012 c -0.032,0 -0.06,-0.012 -0.084,-0.036 -0.024,-0.024 -0.032,-0.056 -0.024,-0.096 l 0.276,-1.86 c 0,-0.032 -0.012,-0.048 -0.036,-0.048 l -0.708,0 c -0.08,0 -0.12,-0.04 -0.12,-0.12 l 0.012,-0.756 c 0,-0.08 0.04,-0.12 0.12,-0.12 l 0.84,0 c 0.04,0 0.06,-0.016 0.06,-0.048 l 0.24,-1.656 c 0,-0.032 -0.012,-0.048 -0.036,-0.048 l -0.696,0 c -0.08,10e-6 -0.12,-0.04 -0.12,-0.12 l 0.012,-0.768 c 0,-0.08 0.04,-0.11999 0.12,-0.12 l 0.84,0 c 0.04,10e-6 0.06,-0.016 0.06,-0.048 l 0.288,-1.896 c 0.008,-0.072 0.048,-0.10799 0.12,-0.108 l 0.912,0.012 c 0.032,10e-6 0.06,0.012 0.084,0.036 0.024,0.024 0.032,0.056 0.024,0.096 l -0.276,1.86 c 0,0.032 0.012,0.048 0.036,0.048 l 1.572,0 c 0.04,10e-6 0.06,-0.016 0.06,-0.048 l 0.288,-1.896 c 0.008,-0.072 0.048,-0.10799 0.12,-0.108 l 0.924,0.012 c 0.032,10e-6 0.06,0.012 0.084,0.036 0.024,0.024 0.032,0.056 0.024,0.096 l -0.276,1.86 c -1e-5,0.032 0.012,0.048 0.036,0.048 l 0.684,0 c 0.08,10e-6 0.11999,0.04 0.12,0.12 l 0,0.768 m -2.484,1.872 c 0.04,0 0.06,-0.016 0.06,-0.048 l 0.24,-1.656 c 0,-0.032 -0.012,-0.048 -0.036,-0.048 l -1.56,0 c -0.04,10e-6 -0.06,0.016 -0.06,0.048 l -0.252,1.656 c 0,0.032 0.012,0.048 0.036,0.048 l 1.572,0"
             style="font-size:12px;font-style:normal;font-weight:500;font-stretch:semi-condensed;line-height:100%;fill:#1a1a1a;font-family:Barlow Semi Condensed;-inkscape-font-specification:'Barlow Semi Condensed, Medium Semi-Condensed'"
             id="path5374" />
          <path
             inkscape:connector-curvature="0"
             d="m 136.58919,836.42227 c -1e-5,-0.08 0.04,-0.11999 0.12,-0.12 l 0.912,0 c 0.08,10e-6 0.11999,0.04 0.12,0.12 l 0,8.16 c -10e-6,0.08 -0.04,0.12 -0.12,0.12 l -0.912,0 c -0.08,0 -0.12001,-0.04 -0.12,-0.12 l 0,-0.396 c -1e-5,-0.016 -0.008,-0.028 -0.024,-0.036 -0.016,-0.008 -0.028,-0.004 -0.036,0.012 -0.30401,0.424 -0.75201,0.636 -1.344,0.636 -0.504,0 -0.908,-0.144 -1.212,-0.432 -0.304,-0.296 -0.524,-0.74 -0.66,-1.332 -0.096,-0.416 -0.144,-0.876 -0.144,-1.38 0,-0.504 0.04,-0.956 0.12,-1.356 0.232,-1.19999 0.88,-1.79999 1.944,-1.8 0.58399,10e-6 1.01599,0.20401 1.296,0.612 0.008,0.024 0.02,0.036 0.036,0.036 0.016,-0.008 0.024,-0.024 0.024,-0.048 l 0,-2.676 m -0.144,6.552 c 0.096,-0.32 0.14399,-0.764 0.144,-1.332 -1e-5,-0.576 -0.052,-1.024 -0.156,-1.344 -0.16001,-0.53599 -0.47201,-0.80399 -0.936,-0.804 -0.24001,10e-6 -0.444,0.072 -0.612,0.216 -0.168,0.13601 -0.292,0.32401 -0.372,0.564 -0.12,0.336 -0.18,0.792 -0.18,1.368 0,0.56 0.048,1 0.144,1.32 0.16,0.56 0.496,0.84 1.008,0.84 0.47999,0 0.79999,-0.276 0.96,-0.828"
             style="font-size:12px;font-style:normal;font-weight:500;font-stretch:semi-condensed;line-height:100%;fill:#1a1a1a;font-family:Barlow Semi Condensed;-inkscape-font-specification:'Barlow Semi Condensed, Medium Semi-Condensed'"
             id="path5376" />
          <path
             inkscape:connector-curvature="0"
             d="m 142.44856,836.42227 c 0,-0.08 0.04,-0.11999 0.12,-0.12 l 0.912,0 c 0.08,10e-6 0.12,0.04 0.12,0.12 l 0,8.16 c 0,0.08 -0.04,0.12 -0.12,0.12 l -0.912,0 c -0.08,0 -0.12,-0.04 -0.12,-0.12 l 0,-0.396 c 0,-0.016 -0.008,-0.028 -0.024,-0.036 -0.016,-0.008 -0.028,-0.004 -0.036,0.012 -0.304,0.424 -0.752,0.636 -1.344,0.636 -0.504,0 -0.908,-0.144 -1.212,-0.432 -0.304,-0.296 -0.524,-0.74 -0.66,-1.332 -0.096,-0.416 -0.144,-0.876 -0.144,-1.38 0,-0.504 0.04,-0.956 0.12,-1.356 0.232,-1.19999 0.88,-1.79999 1.944,-1.8 0.584,10e-6 1.016,0.20401 1.296,0.612 0.008,0.024 0.02,0.036 0.036,0.036 0.016,-0.008 0.024,-0.024 0.024,-0.048 l 0,-2.676 m -0.144,6.552 c 0.096,-0.32 0.144,-0.764 0.144,-1.332 0,-0.576 -0.052,-1.024 -0.156,-1.344 -0.16,-0.53599 -0.472,-0.80399 -0.936,-0.804 -0.24,10e-6 -0.444,0.072 -0.612,0.216 -0.168,0.13601 -0.292,0.32401 -0.372,0.564 -0.12,0.336 -0.18,0.792 -0.18,1.368 0,0.56 0.048,1 0.144,1.32 0.16,0.56 0.496,0.84 1.008,0.84 0.48,0 0.8,-0.276 0.96,-0.828"
             style="font-size:12px;font-style:normal;font-weight:500;font-stretch:semi-condensed;line-height:100%;fill:#1a1a1a;font-family:Barlow Semi Condensed;-inkscape-font-specification:'Barlow Semi Condensed, Medium Semi-Condensed'"
             id="path5378" />
          <path
             inkscape:connector-curvature="0"
             d="m 148.30794,836.42227 c -1e-5,-0.08 0.04,-0.11999 0.12,-0.12 l 0.912,0 c 0.08,10e-6 0.11999,0.04 0.12,0.12 l 0,8.16 c -10e-6,0.08 -0.04,0.12 -0.12,0.12 l -0.912,0 c -0.08,0 -0.12001,-0.04 -0.12,-0.12 l 0,-0.396 c -1e-5,-0.016 -0.008,-0.028 -0.024,-0.036 -0.016,-0.008 -0.028,-0.004 -0.036,0.012 -0.30401,0.424 -0.75201,0.636 -1.344,0.636 -0.504,0 -0.908,-0.144 -1.212,-0.432 -0.304,-0.296 -0.524,-0.74 -0.66,-1.332 -0.096,-0.416 -0.144,-0.876 -0.144,-1.38 0,-0.504 0.04,-0.956 0.12,-1.356 0.232,-1.19999 0.88,-1.79999 1.944,-1.8 0.58399,10e-6 1.01599,0.20401 1.296,0.612 0.008,0.024 0.02,0.036 0.036,0.036 0.016,-0.008 0.024,-0.024 0.024,-0.048 l 0,-2.676 m -0.144,6.552 c 0.096,-0.32 0.14399,-0.764 0.144,-1.332 -1e-5,-0.576 -0.052,-1.024 -0.156,-1.344 -0.16001,-0.53599 -0.47201,-0.80399 -0.936,-0.804 -0.24001,10e-6 -0.444,0.072 -0.612,0.216 -0.168,0.13601 -0.292,0.32401 -0.372,0.564 -0.12,0.336 -0.18,0.792 -0.18,1.368 0,0.56 0.048,1 0.144,1.32 0.16,0.56 0.496,0.84 1.008,0.84 0.47999,0 0.79999,-0.276 0.96,-0.828"
             style="font-size:12px;font-style:normal;font-weight:500;font-stretch:semi-condensed;line-height:100%;fill:#1a1a1a;font-family:Barlow Semi Condensed;-inkscape-font-specification:'Barlow Semi Condensed, Medium Semi-Condensed'"
             id="path5380" />
          <path
             inkscape:connector-curvature="0"
             d="m 154.16731,836.42227 c 0,-0.08 0.04,-0.11999 0.12,-0.12 l 0.912,0 c 0.08,10e-6 0.12,0.04 0.12,0.12 l 0,8.16 c 0,0.08 -0.04,0.12 -0.12,0.12 l -0.912,0 c -0.08,0 -0.12,-0.04 -0.12,-0.12 l 0,-0.396 c 0,-0.016 -0.008,-0.028 -0.024,-0.036 -0.016,-0.008 -0.028,-0.004 -0.036,0.012 -0.304,0.424 -0.752,0.636 -1.344,0.636 -0.504,0 -0.908,-0.144 -1.212,-0.432 -0.304,-0.296 -0.524,-0.74 -0.66,-1.332 -0.096,-0.416 -0.144,-0.876 -0.144,-1.38 0,-0.504 0.04,-0.956 0.12,-1.356 0.232,-1.19999 0.88,-1.79999 1.944,-1.8 0.584,10e-6 1.016,0.20401 1.296,0.612 0.008,0.024 0.02,0.036 0.036,0.036 0.016,-0.008 0.024,-0.024 0.024,-0.048 l 0,-2.676 m -0.144,6.552 c 0.096,-0.32 0.144,-0.764 0.144,-1.332 0,-0.576 -0.052,-1.024 -0.156,-1.344 -0.16,-0.53599 -0.472,-0.80399 -0.936,-0.804 -0.24,10e-6 -0.444,0.072 -0.612,0.216 -0.168,0.13601 -0.292,0.32401 -0.372,0.564 -0.12,0.336 -0.18,0.792 -0.18,1.368 0,0.56 0.048,1 0.144,1.32 0.16,0.56 0.496,0.84 1.008,0.84 0.48,0 0.8,-0.276 0.96,-0.828"
             style="font-size:12px;font-style:normal;font-weight:500;font-stretch:semi-condensed;line-height:100%;fill:#1a1a1a;font-family:Barlow Semi Condensed;-inkscape-font-specification:'Barlow Semi Condensed, Medium Semi-Condensed'"
             id="path5382" />
          <path
             inkscape:connector-curvature="0"
             d="m 160.02669,836.42227 c -1e-5,-0.08 0.04,-0.11999 0.12,-0.12 l 0.912,0 c 0.08,10e-6 0.11999,0.04 0.12,0.12 l 0,8.16 c -10e-6,0.08 -0.04,0.12 -0.12,0.12 l -0.912,0 c -0.08,0 -0.12001,-0.04 -0.12,-0.12 l 0,-0.396 c -1e-5,-0.016 -0.008,-0.028 -0.024,-0.036 -0.016,-0.008 -0.028,-0.004 -0.036,0.012 -0.30401,0.424 -0.75201,0.636 -1.344,0.636 -0.504,0 -0.908,-0.144 -1.212,-0.432 -0.304,-0.296 -0.524,-0.74 -0.66,-1.332 -0.096,-0.416 -0.144,-0.876 -0.144,-1.38 0,-0.504 0.04,-0.956 0.12,-1.356 0.232,-1.19999 0.88,-1.79999 1.944,-1.8 0.58399,10e-6 1.01599,0.20401 1.296,0.612 0.008,0.024 0.02,0.036 0.036,0.036 0.016,-0.008 0.024,-0.024 0.024,-0.048 l 0,-2.676 m -0.144,6.552 c 0.096,-0.32 0.14399,-0.764 0.144,-1.332 -1e-5,-0.576 -0.052,-1.024 -0.156,-1.344 -0.16001,-0.53599 -0.47201,-0.80399 -0.936,-0.804 -0.24001,10e-6 -0.444,0.072 -0.612,0.216 -0.168,0.13601 -0.292,0.32401 -0.372,0.564 -0.12,0.336 -0.18,0.792 -0.18,1.368 0,0.56 0.048,1 0.144,1.32 0.16,0.56 0.496,0.84 1.008,0.84 0.47999,0 0.79999,-0.276 0.96,-0.828"
             style="font-size:12px;font-style:normal;font-weight:500;font-stretch:semi-condensed;line-height:100%;fill:#1a1a1a;font-family:Barlow Semi Condensed;-inkscape-font-specification:'Barlow Semi Condensed, Medium Semi-Condensed'"
             id="path5384" />
          <path
             inkscape:connector-curvature="0"
             d="m 165.88606,836.42227 c 0,-0.08 0.04,-0.11999 0.12,-0.12 l 0.912,0 c 0.08,10e-6 0.12,0.04 0.12,0.12 l 0,8.16 c 0,0.08 -0.04,0.12 -0.12,0.12 l -0.912,0 c -0.08,0 -0.12,-0.04 -0.12,-0.12 l 0,-0.396 c 0,-0.016 -0.008,-0.028 -0.024,-0.036 -0.016,-0.008 -0.028,-0.004 -0.036,0.012 -0.304,0.424 -0.752,0.636 -1.344,0.636 -0.504,0 -0.908,-0.144 -1.212,-0.432 -0.304,-0.296 -0.524,-0.74 -0.66,-1.332 -0.096,-0.416 -0.144,-0.876 -0.144,-1.38 0,-0.504 0.04,-0.956 0.12,-1.356 0.232,-1.19999 0.88,-1.79999 1.944,-1.8 0.584,10e-6 1.016,0.20401 1.296,0.612 0.008,0.024 0.02,0.036 0.036,0.036 0.016,-0.008 0.024,-0.024 0.024,-0.048 l 0,-2.676 m -0.144,6.552 c 0.096,-0.32 0.144,-0.764 0.144,-1.332 0,-0.576 -0.052,-1.024 -0.156,-1.344 -0.16,-0.53599 -0.472,-0.80399 -0.936,-0.804 -0.24,10e-6 -0.444,0.072 -0.612,0.216 -0.168,0.13601 -0.292,0.32401 -0.372,0.564 -0.12,0.336 -0.18,0.792 -0.18,1.368 0,0.56 0.048,1 0.144,1.32 0.16,0.56 0.496,0.84 1.008,0.84 0.48,0 0.8,-0.276 0.96,-0.828"
             style="font-size:12px;font-style:normal;font-weight:500;font-stretch:semi-condensed;line-height:100%;fill:#1a1a1a;font-family:Barlow Semi Condensed;-inkscape-font-specification:'Barlow Semi Condensed, Medium Semi-Condensed'"
             id="path5386" />
        </g>
      </g>
      <g
         transform="translate(0,-15.283845)"
         id="g3406">
        <path
           inkscape:connector-curvature="0"
           style="fill:#bbbbbb;fill-opacity:1;fill-rule:evenodd;stroke:none"
           d="m 786.84411,802.05435 65,0 0,65.00004 -65,0 z"
           id="rect3087" />
        <g
           transform="translate(746.84411,12.199245)"
           style="font-size:40px;font-style:italic;font-variant:normal;font-weight:normal;font-stretch:normal;text-align:start;line-height:100%;letter-spacing:0px;word-spacing:0px;writing-mode:lr-tb;text-anchor:start;fill:#1a1a1a;fill-opacity:1;stroke:none;font-family:Fanwood Text;-inkscape-font-specification:Fanwood Text Italic"
           id="text3167">
          <path
             inkscape:connector-curvature="0"
             d="m 51.936,839.54227 c -7e-6,0.08 -0.04001,0.12001 -0.12,0.12 l -0.84,0 c -0.04001,10e-6 -0.06001,0.016 -0.06,0.048 l -0.24,1.656 c -6e-6,0.032 0.01199,0.048 0.036,0.048 l 0.684,0 c 0.07999,0 0.119993,0.04 0.12,0.12 l 0,0.756 c -7e-6,0.08 -0.04001,0.12 -0.12,0.12 l -0.84,0 c -0.04001,0 -0.06,0.016 -0.06,0.048 l -0.288,1.896 c -0.008,0.072 -0.048,0.108 -0.12,0.108 l -0.912,-0.012 c -0.032,0 -0.06,-0.012 -0.084,-0.036 -0.024,-0.024 -0.032,-0.056 -0.024,-0.096 l 0.276,-1.86 c -4e-6,-0.032 -0.012,-0.048 -0.036,-0.048 l -1.572,0 c -0.04,0 -0.06,0.016 -0.06,0.048 l -0.288,1.896 c -0.008,0.072 -0.048,0.108 -0.12,0.108 l -0.912,-0.012 c -0.032,0 -0.06,-0.012 -0.084,-0.036 -0.024,-0.024 -0.032,-0.056 -0.024,-0.096 l 0.276,-1.86 c -2e-6,-0.032 -0.012,-0.048 -0.036,-0.048 l -0.708,0 c -0.08,0 -0.120001,-0.04 -0.12,-0.12 l 0.012,-0.756 c -10e-7,-0.08 0.04,-0.12 0.12,-0.12 l 0.84,0 c 0.04,0 0.06,-0.016 0.06,-0.048 l 0.24,-1.656 c -2e-6,-0.032 -0.012,-0.048 -0.036,-0.048 l -0.696,0 c -0.08,10e-6 -0.120001,-0.04 -0.12,-0.12 l 0.012,-0.768 c -10e-7,-0.08 0.04,-0.11999 0.12,-0.12 l 0.84,0 c 0.04,10e-6 0.06,-0.016 0.06,-0.048 l 0.288,-1.896 c 0.008,-0.072 0.048,-0.10799 0.12,-0.108 l 0.912,0.012 c 0.032,10e-6 0.06,0.012 0.084,0.036 0.024,0.024 0.032,0.056 0.024,0.096 l -0.276,1.86 c -3e-6,0.032 0.012,0.048 0.036,0.048 l 1.572,0 c 0.03999,10e-6 0.06,-0.016 0.06,-0.048 l 0.288,-1.896 c 0.008,-0.072 0.048,-0.10799 0.12,-0.108 l 0.924,0.012 c 0.03199,10e-6 0.05999,0.012 0.084,0.036 0.02399,0.024 0.03199,0.056 0.024,0.096 l -0.276,1.86 c -6e-6,0.032 0.01199,0.048 0.036,0.048 l 0.684,0 c 0.07999,10e-6 0.119993,0.04 0.12,0.12 l 0,0.768 m -2.484,1.872 c 0.04,0 0.06,-0.016 0.06,-0.048 l 0.24,-1.656 c -5e-6,-0.032 -0.01201,-0.048 -0.036,-0.048 l -1.56,0 c -0.04,10e-6 -0.06,0.016 -0.06,0.048 l -0.252,1.656 c -3e-6,0.032 0.012,0.048 0.036,0.048 l 1.572,0"
             style="font-size:12px;font-style:normal;font-weight:500;font-stretch:semi-condensed;line-height:100%;fill:#1a1a1a;font-family:Barlow Semi Condensed;-inkscape-font-specification:'Barlow Semi Condensed, Medium Semi-Condensed'"
             id="path5359" />
          <path
             inkscape:connector-curvature="0"
             d="m 57.813187,840.29827 c 0.08,0.4 0.119995,0.852 0.120001,1.356 -6e-6,0.504 -0.04801,0.964 -0.144001,1.38 -0.136005,0.592 -0.356004,1.036 -0.66,1.332 -0.304004,0.288 -0.708003,0.432 -1.212,0.432 -0.592002,0 -1.040002,-0.212 -1.343999,-0.636 -0.008,-0.016 -0.02,-0.02 -0.036,-0.012 -0.016,0.008 -0.024,0.02 -0.024,0.036 l 0,0.396 c -10e-7,0.08 -0.04,0.12 -0.12,0.12 l -0.912,0 c -0.08,0 -0.12,-0.04 -0.12,-0.12 l 0,-8.16 c 0,-0.08 0.04,-0.11999 0.12,-0.12 l 0.912,0 c 0.08,10e-6 0.119999,0.04 0.12,0.12 l 0,2.676 c -10e-7,0.024 0.008,0.04 0.024,0.048 0.016,1e-5 0.028,-0.012 0.036,-0.036 0.279997,-0.40799 0.711997,-0.61199 1.296,-0.612 1.063995,10e-6 1.711995,0.60001 1.943999,1.8 m -1.187999,2.664 c 0.096,-0.32 0.143995,-0.76 0.143999,-1.32 -4e-6,-0.576 -0.06,-1.032 -0.179999,-1.368 -0.08,-0.23999 -0.204004,-0.42799 -0.372,-0.564 -0.168004,-0.14399 -0.372004,-0.21599 -0.612001,-0.216 -0.464002,10e-6 -0.776002,0.26801 -0.936,0.804 -0.104001,0.32 -0.156001,0.768 -0.156,1.344 -1e-6,0.568 0.048,1.012 0.144,1.332 0.159998,0.552 0.479998,0.828 0.96,0.828 0.511997,0 0.847997,-0.28 1.008001,-0.84"
             style="font-size:12px;font-style:normal;font-weight:500;font-stretch:semi-condensed;line-height:100%;fill:#1a1a1a;font-family:Barlow Semi Condensed;-inkscape-font-specification:'Barlow Semi Condensed, Medium Semi-Condensed'"
             id="path5361" />
          <path
             inkscape:connector-curvature="0"
             d="m 63.649125,840.29827 c 0.08,0.4 0.119995,0.852 0.12,1.356 -5e-6,0.504 -0.04801,0.964 -0.144,1.38 -0.136005,0.592 -0.356005,1.036 -0.66,1.332 -0.304004,0.288 -0.708004,0.432 -1.212,0.432 -0.592003,0 -1.040002,-0.212 -1.344,-0.636 -0.008,-0.016 -0.02,-0.02 -0.036,-0.012 -0.016,0.008 -0.024,0.02 -0.024,0.036 l 0,0.396 c -2e-6,0.08 -0.04,0.12 -0.12,0.12 l -0.912,0 c -0.08,0 -0.120001,-0.04 -0.12,-0.12 l 0,-8.16 c -10e-7,-0.08 0.04,-0.11999 0.12,-0.12 l 0.912,0 c 0.08,10e-6 0.119998,0.04 0.12,0.12 l 0,2.676 c -2e-6,0.024 0.008,0.04 0.024,0.048 0.016,1e-5 0.028,-0.012 0.036,-0.036 0.279998,-0.40799 0.711997,-0.61199 1.296,-0.612 1.063996,10e-6 1.711995,0.60001 1.944,1.8 m -1.188,2.664 c 0.096,-0.32 0.143996,-0.76 0.144,-1.32 -4e-6,-0.576 -0.06,-1.032 -0.18,-1.368 -0.08,-0.23999 -0.204004,-0.42799 -0.372,-0.564 -0.168003,-0.14399 -0.372003,-0.21599 -0.612,-0.216 -0.464003,10e-6 -0.776002,0.26801 -0.936,0.804 -0.104002,0.32 -0.156002,0.768 -0.156,1.344 -2e-6,0.568 0.048,1.012 0.144,1.332 0.159998,0.552 0.479997,0.828 0.96,0.828 0.511996,0 0.847996,-0.28 1.008,-0.84"
             style="font-size:12px;font-style:normal;font-weight:500;font-stretch:semi-condensed;line-height:100%;fill:#1a1a1a;font-family:Barlow Semi Condensed;-inkscape-font-specification:'Barlow Semi Condensed, Medium Semi-Condensed'"
             id="path5363" />
          <path
             inkscape:connector-curvature="0"
             d="m 69.485062,840.29827 c 0.07999,0.4 0.119995,0.852 0.120001,1.356 -6e-6,0.504 -0.04801,0.964 -0.144001,1.38 -0.136005,0.592 -0.356004,1.036 -0.66,1.332 -0.304004,0.288 -0.708003,0.432 -1.212,0.432 -0.592002,0 -1.040002,-0.212 -1.343999,-0.636 -0.008,-0.016 -0.02,-0.02 -0.036,-0.012 -0.016,0.008 -0.024,0.02 -0.024,0.036 l 0,0.396 c -10e-7,0.08 -0.04,0.12 -0.12,0.12 l -0.911999,0 c -0.08,0 -0.120001,-0.04 -0.120001,-0.12 l 0,-8.16 c 0,-0.08 0.04,-0.11999 0.120001,-0.12 l 0.911999,0 c 0.08,10e-6 0.119999,0.04 0.12,0.12 l 0,2.676 c -10e-7,0.024 0.008,0.04 0.024,0.048 0.016,1e-5 0.028,-0.012 0.036,-0.036 0.279997,-0.40799 0.711997,-0.61199 1.295999,-0.612 1.063996,10e-6 1.711996,0.60001 1.944,1.8 m -1.188,2.664 c 0.096,-0.32 0.143996,-0.76 0.144,-1.32 -4e-6,-0.576 -0.06,-1.032 -0.18,-1.368 -0.08,-0.23999 -0.204003,-0.42799 -0.372,-0.564 -0.168003,-0.14399 -0.372003,-0.21599 -0.612,-0.216 -0.464002,10e-6 -0.776002,0.26801 -0.935999,0.804 -0.104002,0.32 -0.156002,0.768 -0.156001,1.344 -10e-7,0.568 0.048,1.012 0.144001,1.332 0.159997,0.552 0.479997,0.828 0.959999,0.828 0.511997,0 0.847997,-0.28 1.008,-0.84"
             style="font-size:12px;font-style:normal;font-weight:500;font-stretch:semi-condensed;line-height:100%;fill:#1a1a1a;font-family:Barlow Semi Condensed;-inkscape-font-specification:'Barlow Semi Condensed, Medium Semi-Condensed'"
             id="path5365" />
          <path
             inkscape:connector-curvature="0"
             d="m 75.321,840.29827 c 0.07999,0.4 0.119995,0.852 0.12,1.356 -5e-6,0.504 -0.04801,0.964 -0.144,1.38 -0.136005,0.592 -0.356005,1.036 -0.66,1.332 -0.304004,0.288 -0.708004,0.432 -1.212,0.432 -0.592003,0 -1.040002,-0.212 -1.344,-0.636 -0.008,-0.016 -0.02,-0.02 -0.036,-0.012 -0.016,0.008 -0.024,0.02 -0.024,0.036 l 0,0.396 c -2e-6,0.08 -0.04,0.12 -0.12,0.12 l -0.912,0 c -0.08,0 -0.120001,-0.04 -0.12,-0.12 l 0,-8.16 c -10e-7,-0.08 0.04,-0.11999 0.12,-0.12 l 0.912,0 c 0.08,10e-6 0.119998,0.04 0.12,0.12 l 0,2.676 c -2e-6,0.024 0.008,0.04 0.024,0.048 0.016,1e-5 0.028,-0.012 0.036,-0.036 0.279998,-0.40799 0.711997,-0.61199 1.296,-0.612 1.063996,10e-6 1.711995,0.60001 1.944,1.8 m -1.188,2.664 c 0.096,-0.32 0.143996,-0.76 0.144,-1.32 -4e-6,-0.576 -0.06,-1.032 -0.18,-1.368 -0.08,-0.23999 -0.204004,-0.42799 -0.372,-0.564 -0.168003,-0.14399 -0.372003,-0.21599 -0.612,-0.216 -0.464003,10e-6 -0.776002,0.26801 -0.936,0.804 -0.104002,0.32 -0.156002,0.768 -0.156,1.344 -2e-6,0.568 0.048,1.012 0.144,1.332 0.159998,0.552 0.479997,0.828 0.96,0.828 0.511996,0 0.847996,-0.28 1.008,-0.84"
             style="font-size:12px;font-style:normal;font-weight:500;font-stretch:semi-condensed;line-height:100%;fill:#1a1a1a;font-family:Barlow Semi Condensed;-inkscape-font-specification:'Barlow Semi Condensed, Medium Semi-Condensed'"
             id="path5367" />
          <path
             inkscape:connector-curvature="0"
             d="m 81.156937,840.29827 c 0.07999,0.4 0.119995,0.852 0.120001,1.356 -6e-6,0.504 -0.04801,0.964 -0.144001,1.38 -0.136005,0.592 -0.356004,1.036 -0.66,1.332 -0.304004,0.288 -0.708003,0.432 -1.212,0.432 -0.592002,0 -1.040002,-0.212 -1.343999,-0.636 -0.008,-0.016 -0.02,-0.02 -0.036,-0.012 -0.016,0.008 -0.024,0.02 -0.024,0.036 l 0,0.396 c -10e-7,0.08 -0.04,0.12 -0.12,0.12 l -0.911999,0 c -0.08,0 -0.120001,-0.04 -0.120001,-0.12 l 0,-8.16 c 0,-0.08 0.04,-0.11999 0.120001,-0.12 l 0.911999,0 c 0.08,10e-6 0.119999,0.04 0.12,0.12 l 0,2.676 c -10e-7,0.024 0.008,0.04 0.024,0.048 0.016,1e-5 0.028,-0.012 0.036,-0.036 0.279997,-0.40799 0.711997,-0.61199 1.295999,-0.612 1.063996,10e-6 1.711996,0.60001 1.944,1.8 m -1.188,2.664 c 0.096,-0.32 0.143996,-0.76 0.144,-1.32 -4e-6,-0.576 -0.06,-1.032 -0.18,-1.368 -0.08,-0.23999 -0.204003,-0.42799 -0.372,-0.564 -0.168003,-0.14399 -0.372003,-0.21599 -0.612,-0.216 -0.464002,10e-6 -0.776002,0.26801 -0.935999,0.804 -0.104002,0.32 -0.156002,0.768 -0.156001,1.344 -10e-7,0.568 0.048,1.012 0.144001,1.332 0.159997,0.552 0.479997,0.828 0.959999,0.828 0.511997,0 0.847997,-0.28 1.008,-0.84"
             style="font-size:12px;font-style:normal;font-weight:500;font-stretch:semi-condensed;line-height:100%;fill:#1a1a1a;font-family:Barlow Semi Condensed;-inkscape-font-specification:'Barlow Semi Condensed, Medium Semi-Condensed'"
             id="path5369" />
          <path
             inkscape:connector-curvature="0"
             d="m 86.992875,840.29827 c 0.07999,0.4 0.119995,0.852 0.12,1.356 -5e-6,0.504 -0.04801,0.964 -0.144,1.38 -0.136005,0.592 -0.356005,1.036 -0.66,1.332 -0.304004,0.288 -0.708004,0.432 -1.212,0.432 -0.592003,0 -1.040002,-0.212 -1.344,-0.636 -0.008,-0.016 -0.02,-0.02 -0.036,-0.012 -0.016,0.008 -0.024,0.02 -0.024,0.036 l 0,0.396 c -2e-6,0.08 -0.04,0.12 -0.12,0.12 l -0.912,0 c -0.08,0 -0.120001,-0.04 -0.12,-0.12 l 0,-8.16 c -10e-7,-0.08 0.04,-0.11999 0.12,-0.12 l 0.912,0 c 0.08,10e-6 0.119998,0.04 0.12,0.12 l 0,2.676 c -2e-6,0.024 0.008,0.04 0.024,0.048 0.016,1e-5 0.028,-0.012 0.036,-0.036 0.279998,-0.40799 0.711997,-0.61199 1.296,-0.612 1.063996,10e-6 1.711995,0.60001 1.944,1.8 m -1.188,2.664 c 0.096,-0.32 0.143996,-0.76 0.144,-1.32 -4e-6,-0.576 -0.06,-1.032 -0.18,-1.368 -0.08,-0.23999 -0.204004,-0.42799 -0.372,-0.564 -0.168003,-0.14399 -0.372003,-0.21599 -0.612,-0.216 -0.464003,10e-6 -0.776002,0.26801 -0.936,0.804 -0.104002,0.32 -0.156002,0.768 -0.156,1.344 -2e-6,0.568 0.048,1.012 0.144,1.332 0.159998,0.552 0.479997,0.828 0.96,0.828 0.511996,0 0.847996,-0.28 1.008,-0.84"
             style="font-size:12px;font-style:normal;font-weight:500;font-stretch:semi-condensed;line-height:100%;fill:#1a1a1a;font-family:Barlow Semi Condensed;-inkscape-font-specification:'Barlow Semi Condensed, Medium Semi-Condensed'"
             id="path5371" />
        </g>
      </g>
      <g
         transform="translate(-15.736355,0)"
         id="g3384">
        <path
           inkscape:connector-curvature="0"
           style="fill:#008641;fill-opacity:1;fill-rule:evenodd;stroke:none"
           d="m 867.52591,721.90151 65,0 0,65 -65,0 z"
           id="rect3089" />
        <g
           style="font-size:40px;font-style:italic;font-variant:normal;font-weight:normal;font-stretch:normal;text-align:start;line-height:100%;letter-spacing:0px;word-spacing:0px;writing-mode:lr-tb;text-anchor:start;fill:#ffffff;fill-opacity:1;stroke:none;font-family:Fanwood Text;-inkscape-font-specification:Fanwood Text Italic"
           id="text3171"
           transform="translate(828.50361,13.135215)">
          <path
             inkscape:connector-curvature="0"
             d="m 51.936,759.54227 c -7e-6,0.08 -0.04001,0.12001 -0.12,0.12 l -0.84,0 c -0.04001,10e-6 -0.06001,0.016 -0.06,0.048 l -0.24,1.656 c -6e-6,0.032 0.01199,0.048 0.036,0.048 l 0.684,0 c 0.07999,0 0.119993,0.04 0.12,0.12 l 0,0.756 c -7e-6,0.08 -0.04001,0.12 -0.12,0.12 l -0.84,0 c -0.04001,0 -0.06,0.016 -0.06,0.048 l -0.288,1.896 c -0.008,0.072 -0.048,0.108 -0.12,0.108 l -0.912,-0.012 c -0.032,0 -0.06,-0.012 -0.084,-0.036 -0.024,-0.024 -0.032,-0.056 -0.024,-0.096 l 0.276,-1.86 c -4e-6,-0.032 -0.012,-0.048 -0.036,-0.048 l -1.572,0 c -0.04,0 -0.06,0.016 -0.06,0.048 l -0.288,1.896 c -0.008,0.072 -0.048,0.108 -0.12,0.108 l -0.912,-0.012 c -0.032,0 -0.06,-0.012 -0.084,-0.036 -0.024,-0.024 -0.032,-0.056 -0.024,-0.096 l 0.276,-1.86 c -2e-6,-0.032 -0.012,-0.048 -0.036,-0.048 l -0.708,0 c -0.08,0 -0.120001,-0.04 -0.12,-0.12 l 0.012,-0.756 c -10e-7,-0.08 0.04,-0.12 0.12,-0.12 l 0.84,0 c 0.04,0 0.06,-0.016 0.06,-0.048 l 0.24,-1.656 c -2e-6,-0.032 -0.012,-0.048 -0.036,-0.048 l -0.696,0 c -0.08,10e-6 -0.120001,-0.04 -0.12,-0.12 l 0.012,-0.768 c -10e-7,-0.08 0.04,-0.11999 0.12,-0.12 l 0.84,0 c 0.04,10e-6 0.06,-0.016 0.06,-0.048 l 0.288,-1.896 c 0.008,-0.072 0.048,-0.10799 0.12,-0.108 l 0.912,0.012 c 0.032,10e-6 0.06,0.012 0.084,0.036 0.024,0.024 0.032,0.056 0.024,0.096 l -0.276,1.86 c -3e-6,0.032 0.012,0.048 0.036,0.048 l 1.572,0 c 0.03999,10e-6 0.06,-0.016 0.06,-0.048 l 0.288,-1.896 c 0.008,-0.072 0.048,-0.10799 0.12,-0.108 l 0.924,0.012 c 0.03199,10e-6 0.05999,0.012 0.084,0.036 0.02399,0.024 0.03199,0.056 0.024,0.096 l -0.276,1.86 c -6e-6,0.032 0.01199,0.048 0.036,0.048 l 0.684,0 c 0.07999,10e-6 0.119993,0.04 0.12,0.12 l 0,0.768 m -2.484,1.872 c 0.04,0 0.06,-0.016 0.06,-0.048 l 0.24,-1.656 c -5e-6,-0.032 -0.01201,-0.048 -0.036,-0.048 l -1.56,0 c -0.04,10e-6 -0.06,0.016 -0.06,0.048 l -0.252,1.656 c -3e-6,0.032 0.012,0.048 0.036,0.048 l 1.572,0"
             style="font-size:12px;font-style:normal;font-weight:500;font-stretch:semi-condensed;line-height:100%;fill:#ffffff;font-family:Barlow Semi Condensed;-inkscape-font-specification:'Barlow Semi Condensed, Medium Semi-Condensed'"
             id="path5344" />
          <path
             inkscape:connector-curvature="0"
             d="m 55.569187,764.82227 c -0.728002,0 -1.308001,-0.216 -1.739999,-0.648 -0.432001,-0.432 -0.648001,-1.012 -0.648001,-1.74 l 0,-3.864 c 0,-0.71999 0.216,-1.29599 0.648001,-1.728 0.431998,-0.43199 1.011997,-0.64799 1.739999,-0.648 0.727997,1e-5 1.311996,0.21601 1.752,0.648 0.439995,0.43201 0.659995,1.00801 0.66,1.728 l 0,3.864 c -5e-6,0.728 -0.220005,1.308 -0.66,1.74 -0.432004,0.432 -1.016003,0.648 -1.752,0.648 m 0,-0.996 c 0.383997,0 0.687997,-0.12 0.912,-0.36 0.231996,-0.248 0.347996,-0.572 0.348001,-0.972 l 0,-3.972 c -5e-6,-0.39999 -0.116005,-0.71999 -0.348001,-0.96 -0.224003,-0.24799 -0.528003,-0.37199 -0.912,-0.372 -0.376002,10e-6 -0.676002,0.12401 -0.9,0.372 -0.224001,0.24001 -0.336001,0.56001 -0.336,0.96 l 0,3.972 c -1e-6,0.4 0.111999,0.724 0.336,0.972 0.223998,0.24 0.523998,0.36 0.9,0.36"
             style="font-size:12px;font-style:normal;font-weight:500;font-stretch:semi-condensed;line-height:100%;fill:#ffffff;font-family:Barlow Semi Condensed;-inkscape-font-specification:'Barlow Semi Condensed, Medium Semi-Condensed'"
             id="path5346" />
          <path
             inkscape:connector-curvature="0"
             d="m 61.498875,764.82227 c -0.728002,0 -1.308002,-0.216 -1.74,-0.648 -0.432001,-0.432 -0.648001,-1.012 -0.648,-1.74 l 0,-3.864 c -10e-7,-0.71999 0.215999,-1.29599 0.648,-1.728 0.431998,-0.43199 1.011998,-0.64799 1.74,-0.648 0.727996,1e-5 1.311996,0.21601 1.752,0.648 0.439995,0.43201 0.659995,1.00801 0.66,1.728 l 0,3.864 c -5e-6,0.728 -0.220005,1.308 -0.66,1.74 -0.432004,0.432 -1.016004,0.648 -1.752,0.648 m 0,-0.996 c 0.383997,0 0.687996,-0.12 0.912,-0.36 0.231996,-0.248 0.347996,-0.572 0.348,-0.972 l 0,-3.972 c -4e-6,-0.39999 -0.116004,-0.71999 -0.348,-0.96 -0.224004,-0.24799 -0.528003,-0.37199 -0.912,-0.372 -0.376003,10e-6 -0.676002,0.12401 -0.9,0.372 -0.224002,0.24001 -0.336002,0.56001 -0.336,0.96 l 0,3.972 c -2e-6,0.4 0.111998,0.724 0.336,0.972 0.223998,0.24 0.523997,0.36 0.9,0.36"
             style="font-size:12px;font-style:normal;font-weight:500;font-stretch:semi-condensed;line-height:100%;fill:#ffffff;font-family:Barlow Semi Condensed;-inkscape-font-specification:'Barlow Semi Condensed, Medium Semi-Condensed'"
             id="path5348" />
          <path
             inkscape:connector-curvature="0"
             d="m 68.688563,760.21427 c -0.02401,0.024 -0.02401,0.048 0,0.072 0.303995,0.176 0.531995,0.432 0.683999,0.768 0.167995,0.344 0.251995,0.768 0.252,1.272 -5e-6,0.448 -0.08,0.86 -0.24,1.236 -0.176004,0.384 -0.444004,0.688 -0.804,0.912 -0.360003,0.216 -0.780003,0.324 -1.26,0.324 -0.472002,0 -0.888001,-0.108 -1.247999,-0.324 -0.352002,-0.224 -0.616001,-0.536 -0.792,-0.936 -0.160001,-0.368 -0.240001,-0.776 -0.240001,-1.224 0,-0.448 0.08,-0.86 0.240001,-1.236 0.151999,-0.336 0.379998,-0.6 0.683999,-0.792 0.032,-0.024 0.032,-0.048 0,-0.072 -0.272001,-0.16799 -0.480001,-0.38799 -0.623999,-0.66 -0.192001,-0.33599 -0.288001,-0.71999 -0.288001,-1.152 0,-0.45599 0.1,-0.85999 0.300001,-1.212 0.183998,-0.32799 0.447998,-0.57999 0.792,-0.756 0.343997,-0.17599 0.739997,-0.26399 1.187999,-0.264 0.463997,1e-5 0.871997,0.092 1.224,0.276 0.351996,0.18401 0.619996,0.45601 0.804,0.816 0.175995,0.33601 0.263995,0.72001 0.264,1.152 -5e-6,0.42401 -0.09201,0.79601 -0.276,1.116 -0.152004,0.26401 -0.372004,0.49201 -0.659999,0.684 m -2.340001,-2.448 c -0.104001,0.20001 -0.156001,0.44801 -0.156,0.744 -10e-7,0.30401 0.06,0.56401 0.18,0.78 0.088,0.18401 0.211998,0.32401 0.372,0.42 0.167998,0.096 0.363998,0.14401 0.588,0.144 0.463997,10e-6 0.795997,-0.20399 0.996001,-0.612 0.111996,-0.20799 0.167995,-0.45599 0.167999,-0.744 -4e-6,-0.27999 -0.056,-0.52399 -0.167999,-0.732 -0.096,-0.19199 -0.228004,-0.33999 -0.396,-0.444 -0.168004,-0.11199 -0.368004,-0.16799 -0.600001,-0.168 -0.232002,10e-6 -0.432002,0.056 -0.6,0.168 -0.160002,0.10401 -0.288001,0.25201 -0.384,0.444 m 1.956001,5.364 c 0.119996,-0.264 0.179995,-0.564 0.179999,-0.9 -4e-6,-0.272 -0.048,-0.54 -0.143999,-0.804 -0.08,-0.232 -0.208004,-0.408 -0.384,-0.528 -0.168004,-0.128 -0.376004,-0.192 -0.624001,-0.192 -0.240002,0 -0.444002,0.064 -0.612,0.192 -0.168002,0.128 -0.296001,0.304 -0.384,0.528 -0.088,0.216 -0.132001,0.488 -0.132,0.816 -10e-7,0.352 0.052,0.648 0.156,0.888 0.08,0.216 0.203998,0.384 0.372,0.504 0.167998,0.112 0.367998,0.168 0.6,0.168 0.231997,0 0.431997,-0.056 0.600001,-0.168 0.167996,-0.12 0.291996,-0.288 0.372,-0.504"
             style="font-size:12px;font-style:normal;font-weight:500;font-stretch:semi-condensed;line-height:100%;fill:#ffffff;font-family:Barlow Semi Condensed;-inkscape-font-specification:'Barlow Semi Condensed, Medium Semi-Condensed'"
             id="path5350" />
          <path
             inkscape:connector-curvature="0"
             d="m 75.22275,760.87427 c 0.135995,0.344 0.203995,0.752 0.204,1.224 -5e-6,0.4 -0.04801,0.756 -0.144,1.068 -0.112005,0.52 -0.356005,0.924 -0.732,1.212 -0.376004,0.28 -0.848003,0.42 -1.416,0.42 -0.568002,0 -1.040002,-0.14 -1.416,-0.42 -0.376001,-0.288 -0.628001,-0.7 -0.756,-1.236 -0.08,-0.288 -0.120001,-0.624 -0.12,-1.008 l -0.012,-3.804 c -10e-7,-0.63999 0.207999,-1.15199 0.624,-1.536 0.415998,-0.39199 0.963998,-0.58799 1.644,-0.588 0.639996,10e-6 1.159996,0.19201 1.56,0.576 0.407995,0.38401 0.611995,0.88801 0.612,1.512 l 0,0.252 c -5e-6,0.08 -0.04001,0.12001 -0.12,0.12 l -0.912,0 c -0.08,10e-6 -0.120004,-0.04 -0.12,-0.12 l 0,-0.168 c -4e-6,-0.33599 -0.100004,-0.61199 -0.3,-0.828 -0.192003,-0.21599 -0.432003,-0.32399 -0.72,-0.324 -0.328003,10e-6 -0.596002,0.10801 -0.804,0.324 -0.200002,0.21601 -0.300002,0.50401 -0.3,0.864 l 0,1.428 c -2e-6,0.016 0.004,0.028 0.012,0.036 0.016,0.008 0.032,0.004 0.048,-0.012 0.287998,-0.31999 0.679997,-0.47999 1.176,-0.48 0.503996,1e-5 0.927996,0.13201 1.272,0.396 0.343995,0.26401 0.583995,0.628 0.72,1.092 m -1.068,2.064 c 0.072,-0.28 0.107996,-0.568 0.108,-0.864 -4e-6,-0.352 -0.048,-0.676 -0.144,-0.972 -0.176004,-0.488 -0.508003,-0.732 -0.996,-0.732 -0.248003,0 -0.460002,0.068 -0.636,0.204 -0.168002,0.128 -0.292002,0.316 -0.372,0.564 -0.08,0.288 -0.120002,0.608 -0.12,0.96 -2e-6,0.336 0.032,0.62 0.096,0.852 0.159998,0.56 0.503998,0.84 1.032,0.84 0.263997,0 0.483997,-0.072 0.66,-0.216 0.175996,-0.152 0.299996,-0.364 0.372,-0.636"
             style="font-size:12px;font-style:normal;font-weight:500;font-stretch:semi-condensed;line-height:100%;fill:#ffffff;font-family:Barlow Semi Condensed;-inkscape-font-specification:'Barlow Semi Condensed, Medium Semi-Condensed'"
             id="path5352" />
          <path
             inkscape:connector-curvature="0"
             d="m 81.314625,761.41427 c 0.07999,0 0.119994,0.04 0.12,0.12 l 0,0.804 c -6e-6,0.08 -0.04001,0.12 -0.12,0.12 l -0.456,0 c -0.032,0 -0.04801,0.016 -0.048,0.048 l 0,2.076 c -5e-6,0.08 -0.04001,0.12 -0.12,0.12 l -0.912,0 c -0.08,0 -0.120004,-0.04 -0.12,-0.12 l 0,-2.076 c -4e-6,-0.032 -0.016,-0.048 -0.048,-0.048 l -3.228,0 c -0.08,0 -0.12,-0.04 -0.12,-0.12 l 0,-0.66 c 0,-0.056 0.008,-0.104 0.024,-0.144 l 2.052,-5.136 c 0.024,-0.064 0.068,-0.096 0.132,-0.096 l 0.984,0 c 0.04,10e-6 0.068,0.016 0.084,0.048 0.016,0.024 0.016,0.056 0,0.096 l -1.932,4.908 c -0.008,0.016 -0.008,0.032 0,0.048 0.008,0.008 0.02,0.012 0.036,0.012 l 1.968,0 c 0.032,0 0.048,-0.016 0.048,-0.048 l 0,-1.704 c -4e-6,-0.08 0.04,-0.11999 0.12,-0.12 l 0.912,0 c 0.07999,10e-6 0.119995,0.04 0.12,0.12 l 0,1.704 c -5e-6,0.032 0.016,0.048 0.048,0.048 l 0.456,0"
             style="font-size:12px;font-style:normal;font-weight:500;font-stretch:semi-condensed;line-height:100%;fill:#ffffff;font-family:Barlow Semi Condensed;-inkscape-font-specification:'Barlow Semi Condensed, Medium Semi-Condensed'"
             id="path5354" />
          <path
             inkscape:connector-curvature="0"
             d="m 82.88925,756.33827 c 0.048,-0.024 0.1,-0.036 0.156,-0.036 l 0.948,0 c 0.08,10e-6 0.119997,0.04 0.12,0.12 l 0,8.16 c -3e-6,0.08 -0.04,0.12 -0.12,0.12 l -0.912,0 c -0.08,0 -0.120002,-0.04 -0.12,-0.12 l 0,-7.104 c -2e-6,-0.016 -0.008,-0.028 -0.024,-0.036 -0.008,-0.008 -0.02,-0.008 -0.036,0 l -1.104,0.384 -0.048,0.012 c -0.056,1e-5 -0.084,-0.036 -0.084,-0.108 l 0,-0.66 c 0,-0.072 0.028,-0.11999 0.084,-0.144 l 1.14,-0.588"
             style="font-size:12px;font-style:normal;font-weight:500;font-stretch:semi-condensed;line-height:100%;fill:#ffffff;font-family:Barlow Semi Condensed;-inkscape-font-specification:'Barlow Semi Condensed, Medium Semi-Condensed'"
             id="path5356" />
        </g>
      </g>
      <g
         id="g3161"
         transform="translate(-51.352474,248.78223)">
        <path
           id="path6674"
           d="m 968.08748,473.11928 65.00002,0 0,65 -65.00002,0 z"
           style="fill:#6db790;fill-opacity:1;fill-rule:evenodd;stroke:none"
           inkscape:connector-curvature="0" />
        <g
           transform="translate(768.08748,-236.58299)"
           style="font-size:40px;font-style:italic;font-variant:normal;font-weight:normal;font-stretch:normal;text-align:start;line-height:100%;letter-spacing:0px;word-spacing:0px;writing-mode:lr-tb;text-anchor:start;fill:#ffffff;fill-opacity:1;stroke:none;font-family:Fanwood Text;-inkscape-font-specification:Fanwood Text Italic"
           id="text3175">
          <path
             inkscape:connector-curvature="0"
             d="m 211.936,759.54227 c -1e-5,0.08 -0.04,0.12001 -0.12,0.12 l -0.84,0 c -0.04,10e-6 -0.06,0.016 -0.06,0.048 l -0.24,1.656 c -10e-6,0.032 0.012,0.048 0.036,0.048 l 0.684,0 c 0.08,0 0.11999,0.04 0.12,0.12 l 0,0.756 c -1e-5,0.08 -0.04,0.12 -0.12,0.12 l -0.84,0 c -0.04,0 -0.06,0.016 -0.06,0.048 l -0.288,1.896 c -0.008,0.072 -0.048,0.108 -0.12,0.108 l -0.912,-0.012 c -0.032,0 -0.06,-0.012 -0.084,-0.036 -0.024,-0.024 -0.032,-0.056 -0.024,-0.096 l 0.276,-1.86 c 0,-0.032 -0.012,-0.048 -0.036,-0.048 l -1.572,0 c -0.04,0 -0.06,0.016 -0.06,0.048 l -0.288,1.896 c -0.008,0.072 -0.048,0.108 -0.12,0.108 l -0.912,-0.012 c -0.032,0 -0.06,-0.012 -0.084,-0.036 -0.024,-0.024 -0.032,-0.056 -0.024,-0.096 l 0.276,-1.86 c 0,-0.032 -0.012,-0.048 -0.036,-0.048 l -0.708,0 c -0.08,0 -0.12,-0.04 -0.12,-0.12 l 0.012,-0.756 c 0,-0.08 0.04,-0.12 0.12,-0.12 l 0.84,0 c 0.04,0 0.06,-0.016 0.06,-0.048 l 0.24,-1.656 c 0,-0.032 -0.012,-0.048 -0.036,-0.048 l -0.696,0 c -0.08,10e-6 -0.12,-0.04 -0.12,-0.12 l 0.012,-0.768 c 0,-0.08 0.04,-0.11999 0.12,-0.12 l 0.84,0 c 0.04,10e-6 0.06,-0.016 0.06,-0.048 l 0.288,-1.896 c 0.008,-0.072 0.048,-0.10799 0.12,-0.108 l 0.912,0.012 c 0.032,10e-6 0.06,0.012 0.084,0.036 0.024,0.024 0.032,0.056 0.024,0.096 l -0.276,1.86 c 0,0.032 0.012,0.048 0.036,0.048 l 1.572,0 c 0.04,10e-6 0.06,-0.016 0.06,-0.048 l 0.288,-1.896 c 0.008,-0.072 0.048,-0.10799 0.12,-0.108 l 0.924,0.012 c 0.032,10e-6 0.06,0.012 0.084,0.036 0.024,0.024 0.032,0.056 0.024,0.096 l -0.276,1.86 c -1e-5,0.032 0.012,0.048 0.036,0.048 l 0.684,0 c 0.08,10e-6 0.11999,0.04 0.12,0.12 l 0,0.768 m -2.484,1.872 c 0.04,0 0.06,-0.016 0.06,-0.048 l 0.24,-1.656 c 0,-0.032 -0.012,-0.048 -0.036,-0.048 l -1.56,0 c -0.04,10e-6 -0.06,0.016 -0.06,0.048 l -0.252,1.656 c 0,0.032 0.012,0.048 0.036,0.048 l 1.572,0"
             style="font-size:12px;font-style:normal;font-weight:500;font-stretch:semi-condensed;line-height:100%;fill:#ffffff;font-family:Barlow Semi Condensed;-inkscape-font-specification:'Barlow Semi Condensed, Medium Semi-Condensed'"
             id="path5329" />
          <path
             inkscape:connector-curvature="0"
             d="m 217.62119,760.87427 c 0.13599,0.344 0.20399,0.752 0.204,1.224 -1e-5,0.4 -0.048,0.756 -0.144,1.068 -0.11201,0.52 -0.35601,0.924 -0.732,1.212 -0.37601,0.28 -0.84801,0.42 -1.416,0.42 -0.568,0 -1.04,-0.14 -1.416,-0.42 -0.376,-0.288 -0.628,-0.7 -0.756,-1.236 -0.08,-0.288 -0.12,-0.624 -0.12,-1.008 l -0.012,-3.804 c 0,-0.63999 0.208,-1.15199 0.624,-1.536 0.416,-0.39199 0.964,-0.58799 1.644,-0.588 0.63999,10e-6 1.15999,0.19201 1.56,0.576 0.40799,0.38401 0.61199,0.88801 0.612,1.512 l 0,0.252 c -10e-6,0.08 -0.04,0.12001 -0.12,0.12 l -0.912,0 c -0.08,10e-6 -0.12001,-0.04 -0.12,-0.12 l 0,-0.168 c -1e-5,-0.33599 -0.10001,-0.61199 -0.3,-0.828 -0.19201,-0.21599 -0.43201,-0.32399 -0.72,-0.324 -0.32801,10e-6 -0.596,0.10801 -0.804,0.324 -0.2,0.21601 -0.3,0.50401 -0.3,0.864 l 0,1.428 c 0,0.016 0.004,0.028 0.012,0.036 0.016,0.008 0.032,0.004 0.048,-0.012 0.288,-0.31999 0.67999,-0.47999 1.176,-0.48 0.50399,1e-5 0.92799,0.13201 1.272,0.396 0.34399,0.26401 0.58399,0.628 0.72,1.092 m -1.068,2.064 c 0.072,-0.28 0.10799,-0.568 0.108,-0.864 -1e-5,-0.352 -0.048,-0.676 -0.144,-0.972 -0.17601,-0.488 -0.50801,-0.732 -0.996,-0.732 -0.24801,0 -0.46,0.068 -0.636,0.204 -0.168,0.128 -0.292,0.316 -0.372,0.564 -0.08,0.288 -0.12,0.608 -0.12,0.96 0,0.336 0.032,0.62 0.096,0.852 0.16,0.56 0.504,0.84 1.032,0.84 0.26399,0 0.48399,-0.072 0.66,-0.216 0.17599,-0.152 0.29999,-0.364 0.372,-0.636"
             style="font-size:12px;font-style:normal;font-weight:500;font-stretch:semi-condensed;line-height:100%;fill:#ffffff;font-family:Barlow Semi Condensed;-inkscape-font-specification:'Barlow Semi Condensed, Medium Semi-Condensed'"
             id="path5331" />
          <path
             inkscape:connector-curvature="0"
             d="m 222.26106,756.42227 c 0,-0.08 0.04,-0.11999 0.12,-0.12 l 0.912,0 c 0.08,10e-6 0.12,0.04 0.12,0.12 l 0,8.16 c 0,0.08 -0.04,0.12 -0.12,0.12 l -0.912,0 c -0.08,0 -0.12,-0.04 -0.12,-0.12 l 0,-0.396 c 0,-0.016 -0.008,-0.028 -0.024,-0.036 -0.016,-0.008 -0.028,-0.004 -0.036,0.012 -0.304,0.424 -0.752,0.636 -1.344,0.636 -0.504,0 -0.908,-0.144 -1.212,-0.432 -0.304,-0.296 -0.524,-0.74 -0.66,-1.332 -0.096,-0.416 -0.144,-0.876 -0.144,-1.38 0,-0.504 0.04,-0.956 0.12,-1.356 0.232,-1.19999 0.88,-1.79999 1.944,-1.8 0.584,10e-6 1.016,0.20401 1.296,0.612 0.008,0.024 0.02,0.036 0.036,0.036 0.016,-0.008 0.024,-0.024 0.024,-0.048 l 0,-2.676 m -0.144,6.552 c 0.096,-0.32 0.144,-0.764 0.144,-1.332 0,-0.576 -0.052,-1.024 -0.156,-1.344 -0.16,-0.53599 -0.472,-0.80399 -0.936,-0.804 -0.24,10e-6 -0.444,0.072 -0.612,0.216 -0.168,0.13601 -0.292,0.32401 -0.372,0.564 -0.12,0.336 -0.18,0.792 -0.18,1.368 0,0.56 0.048,1 0.144,1.32 0.16,0.56 0.496,0.84 1.008,0.84 0.48,0 0.8,-0.276 0.96,-0.828"
             style="font-size:12px;font-style:normal;font-weight:500;font-stretch:semi-condensed;line-height:100%;fill:#ffffff;font-family:Barlow Semi Condensed;-inkscape-font-specification:'Barlow Semi Condensed, Medium Semi-Condensed'"
             id="path5333" />
          <path
             inkscape:connector-curvature="0"
             d="m 229.36787,760.29827 c 0.08,0.4 0.12,0.852 0.12,1.356 0,0.504 -0.048,0.964 -0.144,1.38 -0.136,0.592 -0.356,1.036 -0.66,1.332 -0.304,0.288 -0.708,0.432 -1.212,0.432 -0.592,0 -1.04,-0.212 -1.344,-0.636 -0.008,-0.016 -0.02,-0.02 -0.036,-0.012 -0.016,0.008 -0.024,0.02 -0.024,0.036 l 0,0.396 c 0,0.08 -0.04,0.12 -0.12,0.12 l -0.912,0 c -0.08,0 -0.12,-0.04 -0.12,-0.12 l 0,-8.16 c 0,-0.08 0.04,-0.11999 0.12,-0.12 l 0.912,0 c 0.08,10e-6 0.12,0.04 0.12,0.12 l 0,2.676 c 0,0.024 0.008,0.04 0.024,0.048 0.016,1e-5 0.028,-0.012 0.036,-0.036 0.28,-0.40799 0.712,-0.61199 1.296,-0.612 1.064,10e-6 1.712,0.60001 1.944,1.8 m -1.188,2.664 c 0.096,-0.32 0.144,-0.76 0.144,-1.32 0,-0.576 -0.06,-1.032 -0.18,-1.368 -0.08,-0.23999 -0.204,-0.42799 -0.372,-0.564 -0.168,-0.14399 -0.372,-0.21599 -0.612,-0.216 -0.464,10e-6 -0.776,0.26801 -0.936,0.804 -0.104,0.32 -0.156,0.768 -0.156,1.344 0,0.568 0.048,1.012 0.144,1.332 0.16,0.552 0.48,0.828 0.96,0.828 0.512,0 0.848,-0.28 1.008,-0.84"
             style="font-size:12px;font-style:normal;font-weight:500;font-stretch:semi-condensed;line-height:100%;fill:#ffffff;font-family:Barlow Semi Condensed;-inkscape-font-specification:'Barlow Semi Condensed, Medium Semi-Condensed'"
             id="path5335" />
          <path
             inkscape:connector-curvature="0"
             d="m 231.49525,764.70227 c -0.088,0 -0.12,-0.044 -0.096,-0.132 l 2.376,-7.212 c 0.008,-0.016 0.004,-0.028 -0.012,-0.036 -0.008,-0.016 -0.02,-0.024 -0.036,-0.024 l -2.4,0 c -0.032,10e-6 -0.048,0.016 -0.048,0.048 l 0,0.516 c 0,0.08 -0.04,0.12001 -0.12,0.12 l -0.708,0 c -0.08,10e-6 -0.12,-0.04 -0.12,-0.12 l 0,-1.44 c 0,-0.08 0.04,-0.11999 0.12,-0.12 l 4.428,0 c 0.08,10e-6 0.12,0.04 0.12,0.12 l 0,0.804 c 0,0.032 -0.008,0.08 -0.024,0.144 l -2.364,7.236 c -0.024,0.064 -0.072,0.096 -0.144,0.096 l -0.972,0"
             style="font-size:12px;font-style:normal;font-weight:500;font-stretch:semi-condensed;line-height:100%;fill:#ffffff;font-family:Barlow Semi Condensed;-inkscape-font-specification:'Barlow Semi Condensed, Medium Semi-Condensed'"
             id="path5337" />
          <path
             inkscape:connector-curvature="0"
             d="m 240.21494,762.67427 c -1e-5,0.64 -0.20801,1.156 -0.624,1.548 -0.41601,0.384 -0.96401,0.576 -1.644,0.576 -0.64,0 -1.164,-0.192 -1.572,-0.576 -0.4,-0.384 -0.6,-0.888 -0.6,-1.512 l 0,-0.252 c 0,-0.08 0.04,-0.12 0.12,-0.12 l 0.912,0 c 0.08,0 0.12,0.04 0.12,0.12 l 0,0.168 c 0,0.336 0.096,0.612 0.288,0.828 0.2,0.216 0.444,0.324 0.732,0.324 0.32799,0 0.59199,-0.108 0.792,-0.324 0.20799,-0.216 0.31199,-0.504 0.312,-0.864 l 0,-1.428 c -1e-5,-0.016 -0.008,-0.028 -0.024,-0.036 -0.008,-0.008 -0.02,-0.004 -0.036,0.012 -0.28801,0.32 -0.68001,0.48 -1.176,0.48 -0.504,0 -0.928,-0.132 -1.272,-0.396 -0.344,-0.264 -0.584,-0.628 -0.72,-1.092 -0.136,-0.34399 -0.204,-0.75199 -0.204,-1.224 0,-0.39999 0.048,-0.75599 0.144,-1.068 0.112,-0.51999 0.356,-0.91999 0.732,-1.2 0.376,-0.28799 0.848,-0.43199 1.416,-0.432 0.56799,10e-6 1.03999,0.14401 1.416,0.432 0.37599,0.28001 0.62799,0.68801 0.756,1.224 0.08,0.28801 0.11999,0.62401 0.12,1.008 l 0.012,3.804 m -1.284,-2.808 c 0.08,-0.28799 0.11999,-0.60799 0.12,-0.96 -1e-5,-0.33599 -0.032,-0.61999 -0.096,-0.852 -0.16001,-0.55999 -0.50401,-0.83999 -1.032,-0.84 -0.264,10e-6 -0.484,0.076 -0.66,0.228 -0.176,0.14401 -0.3,0.35201 -0.372,0.624 -0.072,0.27201 -0.108,0.56001 -0.108,0.864 0,0.34401 0.048,0.66801 0.144,0.972 0.176,0.488 0.508,0.732 0.996,0.732 0.24799,0 0.45599,-0.064 0.624,-0.192 0.17599,-0.136 0.30399,-0.32799 0.384,-0.576"
             style="font-size:12px;font-style:normal;font-weight:500;font-stretch:semi-condensed;line-height:100%;fill:#ffffff;font-family:Barlow Semi Condensed;-inkscape-font-specification:'Barlow Semi Condensed, Medium Semi-Condensed'"
             id="path5339" />
          <path
             inkscape:connector-curvature="0"
             d="m 243.78794,764.82227 c -0.728,0 -1.308,-0.216 -1.74,-0.648 -0.432,-0.432 -0.648,-1.012 -0.648,-1.74 l 0,-3.864 c 0,-0.71999 0.216,-1.29599 0.648,-1.728 0.432,-0.43199 1.012,-0.64799 1.74,-0.648 0.72799,1e-5 1.31199,0.21601 1.752,0.648 0.43999,0.43201 0.65999,1.00801 0.66,1.728 l 0,3.864 c -1e-5,0.728 -0.22001,1.308 -0.66,1.74 -0.43201,0.432 -1.01601,0.648 -1.752,0.648 m 0,-0.996 c 0.38399,0 0.68799,-0.12 0.912,-0.36 0.23199,-0.248 0.34799,-0.572 0.348,-0.972 l 0,-3.972 c -1e-5,-0.39999 -0.11601,-0.71999 -0.348,-0.96 -0.22401,-0.24799 -0.52801,-0.37199 -0.912,-0.372 -0.37601,10e-6 -0.676,0.12401 -0.9,0.372 -0.224,0.24001 -0.336,0.56001 -0.336,0.96 l 0,3.972 c 0,0.4 0.112,0.724 0.336,0.972 0.224,0.24 0.52399,0.36 0.9,0.36"
             style="font-size:12px;font-style:normal;font-weight:500;font-stretch:semi-condensed;line-height:100%;fill:#ffffff;font-family:Barlow Semi Condensed;-inkscape-font-specification:'Barlow Semi Condensed, Medium Semi-Condensed'"
             id="path5341" />
        </g>
      </g>
      <g
         id="g3150"
         transform="translate(-135.20896,248.78223)">
        <path
           inkscape:connector-curvature="0"
           style="fill:#616161;fill-opacity:1;fill-rule:evenodd;stroke:none"
           d="m 1173.0579,473.03985 65,0 0,65.00004 -65,0 z"
           id="rect3081" />
        <g
           style="font-size:40px;font-style:italic;font-variant:normal;font-weight:normal;font-stretch:normal;text-align:start;line-height:100%;letter-spacing:0px;word-spacing:0px;writing-mode:lr-tb;text-anchor:start;fill:#ffffff;fill-opacity:1;stroke:none;font-family:Fanwood Text;-inkscape-font-specification:Fanwood Text Italic"
           id="text3179"
           transform="translate(1098.0579,-396.66242)">
          <path
             inkscape:connector-curvature="0"
             d="m 86.936,919.54221 c -7e-6,0.08 -0.04001,0.12 -0.12,0.12 l -0.84,0 c -0.04001,0 -0.06001,0.016 -0.06,0.048 l -0.24,1.656 c -6e-6,0.032 0.01199,0.048 0.036,0.048 l 0.684,0 c 0.07999,0 0.119993,0.04 0.12,0.12 l 0,0.756 c -7e-6,0.08 -0.04001,0.12 -0.12,0.12 l -0.84,0 c -0.04001,0 -0.06001,0.016 -0.06,0.048 l -0.288,1.896 c -0.008,0.072 -0.04801,0.108 -0.12,0.108 l -0.912,-0.012 c -0.032,0 -0.06,-0.012 -0.084,-0.036 -0.024,-0.024 -0.032,-0.056 -0.024,-0.096 l 0.276,-1.86 c -4e-6,-0.032 -0.012,-0.048 -0.036,-0.048 l -1.572,0 c -0.04,0 -0.06,0.016 -0.06,0.048 l -0.288,1.896 c -0.008,0.072 -0.048,0.108 -0.12,0.108 l -0.912,-0.012 c -0.032,0 -0.06,-0.012 -0.084,-0.036 -0.024,-0.024 -0.032,-0.056 -0.024,-0.096 l 0.276,-1.86 c -2e-6,-0.032 -0.012,-0.048 -0.036,-0.048 l -0.708,0 c -0.08,0 -0.120001,-0.04 -0.12,-0.12 l 0.012,-0.756 c -10e-7,-0.08 0.04,-0.12 0.12,-0.12 l 0.84,0 c 0.04,0 0.06,-0.016 0.06,-0.048 l 0.24,-1.656 c -2e-6,-0.032 -0.012,-0.048 -0.036,-0.048 l -0.696,0 c -0.08,0 -0.120001,-0.04 -0.12,-0.12 l 0.012,-0.768 c -10e-7,-0.08 0.04,-0.11999 0.12,-0.12 l 0.84,0 c 0.04,10e-6 0.06,-0.016 0.06,-0.048 l 0.288,-1.896 c 0.008,-0.072 0.048,-0.10799 0.12,-0.108 l 0.912,0.012 c 0.032,1e-5 0.06,0.012 0.084,0.036 0.024,0.024 0.032,0.056 0.024,0.096 l -0.276,1.86 c -3e-6,0.032 0.012,0.048 0.036,0.048 l 1.572,0 c 0.04,10e-6 0.06,-0.016 0.06,-0.048 l 0.288,-1.896 c 0.008,-0.072 0.048,-0.10799 0.12,-0.108 l 0.924,0.012 c 0.03199,1e-5 0.05999,0.012 0.084,0.036 0.02399,0.024 0.03199,0.056 0.024,0.096 l -0.276,1.86 c -6e-6,0.032 0.01199,0.048 0.036,0.048 l 0.684,0 c 0.07999,10e-6 0.119993,0.04 0.12,0.12 l 0,0.768 m -2.484,1.872 c 0.04,0 0.06,-0.016 0.06,-0.048 l 0.24,-1.656 c -5e-6,-0.032 -0.01201,-0.048 -0.036,-0.048 l -1.56,0 c -0.04,0 -0.06,0.016 -0.06,0.048 l -0.252,1.656 c -3e-6,0.032 0.012,0.048 0.036,0.048 l 1.572,0"
             style="font-size:12px;font-style:normal;font-weight:500;font-stretch:semi-condensed;line-height:100%;fill:#ffffff;font-family:Barlow Semi Condensed;-inkscape-font-specification:'Barlow Semi Condensed, Medium Semi-Condensed'"
             id="path5314" />
          <path
             inkscape:connector-curvature="0"
             d="m 92.621188,920.87421 c 0.135994,0.344 0.203994,0.752 0.203999,1.224 -5e-6,0.4 -0.04801,0.756 -0.144,1.068 -0.112004,0.52 -0.356004,0.924 -0.732,1.212 -0.376003,0.28 -0.848003,0.42 -1.416,0.42 -0.568002,0 -1.040001,-0.14 -1.416,-0.42 -0.376001,-0.288 -0.628,-0.7 -0.756,-1.236 -0.08,-0.288 -0.12,-0.624 -0.12,-1.008 l -0.012,-3.804 c 0,-0.63999 0.208,-1.15199 0.624001,-1.536 0.415998,-0.39199 0.963997,-0.58799 1.643999,-0.588 0.639997,10e-6 1.159996,0.19201 1.56,0.576 0.407996,0.38401 0.611995,0.88801 0.612,1.512 l 0,0.252 c -5e-6,0.08 -0.04,0.12001 -0.119999,0.12 l -0.912001,0 c -0.08,10e-6 -0.120003,-0.04 -0.119999,-0.12 l 0,-0.168 c -4e-6,-0.33599 -0.100004,-0.61199 -0.300001,-0.828 -0.192003,-0.21599 -0.432003,-0.32399 -0.72,-0.324 -0.328002,10e-6 -0.596002,0.10801 -0.804,0.324 -0.200001,0.21601 -0.300001,0.50401 -0.3,0.864 l 0,1.428 c -10e-7,0.016 0.004,0.028 0.012,0.036 0.016,0.008 0.032,0.004 0.048,-0.012 0.287998,-0.32 0.679998,-0.48 1.176,-0.48 0.503997,0 0.927997,0.132 1.272001,0.396 0.343995,0.264 0.583995,0.628 0.72,1.092 m -1.068,2.064 c 0.072,-0.28 0.107995,-0.568 0.107999,-0.864 -4e-6,-0.352 -0.048,-0.676 -0.143999,-0.972 -0.176004,-0.488 -0.508004,-0.732 -0.996001,-0.732 -0.248002,0 -0.460002,0.068 -0.636,0.204 -0.168002,0.128 -0.292001,0.316 -0.372,0.564 -0.08,0.288 -0.120001,0.608 -0.12,0.96 -10e-7,0.336 0.032,0.62 0.096,0.852 0.159998,0.56 0.503998,0.84 1.032,0.84 0.263997,0 0.483997,-0.072 0.66,-0.216 0.175997,-0.152 0.299997,-0.364 0.372001,-0.636"
             style="font-size:12px;font-style:normal;font-weight:500;font-stretch:semi-condensed;line-height:100%;fill:#ffffff;font-family:Barlow Semi Condensed;-inkscape-font-specification:'Barlow Semi Condensed, Medium Semi-Condensed'"
             id="path5316" />
          <path
             inkscape:connector-curvature="0"
             d="m 94.686125,916.33821 c 0.048,-0.024 0.1,-0.036 0.156,-0.036 l 0.948,0 c 0.08,1e-5 0.119997,0.04 0.12,0.12 l 0,8.16 c -3e-6,0.08 -0.04,0.12 -0.12,0.12 l -0.912,0 c -0.08,0 -0.120002,-0.04 -0.12,-0.12 l 0,-7.104 c -2e-6,-0.016 -0.008,-0.028 -0.024,-0.036 -0.008,-0.008 -0.02,-0.008 -0.036,0 l -1.104,0.384 -0.048,0.012 c -0.056,10e-6 -0.084,-0.036 -0.084,-0.108 l 0,-0.66 c 0,-0.072 0.028,-0.11999 0.084,-0.144 l 1.14,-0.588"
             style="font-size:12px;font-style:normal;font-weight:500;font-stretch:semi-condensed;line-height:100%;fill:#ffffff;font-family:Barlow Semi Condensed;-inkscape-font-specification:'Barlow Semi Condensed, Medium Semi-Condensed'"
             id="path5318" />
          <path
             inkscape:connector-curvature="0"
             d="m 101.6915,920.87421 c 0.13599,0.344 0.20399,0.752 0.204,1.224 -1e-5,0.4 -0.048,0.756 -0.144,1.068 -0.112,0.52 -0.356,0.924 -0.732,1.212 -0.376,0.28 -0.848,0.42 -1.416,0.42 -0.568002,0 -1.040002,-0.14 -1.416,-0.42 -0.376001,-0.288 -0.628001,-0.7 -0.756,-1.236 -0.08,-0.288 -0.120001,-0.624 -0.12,-1.008 l -0.012,-3.804 c -10e-7,-0.63999 0.207999,-1.15199 0.624,-1.536 0.415998,-0.39199 0.963998,-0.58799 1.644,-0.588 0.64,10e-6 1.16,0.19201 1.56,0.576 0.408,0.38401 0.61199,0.88801 0.612,1.512 l 0,0.252 c -1e-5,0.08 -0.04,0.12001 -0.12,0.12 l -0.912,0 c -0.08,10e-6 -0.12,-0.04 -0.12,-0.12 l 0,-0.168 c 0,-0.33599 -0.1,-0.61199 -0.3,-0.828 -0.192,-0.21599 -0.432003,-0.32399 -0.72,-0.324 -0.328003,10e-6 -0.596002,0.10801 -0.804,0.324 -0.200002,0.21601 -0.300002,0.50401 -0.3,0.864 l 0,1.428 c -2e-6,0.016 0.004,0.028 0.012,0.036 0.016,0.008 0.032,0.004 0.048,-0.012 0.287998,-0.32 0.679997,-0.48 1.176,-0.48 0.504,0 0.928,0.132 1.272,0.396 0.344,0.264 0.584,0.628 0.72,1.092 m -1.068,2.064 c 0.072,-0.28 0.108,-0.568 0.108,-0.864 0,-0.352 -0.048,-0.676 -0.144,-0.972 -0.176,-0.488 -0.508,-0.732 -0.996,-0.732 -0.248003,0 -0.460002,0.068 -0.636,0.204 -0.168002,0.128 -0.292002,0.316 -0.372,0.564 -0.08,0.288 -0.120002,0.608 -0.12,0.96 -2e-6,0.336 0.032,0.62 0.096,0.852 0.159998,0.56 0.503998,0.84 1.032,0.84 0.263997,0 0.484,-0.072 0.66,-0.216 0.176,-0.152 0.3,-0.364 0.372,-0.636"
             style="font-size:12px;font-style:normal;font-weight:500;font-stretch:semi-condensed;line-height:100%;fill:#ffffff;font-family:Barlow Semi Condensed;-inkscape-font-specification:'Barlow Semi Condensed, Medium Semi-Condensed'"
             id="path5320" />
          <path
             inkscape:connector-curvature="0"
             d="m 103.75644,916.33821 c 0.048,-0.024 0.1,-0.036 0.156,-0.036 l 0.948,0 c 0.08,1e-5 0.11999,0.04 0.12,0.12 l 0,8.16 c -1e-5,0.08 -0.04,0.12 -0.12,0.12 l -0.912,0 c -0.08,0 -0.12,-0.04 -0.12,-0.12 l 0,-7.104 c 0,-0.016 -0.008,-0.028 -0.024,-0.036 -0.008,-0.008 -0.02,-0.008 -0.036,0 l -1.104,0.384 -0.048,0.012 c -0.056,10e-6 -0.084,-0.036 -0.084,-0.108 l 0,-0.66 c 0,-0.072 0.028,-0.11999 0.084,-0.144 l 1.14,-0.588"
             style="font-size:12px;font-style:normal;font-weight:500;font-stretch:semi-condensed;line-height:100%;fill:#ffffff;font-family:Barlow Semi Condensed;-inkscape-font-specification:'Barlow Semi Condensed, Medium Semi-Condensed'"
             id="path5322" />
          <path
             inkscape:connector-curvature="0"
             d="m 110.76181,920.87421 c 0.136,0.344 0.204,0.752 0.204,1.224 0,0.4 -0.048,0.756 -0.144,1.068 -0.112,0.52 -0.356,0.924 -0.732,1.212 -0.376,0.28 -0.848,0.42 -1.416,0.42 -0.568,0 -1.04,-0.14 -1.416,-0.42 -0.376,-0.288 -0.628,-0.7 -0.756,-1.236 -0.08,-0.288 -0.12,-0.624 -0.12,-1.008 l -0.012,-3.804 c 0,-0.63999 0.208,-1.15199 0.624,-1.536 0.416,-0.39199 0.964,-0.58799 1.644,-0.588 0.64,10e-6 1.16,0.19201 1.56,0.576 0.408,0.38401 0.612,0.88801 0.612,1.512 l 0,0.252 c 0,0.08 -0.04,0.12001 -0.12,0.12 l -0.912,0 c -0.08,10e-6 -0.12,-0.04 -0.12,-0.12 l 0,-0.168 c 0,-0.33599 -0.1,-0.61199 -0.3,-0.828 -0.192,-0.21599 -0.432,-0.32399 -0.72,-0.324 -0.328,10e-6 -0.596,0.10801 -0.804,0.324 -0.2,0.21601 -0.3,0.50401 -0.3,0.864 l 0,1.428 c 0,0.016 0.004,0.028 0.012,0.036 0.016,0.008 0.032,0.004 0.048,-0.012 0.288,-0.32 0.68,-0.48 1.176,-0.48 0.504,0 0.928,0.132 1.272,0.396 0.344,0.264 0.584,0.628 0.72,1.092 m -1.068,2.064 c 0.072,-0.28 0.108,-0.568 0.108,-0.864 0,-0.352 -0.048,-0.676 -0.144,-0.972 -0.176,-0.488 -0.508,-0.732 -0.996,-0.732 -0.248,0 -0.46,0.068 -0.636,0.204 -0.168,0.128 -0.292,0.316 -0.372,0.564 -0.08,0.288 -0.12,0.608 -0.12,0.96 0,0.336 0.032,0.62 0.096,0.852 0.16,0.56 0.504,0.84 1.032,0.84 0.264,0 0.484,-0.072 0.66,-0.216 0.176,-0.152 0.3,-0.364 0.372,-0.636"
             style="font-size:12px;font-style:normal;font-weight:500;font-stretch:semi-condensed;line-height:100%;fill:#ffffff;font-family:Barlow Semi Condensed;-inkscape-font-specification:'Barlow Semi Condensed, Medium Semi-Condensed'"
             id="path5324" />
          <path
             inkscape:connector-curvature="0"
             d="m 112.82675,916.33821 c 0.048,-0.024 0.1,-0.036 0.156,-0.036 l 0.948,0 c 0.08,1e-5 0.12,0.04 0.12,0.12 l 0,8.16 c 0,0.08 -0.04,0.12 -0.12,0.12 l -0.912,0 c -0.08,0 -0.12,-0.04 -0.12,-0.12 l 0,-7.104 c 0,-0.016 -0.008,-0.028 -0.024,-0.036 -0.008,-0.008 -0.02,-0.008 -0.036,0 l -1.104,0.384 -0.048,0.012 c -0.056,10e-6 -0.084,-0.036 -0.084,-0.108 l 0,-0.66 c 0,-0.072 0.028,-0.11999 0.084,-0.144 l 1.14,-0.588"
             style="font-size:12px;font-style:normal;font-weight:500;font-stretch:semi-condensed;line-height:100%;fill:#ffffff;font-family:Barlow Semi Condensed;-inkscape-font-specification:'Barlow Semi Condensed, Medium Semi-Condensed'"
             id="path5326" />
        </g>
      </g>
      <g
         id="g3134"
         transform="translate(-75.082514,248.78223)">
        <path
           inkscape:connector-curvature="0"
           style="fill:#1a1a1a;fill-opacity:1;fill-rule:evenodd;stroke:none"
           d="m 1056.6957,473.03985 56.6812,0 0,65.00004 -56.6812,0 z"
           id="rect3083" />
        <g
           transform="matrix(0,-1,1,0,1016.6957,-396.66242)"
           style="font-size:40px;font-style:italic;font-variant:normal;font-weight:normal;font-stretch:normal;text-align:start;line-height:100%;letter-spacing:0px;word-spacing:0px;writing-mode:lr-tb;text-anchor:start;fill:#ffffff;fill-opacity:1;stroke:none;font-family:Fanwood Text;-inkscape-font-specification:Fanwood Text Italic"
           id="text3183">
          <path
             inkscape:connector-curvature="0"
             d="m -922.76621,49.84 c -10e-6,0.08 -0.04,0.120005 -0.12,0.12 l -0.84,0 c -0.04,5e-6 -0.06,0.016 -0.06,0.048 l -0.24,1.656 c -10e-6,0.032 0.012,0.048 0.036,0.048 l 0.684,0 c 0.08,3e-6 0.11999,0.04 0.12,0.12 l 0,0.756 c -1e-5,0.08 -0.04,0.120002 -0.12,0.12 l -0.84,0 c -0.04,2e-6 -0.06,0.016 -0.06,0.048 l -0.288,1.896 c -0.008,0.072 -0.048,0.108 -0.12,0.108 l -0.912,-0.012 c -0.032,0 -0.06,-0.012 -0.084,-0.036 -0.024,-0.024 -0.032,-0.056 -0.024,-0.096 l 0.276,-1.86 c 0,-0.032 -0.012,-0.048 -0.036,-0.048 l -1.572,0 c -0.04,2e-6 -0.06,0.016 -0.06,0.048 l -0.288,1.896 c -0.008,0.072 -0.048,0.108 -0.12,0.108 l -0.912,-0.012 c -0.032,0 -0.06,-0.012 -0.084,-0.036 -0.024,-0.024 -0.032,-0.056 -0.024,-0.096 l 0.276,-1.86 c 0,-0.032 -0.012,-0.048 -0.036,-0.048 l -0.708,0 c -0.08,2e-6 -0.12,-0.04 -0.12,-0.12 l 0.012,-0.756 c 0,-0.08 0.04,-0.119997 0.12,-0.12 l 0.84,0 c 0.04,3e-6 0.06,-0.016 0.06,-0.048 l 0.24,-1.656 c 0,-0.032 -0.012,-0.048 -0.036,-0.048 l -0.696,0 c -0.08,5e-6 -0.12,-0.03999 -0.12,-0.12 l 0.012,-0.768 c 0,-0.07999 0.04,-0.119994 0.12,-0.12 l 0.84,0 c 0.04,6e-6 0.06,-0.01599 0.06,-0.048 l 0.288,-1.896 c 0.008,-0.07199 0.048,-0.107992 0.12,-0.108 l 0.912,0.012 c 0.032,8e-6 0.06,0.01201 0.084,0.036 0.024,0.02401 0.032,0.05601 0.024,0.096 l -0.276,1.86 c 0,0.03201 0.012,0.04801 0.036,0.048 l 1.572,0 c 0.04,6e-6 0.06,-0.01599 0.06,-0.048 l 0.288,-1.896 c 0.008,-0.07199 0.048,-0.107992 0.12,-0.108 l 0.924,0.012 c 0.032,8e-6 0.06,0.01201 0.084,0.036 0.024,0.02401 0.032,0.05601 0.024,0.096 l -0.276,1.86 c -10e-6,0.03201 0.012,0.04801 0.036,0.048 l 0.684,0 c 0.08,6e-6 0.11999,0.04001 0.12,0.12 l 0,0.768 m -2.484,1.872 c 0.04,3e-6 0.06,-0.016 0.06,-0.048 l 0.24,-1.656 c 0,-0.032 -0.012,-0.048 -0.036,-0.048 l -1.56,0 c -0.04,5e-6 -0.06,0.016 -0.06,0.048 l -0.252,1.656 c 0,0.032 0.012,0.048 0.036,0.048 l 1.572,0"
             style="font-size:12px;font-style:normal;font-weight:500;font-stretch:semi-condensed;line-height:100%;fill:#ffffff;font-family:Barlow Semi Condensed;-inkscape-font-specification:'Barlow Semi Condensed, Medium Semi-Condensed'"
             id="path5299" />
          <path
             inkscape:connector-curvature="0"
             d="m -920.47702,46.636 c 0.048,-0.02399 0.1,-0.03599 0.156,-0.036 l 0.948,0 c 0.08,8e-6 0.12,0.04001 0.12,0.12 l 0,8.16 c 0,0.08 -0.04,0.12 -0.12,0.12 l -0.912,0 c -0.08,0 -0.12,-0.04 -0.12,-0.12 l 0,-7.104 c 0,-0.01599 -0.008,-0.02799 -0.024,-0.036 -0.008,-0.008 -0.02,-0.008 -0.036,0 l -1.104,0.384 -0.048,0.012 c -0.056,7e-6 -0.084,-0.03599 -0.084,-0.108 l 0,-0.66 c 0,-0.07199 0.028,-0.119992 0.084,-0.144 l 1.14,-0.588"
             style="font-size:12px;font-style:normal;font-weight:500;font-stretch:semi-condensed;line-height:100%;fill:#ffffff;font-family:Barlow Semi Condensed;-inkscape-font-specification:'Barlow Semi Condensed, Medium Semi-Condensed'"
             id="path5301" />
          <path
             inkscape:connector-curvature="0"
             d="m -915.65565,48.796 c 0.664,6e-6 1.196,0.188006 1.596,0.564 0.408,0.368005 0.612,0.852005 0.612,1.452 l 0,4.068 c 0,0.08 -0.04,0.12 -0.12,0.12 l -0.912,0 c -0.08,0 -0.12,-0.04 -0.12,-0.12 l 0,-0.348 c 0,-0.04 -0.02,-0.048 -0.06,-0.024 -0.368,0.392 -0.876,0.588 -1.524,0.588 -0.512,0 -0.952,-0.14 -1.32,-0.42 -0.36,-0.279999 -0.54,-0.739999 -0.54,-1.38 0,-0.655998 0.212,-1.151997 0.636,-1.488 0.424,-0.343996 1.004,-0.515996 1.74,-0.516 l 1.02,0 c 0.032,4e-6 0.048,-0.016 0.048,-0.048 l 0,-0.336 c 0,-0.343996 -0.092,-0.615995 -0.276,-0.816 -0.176,-0.199995 -0.432,-0.299995 -0.768,-0.3 -0.272,5e-6 -0.496,0.068 -0.672,0.204 -0.168,0.128005 -0.272,0.304005 -0.312,0.528 -0.008,0.072 -0.052,0.108004 -0.132,0.108 l -0.972,-0.06 c -0.032,4e-6 -0.06,-0.008 -0.084,-0.024 -0.024,-0.024 -0.032,-0.052 -0.024,-0.084 0.048,-0.495995 0.272,-0.895995 0.672,-1.2 0.408,-0.311994 0.912,-0.467994 1.512,-0.468 m -0.252,5.316 c 0.352,10e-7 0.656,-0.1 0.912,-0.3 0.264,-0.199999 0.396,-0.467998 0.396,-0.804 l 0,-0.768 c 0,-0.032 -0.016,-0.048 -0.048,-0.048 l -0.924,0 c -0.4,3e-6 -0.72,0.088 -0.96,0.264 -0.232,0.176002 -0.348,0.432002 -0.348,0.768 0,0.296001 0.088,0.520001 0.264,0.672 0.184,0.144001 0.42,0.216001 0.708,0.216"
             style="font-size:12px;font-style:normal;font-weight:500;font-stretch:semi-condensed;line-height:100%;fill:#ffffff;font-family:Barlow Semi Condensed;-inkscape-font-specification:'Barlow Semi Condensed, Medium Semi-Condensed'"
             id="path5303" />
          <path
             inkscape:connector-curvature="0"
             d="m -911.21921,46.636 c 0.048,-0.02399 0.1,-0.03599 0.156,-0.036 l 0.948,0 c 0.08,8e-6 0.12,0.04001 0.12,0.12 l 0,8.16 c 0,0.08 -0.04,0.12 -0.12,0.12 l -0.912,0 c -0.08,0 -0.12,-0.04 -0.12,-0.12 l 0,-7.104 c 0,-0.01599 -0.008,-0.02799 -0.024,-0.036 -0.008,-0.008 -0.02,-0.008 -0.036,0 l -1.104,0.384 -0.048,0.012 c -0.056,7e-6 -0.084,-0.03599 -0.084,-0.108 l 0,-0.66 c 0,-0.07199 0.028,-0.119992 0.084,-0.144 l 1.14,-0.588"
             style="font-size:12px;font-style:normal;font-weight:500;font-stretch:semi-condensed;line-height:100%;fill:#ffffff;font-family:Barlow Semi Condensed;-inkscape-font-specification:'Barlow Semi Condensed, Medium Semi-Condensed'"
             id="path5305" />
          <path
             inkscape:connector-curvature="0"
             d="m -906.39783,48.796 c 0.66399,6e-6 1.19599,0.188006 1.596,0.564 0.40799,0.368005 0.61199,0.852005 0.612,1.452 l 0,4.068 c -10e-6,0.08 -0.04,0.12 -0.12,0.12 l -0.912,0 c -0.08,0 -0.12001,-0.04 -0.12,-0.12 l 0,-0.348 c -1e-5,-0.04 -0.02,-0.048 -0.06,-0.024 -0.36801,0.392 -0.87601,0.588 -1.524,0.588 -0.51201,0 -0.95201,-0.14 -1.32,-0.42 -0.36001,-0.279999 -0.54,-0.739999 -0.54,-1.38 0,-0.655998 0.21199,-1.151997 0.636,-1.488 0.42399,-0.343996 1.00399,-0.515996 1.74,-0.516 l 1.02,0 c 0.032,4e-6 0.048,-0.016 0.048,-0.048 l 0,-0.336 c -1e-5,-0.343996 -0.092,-0.615995 -0.276,-0.816 -0.17601,-0.199995 -0.43201,-0.299995 -0.768,-0.3 -0.27201,5e-6 -0.49601,0.068 -0.672,0.204 -0.16801,0.128005 -0.27201,0.304005 -0.312,0.528 -0.008,0.072 -0.052,0.108004 -0.132,0.108 l -0.972,-0.06 c -0.032,4e-6 -0.06,-0.008 -0.084,-0.024 -0.024,-0.024 -0.032,-0.052 -0.024,-0.084 0.048,-0.495995 0.27199,-0.895995 0.672,-1.2 0.40799,-0.311994 0.91199,-0.467994 1.512,-0.468 m -0.252,5.316 c 0.35199,10e-7 0.65599,-0.1 0.912,-0.3 0.26399,-0.199999 0.39599,-0.467998 0.396,-0.804 l 0,-0.768 c -1e-5,-0.032 -0.016,-0.048 -0.048,-0.048 l -0.924,0 c -0.40001,3e-6 -0.72001,0.088 -0.96,0.264 -0.23201,0.176002 -0.34801,0.432002 -0.348,0.768 -10e-6,0.296001 0.088,0.520001 0.264,0.672 0.18399,0.144001 0.41999,0.216001 0.708,0.216"
             style="font-size:12px;font-style:normal;font-weight:500;font-stretch:semi-condensed;line-height:100%;fill:#ffffff;font-family:Barlow Semi Condensed;-inkscape-font-specification:'Barlow Semi Condensed, Medium Semi-Condensed'"
             id="path5307" />
          <path
             inkscape:connector-curvature="0"
             d="m -901.9614,46.636 c 0.048,-0.02399 0.1,-0.03599 0.156,-0.036 l 0.948,0 c 0.08,8e-6 0.12,0.04001 0.12,0.12 l 0,8.16 c 0,0.08 -0.04,0.12 -0.12,0.12 l -0.912,0 c -0.08,0 -0.12,-0.04 -0.12,-0.12 l 0,-7.104 c 0,-0.01599 -0.008,-0.02799 -0.024,-0.036 -0.008,-0.008 -0.02,-0.008 -0.036,0 l -1.104,0.384 -0.048,0.012 c -0.056,7e-6 -0.084,-0.03599 -0.084,-0.108 l 0,-0.66 c 0,-0.07199 0.028,-0.119992 0.084,-0.144 l 1.14,-0.588"
             style="font-size:12px;font-style:normal;font-weight:500;font-stretch:semi-condensed;line-height:100%;fill:#ffffff;font-family:Barlow Semi Condensed;-inkscape-font-specification:'Barlow Semi Condensed, Medium Semi-Condensed'"
             id="path5309" />
          <path
             inkscape:connector-curvature="0"
             d="m -897.14002,48.796 c 0.66399,6e-6 1.19599,0.188006 1.596,0.564 0.40799,0.368005 0.61199,0.852005 0.612,1.452 l 0,4.068 c -1e-5,0.08 -0.04,0.12 -0.12,0.12 l -0.912,0 c -0.08,0 -0.12001,-0.04 -0.12,-0.12 l 0,-0.348 c -10e-6,-0.04 -0.02,-0.048 -0.06,-0.024 -0.36801,0.392 -0.876,0.588 -1.524,0.588 -0.512,0 -0.952,-0.14 -1.32,-0.42 -0.36,-0.279999 -0.54,-0.739999 -0.54,-1.38 0,-0.655998 0.212,-1.151997 0.636,-1.488 0.424,-0.343996 1.004,-0.515996 1.74,-0.516 l 1.02,0 c 0.032,4e-6 0.048,-0.016 0.048,-0.048 l 0,-0.336 c -10e-6,-0.343996 -0.092,-0.615995 -0.276,-0.816 -0.17601,-0.199995 -0.43201,-0.299995 -0.768,-0.3 -0.272,5e-6 -0.496,0.068 -0.672,0.204 -0.168,0.128005 -0.272,0.304005 -0.312,0.528 -0.008,0.072 -0.052,0.108004 -0.132,0.108 l -0.972,-0.06 c -0.032,4e-6 -0.06,-0.008 -0.084,-0.024 -0.024,-0.024 -0.032,-0.052 -0.024,-0.084 0.048,-0.495995 0.272,-0.895995 0.672,-1.2 0.408,-0.311994 0.912,-0.467994 1.512,-0.468 m -0.252,5.316 c 0.352,10e-7 0.65599,-0.1 0.912,-0.3 0.26399,-0.199999 0.39599,-0.467998 0.396,-0.804 l 0,-0.768 c -10e-6,-0.032 -0.016,-0.048 -0.048,-0.048 l -0.924,0 c -0.4,3e-6 -0.72,0.088 -0.96,0.264 -0.232,0.176002 -0.348,0.432002 -0.348,0.768 0,0.296001 0.088,0.520001 0.264,0.672 0.184,0.144001 0.42,0.216001 0.708,0.216"
             style="font-size:12px;font-style:normal;font-weight:500;font-stretch:semi-condensed;line-height:100%;fill:#ffffff;font-family:Barlow Semi Condensed;-inkscape-font-specification:'Barlow Semi Condensed, Medium Semi-Condensed'"
             id="path5311" />
        </g>
      </g>
      <g
         transform="translate(-7.2421875e-6,0)"
         id="g3379">
        <path
           id="path7444"
           d="m 786.84411,721.90151 65,0 0,65 -65,0 z"
           style="fill:#126238;fill-opacity:1;fill-rule:evenodd;stroke:none"
           inkscape:connector-curvature="0" />
        <text
           sodipodi:linespacing="89.999998%"
           id="text7472"
           y="779.56146"
           x="791.84406"
           style="font-size:12px;font-style:normal;font-variant:normal;font-weight:500;font-stretch:semi-condensed;text-align:start;line-height:89.99999762%;letter-spacing:0px;word-spacing:0px;writing-mode:lr-tb;text-anchor:start;fill:#ffffff;fill-opacity:1;stroke:none;font-family:Barlow Semi Condensed;-inkscape-font-specification:'Barlow Semi Condensed, Medium Semi-Condensed'"
           xml:space="preserve"><tspan
             id="tspan7474"
             y="779.56146"
             x="791.84406"
             sodipodi:role="line">#126238</tspan></text>
      </g>
      <g
         id="g3145"
         transform="translate(-109.9419,313.53384)">
        <path
           id="path7454"
           d="m 1091.6957,473.03985 65,0 0,65.00004 -65,0 z"
           style="fill:#313131;fill-opacity:1;fill-rule:evenodd;stroke:none"
           inkscape:connector-curvature="0" />
        <text
           xml:space="preserve"
           style="font-size:12px;font-style:normal;font-variant:normal;font-weight:500;font-stretch:semi-condensed;text-align:start;line-height:89.99999762%;letter-spacing:0px;word-spacing:0px;writing-mode:lr-tb;text-anchor:start;fill:#ffffff;fill-opacity:1;stroke:none;font-family:Barlow Semi Condensed;-inkscape-font-specification:'Barlow Semi Condensed, Medium Semi-Condensed'"
           x="1096.6957"
           y="525.69983"
           id="text3924"
           sodipodi:linespacing="89.999998%"><tspan
             sodipodi:role="line"
             x="1096.6957"
             y="525.69983"
             id="tspan3928">#313131</tspan></text>
      </g>
    </g>
  </g>
</svg>
