<?xml version="1.0" encoding="UTF-8" standalone="no"?>
<!-- Created with Inkscape (http://www.inkscape.org/) -->

<svg
   xmlns:dc="http://purl.org/dc/elements/1.1/"
   xmlns:cc="http://creativecommons.org/ns#"
   xmlns:rdf="http://www.w3.org/1999/02/22-rdf-syntax-ns#"
   xmlns:svg="http://www.w3.org/2000/svg"
   xmlns="http://www.w3.org/2000/svg"
   xmlns:sodipodi="http://sodipodi.sourceforge.net/DTD/sodipodi-0.dtd"
   xmlns:inkscape="http://www.inkscape.org/namespaces/inkscape"
   width="677.98383"
   height="139.98039"
   id="svg3176"
   version="1.1"
   inkscape:version="0.92.2 5c3e80d, 2017-08-06"
   sodipodi:docname="lakeside-insignia.svg">
  <defs
     id="defs3178" />
  <sodipodi:namedview
     id="base"
     pagecolor="#ffffff"
     bordercolor="#666666"
     borderopacity="1.0"
     inkscape:pageopacity="0.0"
     inkscape:pageshadow="2"
     inkscape:zoom="1.0839695"
     inkscape:cx="470.37707"
     inkscape:cy="-68.683361"
     inkscape:document-units="px"
     inkscape:current-layer="layer1"
     showgrid="false"
     fit-margin-top="20"
     fit-margin-left="20"
     fit-margin-right="20"
     fit-margin-bottom="20"
     inkscape:window-width="1366"
     inkscape:window-height="768"
     inkscape:window-x="0"
     inkscape:window-y="-24"
     inkscape:window-maximized="1"
     showborder="true"
     borderlayer="true"
     inkscape:pagecheckerboard="true" />
  <metadata
     id="metadata3181">
    <rdf:RDF>
      <cc:Work
         rdf:about="">
        <dc:format>image/svg+xml</dc:format>
        <dc:type
           rdf:resource="http://purl.org/dc/dcmitype/StillImage" />
        <dc:title></dc:title>
      </cc:Work>
    </rdf:RDF>
  </metadata>
  <g
     inkscape:label="Layer 1"
     inkscape:groupmode="layer"
     id="layer1"
     transform="translate(-66.069796,-273.20539)">
    <path
       sodipodi:nodetypes="cccsccsccsccccscccscscccsccccscsscccssccsccccccccccscccccc"
       inkscape:connector-curvature="0"
       id="path5875"
       d="m 402.64326,293.20539 c -6.8421,1.49975 -16.97874,3.9368 -18.68586,4.03926 -0.72656,0.92775 -17.1144,9.94235 -18.75375,10.31881 -3.79679,-1.3966 -9.1073,-5.62593 -10.77704,-5.8213 -1.23947,-0.14502 -58.11119,29.7714 -59.02764,30.20966 -0.80374,-0.56269 -38.11416,-16.98021 -38.7505,-17.17338 -5.79944,1.62918 -11.00025,2.99332 -17.40891,4.9198 -4.96509,1.49252 -14.2458,2.89342 -16.3268,3.39434 -16.09783,7.46607 -70.92849,34.0647 -73.18205,35.1654 -1.12159,0.0684 -12.85276,-1.28796 -15.17272,-0.8995 -1.54141,0.25809 -11.04953,7.40433 -11.67654,7.75608 -9.55509,4.37013 -15.83479,6.79597 -24.456242,11.04859 -4.067923,3.34851 -9.719006,7.61977 -12.355412,9.01198 4.371253,0.70266 28.356954,3.75709 30.315664,3.45334 1.6226,-1.15087 22.58203,-16.05492 23.48962,-16.43951 0.91084,-0.38597 16.67849,3.00864 18.14097,2.92104 2.04455,-0.95844 12.23198,-6.19019 13.33112,-6.49589 1.77055,-1.37903 13.48823,-11.56402 15.44978,-12.93582 1.15712,-0.38921 17.60252,-9.48156 20.23028,-10.87888 1.5769,-0.83851 14.58291,-11.03037 17.30619,-12.12028 5.13124,-1.29097 11.82242,-1.31096 16.46105,-3.02497 1.9706,-0.72816 8.36152,-3.34322 10.40174,-3.14929 4.38657,1.50661 45.5008,21.84143 46.76549,22.23198 0.84602,-0.0326 13.25469,-6.91236 14.59568,-6.99234 5.96855,-2.94005 40.11194,-27.97434 40.6303,-28.34277 0.63701,-0.45277 8.08635,5.05298 13.33977,7.09417 2.83167,-1.70631 16.52678,-9.32653 19.60233,-10.84492 1.31055,-0.33773 13.82558,-4.82534 16.22497,-5.12546 4.39966,2.01029 28.25451,11.13615 35.01268,14.81631 8.78396,4.23607 17.29502,6.49892 25.00165,10.93731 14.555,8.38255 33.69834,18.08422 43.03533,24.59183 -2.59213,0.6817 -6.59849,0.5141 -12.37642,2.15292 -19.02848,5.39712 -44.53749,11.19976 -45.2339,11.59106 -0.65617,0.36868 -13.96552,9.19501 -15.30919,11.31625 4.64221,1.82905 15.29762,7.50333 18.98312,9.10265 l 13.72233,-7.89425 c 2.53125,-0.9255 20.29986,-8.12866 21.02206,-8.53635 1.06176,-0.59937 13.14323,-2.78709 15.1869,-3.91833 2.1689,-1.20054 16.6603,-5.16145 20.16479,-5.65789 3.00152,-1.03646 52.295,-14.16436 53.42056,-14.56728 10.83866,2.26646 29.5341,7.38038 32.92915,8.13975 3.07425,0.68765 24.61258,6.89419 36.38997,9.92373 1.10895,0.28287 2.78462,0.7768 3.13975,0.8995 0.85428,0.29515 2.18389,0.70242 3.27556,1.00134 4.64596,1.64092 46.75701,15.59906 50.32091,16.93774 6.95552,2.73493 13.51307,5.44285 23.01365,7.82397 l -10.26276,-9.18847 c -19.7118,-6.83356 -47.15998,-17.78506 -64.96285,-23.6577 -2.73465,-1.44239 -65.10308,-18.80248 -66.65796,-19.17216 -2.83827,-0.67474 -7.35204,-1.19039 -11.04862,-2.80033 -0.11356,-0.004 -0.22555,-0.008 -0.33943,0 -13.18749,4.13405 -48.85232,12.51246 -50.7115,12.76273 -1.49845,0.20172 -2.8809,0.46778 -4.1411,0.7807 -11.52317,-7.13883 -29.50765,-17.37447 -40.01931,-24.16773 -0.27301,-0.47631 -10.09147,-5.86094 -10.82796,-6.38136 -2.84766,-1.15743 -23.0685,-11.84597 -26.25527,-13.27189 -10.80987,-4.66441 -25.20917,-11.50501 -36.18368,-14.88419 z"
       style="color:#000000;font-style:normal;font-variant:normal;font-weight:normal;font-stretch:normal;font-size:medium;line-height:normal;font-family:Sans;-inkscape-font-specification:Sans;text-indent:0;text-align:start;text-decoration:none;text-decoration-line:none;letter-spacing:normal;word-spacing:normal;text-transform:none;writing-mode:lr-tb;direction:ltr;baseline-shift:baseline;text-anchor:start;display:inline;overflow:visible;visibility:visible;fill:#1a1a1a;fill-opacity:1;fill-rule:nonzero;stroke:none;stroke-width:15;marker:none;enable-background:accumulate" />
  </g>
</svg>
