<?xml version="1.0" encoding="UTF-8" standalone="no"?>
<!-- Created with Inkscape (http://www.inkscape.org/) -->

<svg
   xmlns:dc="http://purl.org/dc/elements/1.1/"
   xmlns:cc="http://creativecommons.org/ns#"
   xmlns:rdf="http://www.w3.org/1999/02/22-rdf-syntax-ns#"
   xmlns:svg="http://www.w3.org/2000/svg"
   xmlns="http://www.w3.org/2000/svg"
   xmlns:sodipodi="http://sodipodi.sourceforge.net/DTD/sodipodi-0.dtd"
   xmlns:inkscape="http://www.inkscape.org/namespaces/inkscape"
   width="662.367"
   height="316.88501"
   id="svg3176"
   version="1.1"
   inkscape:version="0.48.5 r10040"
   sodipodi:docname="lakeside-complete.svg">
  <defs
     id="defs3178" />
  <sodipodi:namedview
     id="base"
     pagecolor="#ffffff"
     bordercolor="#666666"
     borderopacity="1.0"
     inkscape:pageopacity="0.0"
     inkscape:pageshadow="2"
     inkscape:zoom="1.113266"
     inkscape:cx="285.74312"
     inkscape:cy="93.515931"
     inkscape:document-units="px"
     inkscape:current-layer="layer1"
     showgrid="false"
     fit-margin-top="5"
     fit-margin-left="5"
     fit-margin-right="5"
     fit-margin-bottom="5"
     inkscape:window-width="1920"
     inkscape:window-height="1027"
     inkscape:window-x="0"
     inkscape:window-y="28"
     inkscape:window-maximized="1"
     showborder="true"
     borderlayer="true"
     inkscape:showpageshadow="false" />
  <metadata
     id="metadata3181">
    <rdf:RDF>
      <cc:Work
         rdf:about="">
        <dc:format>image/svg+xml</dc:format>
        <dc:type
           rdf:resource="http://purl.org/dc/dcmitype/StillImage" />
        <dc:title />
      </cc:Work>
    </rdf:RDF>
  </metadata>
  <g
     inkscape:label="Layer 1"
     inkscape:groupmode="layer"
     id="layer1"
     transform="translate(-77.387926,-288.20538)">
    <path
       style="fill:#008641;fill-opacity:1;fill-rule:evenodd;stroke:none"
       d="M 469.09375 277.09375 L 469.09375 288.65625 L 457.53125 288.65625 L 457.53125 300.21875 L 469.09375 300.21875 L 469.09375 311.78125 L 480.65625 311.78125 L 480.65625 300.21875 L 492.1875 300.21875 L 492.1875 288.65625 L 480.65625 288.65625 L 480.65625 277.09375 L 469.09375 277.09375 z "
       transform="translate(77.387926,288.20538)"
       id="rect6169" />
    <g
       style="fill:#1a1a1a;fill-opacity:1"
       transform="matrix(2.9433889,0,0,2.9433889,-423.31016,-1167.1982)"
       id="g5825">
      <path
         inkscape:connector-curvature="0"
         id="path5827"
         style="font-size:275.91748047px;font-style:normal;font-variant:normal;font-weight:600;font-stretch:normal;text-align:start;line-height:100%;letter-spacing:0px;word-spacing:0px;writing-mode:lr-tb;text-anchor:start;fill:#1a1a1a;fill-opacity:1;stroke:none;font-family:NEXT ART;-inkscape-font-specification:NEXT ART Semi-Bold"
         d="m 171.80811,540.91444 0,35.67214 24.3366,0 2.58755,-5.51861 -20.95808,0 0,-30.15353 -5.96607,0"
         sodipodi:nodetypes="ccccccc" />
      <path
         inkscape:connector-curvature="0"
         id="path5829"
         style="font-size:275.91748047px;font-style:normal;font-variant:normal;font-weight:600;font-stretch:normal;text-align:start;line-height:100%;letter-spacing:0px;word-spacing:0px;writing-mode:lr-tb;text-anchor:start;fill:#1a1a1a;fill-opacity:1;stroke:none;font-family:NEXT ART;-inkscape-font-specification:NEXT ART Semi-Bold"
         d="m 216.00859,535.58821 -17.65089,40.99837 6.35001,0 4.83827,-10.70418 c 4.54888,-0.10814 13.80706,-2.18261 17.61324,-4.86552 l 6.71992,15.5697 6.57082,0 c -5.78056,-13.4396 -11.77085,-27.6462 -18.24535,-42.66694 m -2.95818,7.43274 5.75914,14.69149 c -3.5491,2.85954 -10.13147,4.34486 -13.70209,4.34328 l 7.94295,-19.03477"
         sodipodi:nodetypes="cccccccccccc" />
      <path
         inkscape:connector-curvature="0"
         id="path5831"
         style="font-size:275.91748047px;font-style:normal;font-variant:normal;font-weight:600;font-stretch:normal;text-align:start;line-height:100%;letter-spacing:0px;word-spacing:0px;writing-mode:lr-tb;text-anchor:start;fill:#1a1a1a;fill-opacity:1;stroke:none;font-family:NEXT ART;-inkscape-font-specification:NEXT ART Semi-Bold"
         d="m 265.9376,535.80571 c -13.07421,2.61392 -16.03498,10.71886 -20.06856,13.0176 l 0,-20.35315 -5.96607,1.03501 0,47.08141 5.96607,0 0,-19.91605 c 1.63125,-0.79114 3.796,-2.02133 6.41859,-5.02647 l 16.51007,24.94252 6.46324,0 -19.10136,-28.79737 c 2.25294,-2.93025 6.31193,-6.17316 12.04101,-6.97977"
         sodipodi:nodetypes="cccccccccccc" />
      <path
         inkscape:connector-curvature="0"
         id="path5833"
         style="font-size:275.91748047px;font-style:normal;font-variant:normal;font-weight:600;font-stretch:normal;text-align:start;line-height:100%;letter-spacing:0px;word-spacing:0px;writing-mode:lr-tb;text-anchor:start;fill:#1a1a1a;fill-opacity:1;stroke:none;font-family:NEXT ART;-inkscape-font-specification:NEXT ART Semi-Bold"
         d="m 274.80163,535.29082 0,41.29576 31.67838,0 c -2.96824,-2.23767 -5.10606,-4.16911 -6.64876,-5.49376 l -19.08841,0 0,-7.67647 c 3.65189,-1.21532 10.0338,-1.42903 13.22536,-0.17647 l -1.1204,-5.37073 c -3.16201,-1.34992 -7.43038,-1.71606 -12.10496,-0.56133 l 0,-16.49838 15.36911,0 c -0.84263,-1.39539 -2.70544,-4.93845 -3.16394,-5.51862 l -18.14638,0"
         sodipodi:nodetypes="ccccccccccccc" />
      <path
         sodipodi:nodetypes="sscccccsscsccccs"
         inkscape:connector-curvature="0"
         id="path5835"
         transform="matrix(0.33974444,0,0,0.33974444,170.10939,494.46526)"
         d="m 418.5,123.40625 c -17.24614,-0.1042 -33.7107,9.84944 -37,27.40625 -4.56758,24.37994 35.42629,41.53531 42.3125,43.71875 6.94466,2.26882 24.30904,8.18838 25.21875,20.21875 -0.25166,9.72616 -5.9439,17.16246 -23.94406,12.14222 -16.36205,-5.14166 -30.49617,-24.71114 -54.64969,-36.89605 l 3.10572,16.66077 c 19.88273,13.57939 31.23261,29.41371 49.19201,34.48227 16.214,4.57596 39.45881,2.89272 42.04602,-23.26421 2.55672,-25.84869 -25.82452,-33.87294 -33.53125,-37.34375 -7.30426,-2.3362 -34.6111,-16.28389 -32.46875,-27.71875 1.75164,-9.34923 13.91071,-14.88584 24.4375,-13.0625 9.79424,1.76053 18.96127,5.99107 26.3125,16.1875 l 7.25,-13.90625 c -10.08767,-10.52521 -18.11862,-15.69646 -30.875,-17.9375 -2.45917,-0.43283 -4.94252,-0.67261 -7.40625,-0.6875 z"
         style="font-size:275.91748047px;font-style:normal;font-variant:normal;font-weight:600;font-stretch:normal;text-align:start;line-height:100%;letter-spacing:0px;word-spacing:0px;writing-mode:lr-tb;text-anchor:start;fill:#1a1a1a;fill-opacity:1;stroke:none;font-family:NEXT ART;-inkscape-font-specification:NEXT ART Semi-Bold" />
      <path
         inkscape:connector-curvature="0"
         id="path5837"
         style="font-size:275.91748047px;font-style:normal;font-variant:normal;font-weight:600;font-stretch:normal;text-align:start;line-height:100%;letter-spacing:0px;word-spacing:0px;writing-mode:lr-tb;text-anchor:start;fill:#1a1a1a;fill-opacity:1;stroke:none;font-family:NEXT ART;-inkscape-font-specification:NEXT ART Semi-Bold"
         d="m 329.94043,576.58658 5.96607,0 0,-35.64153 -5.96607,-1.73965 0,37.38118"
         sodipodi:nodetypes="ccccc" />
      <path
         inkscape:connector-curvature="0"
         id="path5839"
         style="font-size:275.91748047px;font-style:normal;font-variant:normal;font-weight:600;font-stretch:normal;text-align:start;line-height:100%;letter-spacing:0px;word-spacing:0px;writing-mode:lr-tb;text-anchor:start;fill:#1a1a1a;fill-opacity:1;stroke:none;font-family:NEXT ART;-inkscape-font-specification:NEXT ART Semi-Bold"
         d="m 349.96242,571.19226 -5.81693,0 0,-24.83377 5.81693,0 c 7.15929,0 11.9073,5.79206 11.9073,12.42931 0,7.01013 -5.24518,12.40446 -11.9073,12.40446 m 0,-30.2281 -11.75814,0 0,35.62242 11.75814,0 c 9.96832,0 18.07224,-7.90505 18.07224,-17.79878 0,-10.06773 -8.22821,-17.82364 -18.07224,-17.82364"
         sodipodi:nodetypes="cccssccccssc" />
      <path
         inkscape:connector-curvature="0"
         id="path5841"
         style="font-size:275.91748047px;font-style:normal;font-variant:normal;font-weight:600;font-stretch:normal;text-align:start;line-height:100%;letter-spacing:0px;word-spacing:0px;writing-mode:lr-tb;text-anchor:start;fill:#1a1a1a;fill-opacity:1;stroke:none;font-family:NEXT ART;-inkscape-font-specification:NEXT ART Semi-Bold"
         d="m 368.77065,540.80944 0,35.77714 24.67552,0 -0.2209,-5.49376 -18.5134,0 0,-11.35728 c 6.21523,1.65863 10.20708,0.98802 13.89597,0 l -1.75869,-5.24414 c -4.03339,0.94775 -7.64497,0.90733 -12.13728,-0.27447 l 0,-7.88887 16.83637,0 -1.46943,-5.51862 -21.30816,0"
         sodipodi:nodetypes="ccccccccccccc" />
    </g>
    <path
       id="path5845"
       style="font-size:85.83184814px;font-style:normal;font-variant:normal;font-weight:normal;font-stretch:normal;text-align:start;line-height:100%;letter-spacing:22.58870506px;word-spacing:0px;writing-mode:lr-tb;text-anchor:start;fill:#313131;fill-opacity:1;stroke:none;font-family:SGRegular;-inkscape-font-specification:SGRegular"
       d="m 114.58102,599.34457 0,-14.54387 -16.268575,0 0,14.54387 -5.220865,0 0,-33.09655 5.220865,0 0,13.84459 16.268575,0 0,-13.84459 5.22087,0 0,33.09655 -5.22087,0"
       inkscape:connector-curvature="0" />
    <path
       id="path5847"
       style="font-size:85.83184814px;font-style:normal;font-variant:normal;font-weight:normal;font-stretch:normal;text-align:start;line-height:100%;letter-spacing:22.58870506px;word-spacing:0px;writing-mode:lr-tb;text-anchor:start;fill:#313131;fill-opacity:1;stroke:none;font-family:SGRegular;-inkscape-font-specification:SGRegular"
       d="m 138.49964,599.34457 0,-33.09655 21.86236,0 0.79245,4.7081 -17.43395,0 0,8.48391 14.31076,0 0.83907,4.84794 -15.14983,0 0,10.30186 17.38734,0 -0.83907,4.75474 -21.76913,0"
       inkscape:connector-curvature="0" />
    <path
       id="path5849"
       style="font-size:85.83184814px;font-style:normal;font-variant:normal;font-weight:normal;font-stretch:normal;text-align:start;line-height:100%;letter-spacing:22.58870506px;word-spacing:0px;writing-mode:lr-tb;text-anchor:start;fill:#313131;fill-opacity:1;stroke:none;font-family:SGRegular;-inkscape-font-specification:SGRegular"
       d="m 183.93901,585.54659 0,13.79798 -5.22086,0 0,-33.09655 10.76802,0 c 3.66702,3e-5 6.63483,0.90126 8.90344,2.70366 2.29964,1.77139 3.44947,4.08662 3.4495,6.94563 -3e-5,2.29969 -0.76141,4.27302 -2.28413,5.92007 -1.4917,1.61597 -3.52721,2.71922 -6.10654,3.30967 l 11.46725,14.21752 -6.33962,0 -10.48834,-13.79798 -4.14872,0 m 12.67924,-9.64928 c -2e-5,-3.29408 -2.57938,-4.94116 -7.73807,-4.94119 l -4.94117,0 0,9.83573 4.94117,0 c 5.15869,0 7.73805,-1.63151 7.73807,-4.89454"
       inkscape:connector-curvature="0" />
    <path
       id="path5851"
       style="font-size:85.83184814px;font-style:normal;font-variant:normal;font-weight:normal;font-stretch:normal;text-align:start;line-height:100%;letter-spacing:22.58870506px;word-spacing:0px;writing-mode:lr-tb;text-anchor:start;fill:#313131;fill-opacity:1;stroke:none;font-family:SGRegular;-inkscape-font-specification:SGRegular"
       d="m 232.77763,599.34457 -11.74695,0 0,-33.09655 10.53496,0 c 3.57379,3e-5 6.41729,0.76141 8.53052,2.28413 2.11318,1.52278 3.16978,3.66707 3.16981,6.43283 -3e-5,1.9268 -0.57494,3.51171 -1.72475,4.75475 -1.11878,1.24309 -2.64153,2.01998 -4.56825,2.33074 2.4861,0.31076 4.38177,1.18091 5.687,2.61044 1.33627,1.39842 2.00442,3.16978 2.00444,5.31408 -2e-5,2.48612 -1.13432,4.67702 -3.40288,6.5727 -2.23753,1.8646 -5.0655,2.79688 -8.4839,2.79688 m 5.50055,-23.8202 c -2e-5,-1.55379 -0.62155,-2.70363 -1.8646,-3.44949 -1.24308,-0.74581 -3.21643,-1.11873 -5.92008,-1.11876 l -4.24195,0 0,9.0899 4.24195,0 c 2.70365,0 4.677,-0.37289 5.92008,-1.11878 1.24305,-0.74578 1.86458,-1.88009 1.8646,-3.40287 m 1.21199,14.03108 c -2e-5,-1.77136 -0.60602,-3.04552 -1.81799,-3.82241 -1.18092,-0.80797 -3.13874,-1.21197 -5.87347,-1.21197 l -5.54716,0 0,10.06876 5.54716,0 c 2.73473,0 4.69255,-0.38842 5.87347,-1.16537 1.21197,-0.7769 1.81797,-2.06659 1.81799,-3.86901"
       inkscape:connector-curvature="0" />
    <path
       id="path5853"
       style="font-size:85.83184814px;font-style:normal;font-variant:normal;font-weight:normal;font-stretch:normal;text-align:start;line-height:100%;letter-spacing:22.58870506px;word-spacing:0px;writing-mode:lr-tb;text-anchor:start;fill:#313131;fill-opacity:1;stroke:none;font-family:SGRegular;-inkscape-font-specification:SGRegular"
       d="m 266.61646,592.86512 0,-0.0933 -2.37735,6.5727 -5.36071,0 12.53939,-32.77024 5.03441,-0.55938 12.53939,33.32962 -5.59378,0 -2.89012,-8.01776 -13.89123,1.53831 m 7.17869,-19.99779 -5.3607,14.87016 10.34849,-1.16537 -4.98779,-13.70479"
       inkscape:connector-curvature="0" />
    <path
       id="path5855"
       style="font-size:85.83184814px;font-style:normal;font-variant:normal;font-weight:normal;font-stretch:normal;text-align:start;line-height:100%;letter-spacing:22.58870506px;word-spacing:0px;writing-mode:lr-tb;text-anchor:start;fill:#313131;fill-opacity:1;stroke:none;font-family:SGRegular;-inkscape-font-specification:SGRegular"
       d="m 326.86771,594.58983 0,4.75474 -21.30299,0 0,-33.09655 5.22086,0 0,28.34181 16.08213,0"
       inkscape:connector-curvature="0" />
    <path
       id="path5857"
       style="font-size:85.83184814px;font-style:normal;font-variant:normal;font-weight:normal;font-stretch:normal;text-align:start;line-height:100%;letter-spacing:22.58870506px;word-spacing:0px;writing-mode:lr-tb;text-anchor:start;fill:#313131;fill-opacity:1;stroke:none;font-family:SGRegular;-inkscape-font-specification:SGRegular"
       d="m 387.4286,568.53215 1.02553,6.01329 c -1.77139,-1.36729 -3.41845,-2.33069 -4.94118,-2.89009 -1.52277,-0.59043 -3.18536,-0.88566 -4.98779,-0.88569 -4.2575,3e-5 -6.38624,1.25863 -6.38623,3.77578 -1e-5,0.65264 0.10876,1.22756 0.3263,1.72476 0.24861,0.4662 0.6526,0.88574 1.21199,1.25863 0.55937,0.37294 1.04106,0.65263 1.44506,0.83908 0.43506,0.18644 1.1032,0.4506 2.00444,0.79243 l 5.12763,1.86461 c 2.79687,1.02552 4.84792,2.25302 6.15316,3.68256 1.33626,1.42953 2.00441,3.26302 2.00444,5.50052 -3e-5,2.76582 -1.13432,5.1121 -3.40289,7.03889 -2.2686,1.89562 -5.22088,2.84348 -8.85682,2.84348 -1.7403,0 -3.68258,-0.35735 -5.82685,-1.07212 -2.11321,-0.74583 -3.86904,-1.66263 -5.26748,-2.75029 l -1.07214,-6.71254 c 1.61598,1.61598 3.55826,2.95226 5.82685,4.00885 2.26858,1.02553 4.36625,1.53832 6.29301,1.53832 2.14427,0 3.8224,-0.40401 5.0344,-1.21197 1.24304,-0.80802 1.86458,-1.88014 1.86459,-3.21643 -10e-6,-1.30522 -0.38847,-2.34628 -1.16536,-3.12323 -0.77694,-0.7769 -2.31523,-1.58486 -4.61488,-2.42394 l -5.12763,-1.86461 c -2.48613,-0.93227 -4.33518,-2.05105 -5.54717,-3.35627 -1.21198,-1.33629 -1.81798,-3.06099 -1.81797,-5.17423 -10e-6,-2.7658 1.05659,-4.94116 3.16981,-6.52609 2.11319,-1.58488 4.92562,-2.37733 8.43728,-2.37736 3.23195,3e-5 6.26191,0.90125 9.0899,2.70366"
       inkscape:connector-curvature="0" />
    <path
       id="path5859"
       style="font-size:85.83184814px;font-style:normal;font-variant:normal;font-weight:normal;font-stretch:normal;text-align:start;line-height:100%;letter-spacing:22.58870506px;word-spacing:0px;writing-mode:lr-tb;text-anchor:start;fill:#313131;fill-opacity:1;stroke:none;font-family:SGRegular;-inkscape-font-specification:SGRegular"
       d="m 439.34304,576.64315 c 0.74584,1.98892 1.11873,4.03997 1.11878,6.15315 -5e-5,2.11324 -0.37294,4.16424 -1.11878,6.15316 -0.74583,1.98892 -1.81801,3.80688 -3.21642,5.45392 -1.36741,1.61598 -3.13876,2.9212 -5.31408,3.91567 -2.17536,0.96334 -4.58381,1.44506 -7.2253,1.44506 -3.51166,0 -6.58824,-0.83908 -9.22974,-2.51719 -2.61043,-1.70923 -4.55272,-3.82241 -5.82685,-6.33966 -1.24307,-2.54825 -1.8646,-5.25189 -1.86459,-8.11096 -1e-5,-2.85901 0.62152,-5.54717 1.86459,-8.06436 1.27413,-2.54826 3.21642,-4.66147 5.82685,-6.33963 2.6415,-1.70918 5.71808,-2.56379 9.22974,-2.56382 2.64149,3e-5 5.04994,0.49726 7.2253,1.49168 2.17532,0.9634 3.94667,2.26861 5.31408,3.91564 1.39841,1.61599 2.47059,3.41847 3.21642,5.40734 m -7.45837,14.8701 c 2.08211,-2.33069 3.12317,-5.23636 3.12323,-8.71695 -6e-5,-3.48058 -1.04112,-6.3862 -3.12323,-8.717 -2.05106,-2.3307 -4.81688,-3.49607 -8.29743,-3.49609 -3.51166,2e-5 -6.29301,1.16539 -8.34405,3.49609 -2.05107,2.3308 -3.07659,5.23642 -3.07658,8.717 -10e-6,3.48059 1.02551,6.38626 3.07658,8.71695 2.05104,2.33075 4.83239,3.49612 8.34405,3.49612 3.48055,0 6.24637,-1.16537 8.29743,-3.49612"
       inkscape:connector-curvature="0" />
    <path
       id="path5861"
       style="font-size:85.83184814px;font-style:normal;font-variant:normal;font-weight:normal;font-stretch:normal;text-align:start;line-height:100%;letter-spacing:22.58870506px;word-spacing:0px;writing-mode:lr-tb;text-anchor:start;fill:#313131;fill-opacity:1;stroke:none;font-family:SGRegular;-inkscape-font-specification:SGRegular"
       d="m 479.36562,594.58983 0,4.75474 -21.30296,0 0,-33.09655 5.22088,0 0,28.34181 16.08208,0"
       inkscape:connector-curvature="0" />
    <path
       id="path5863"
       style="font-size:85.83184814px;font-style:normal;font-variant:normal;font-weight:normal;font-stretch:normal;text-align:start;line-height:100%;letter-spacing:22.58870506px;word-spacing:0px;writing-mode:lr-tb;text-anchor:start;fill:#313131;fill-opacity:1;stroke:none;font-family:SGRegular;-inkscape-font-specification:SGRegular"
       d="m 495.76106,566.24802 5.22088,0 0,19.01888 c -6e-5,2.98333 0.74583,5.37626 2.23749,7.17868 1.49167,1.77136 3.60485,2.65704 6.33961,2.65704 2.70363,0 4.80134,-0.88568 6.293,-2.65704 1.49167,-1.80242 2.2375,-4.19535 2.2375,-7.17868 l 0,-19.01888 5.22088,0 0,18.1798 c 0,4.75474 -1.18091,8.5305 -3.54272,11.32738 -2.33074,2.76582 -5.73367,4.14876 -10.20866,4.14876 -4.50612,0 -7.94005,-1.38294 -10.30186,-4.14876 -2.33075,-2.79688 -3.49612,-6.57264 -3.49612,-11.32738 l 0,-18.1798"
       inkscape:connector-curvature="0" />
    <path
       id="path5867"
       style="font-size:85.83184814px;font-style:normal;font-variant:normal;font-weight:normal;font-stretch:normal;text-align:start;line-height:100%;letter-spacing:22.58870506px;word-spacing:0px;writing-mode:lr-tb;text-anchor:start;fill:#313131;fill-opacity:1;stroke:none;font-family:SGRegular;-inkscape-font-specification:SGRegular"
       d="m 582.7242,599.34457 0,-33.09655 5.22082,0 0,33.09655 -5.22082,0"
       inkscape:connector-curvature="0" />
    <path
       id="path5869"
       style="font-size:85.83184814px;font-style:normal;font-variant:normal;font-weight:normal;font-stretch:normal;text-align:start;line-height:100%;letter-spacing:22.58870506px;word-spacing:0px;writing-mode:lr-tb;text-anchor:start;fill:#313131;fill-opacity:1;stroke:none;font-family:SGRegular;-inkscape-font-specification:SGRegular"
       d="m 638.25056,576.64315 c 0.74577,1.98892 1.11872,4.03997 1.11872,6.15315 0,2.11324 -0.37295,4.16424 -1.11872,6.15316 -0.74589,1.98892 -1.81801,3.80688 -3.21643,5.45392 -1.3674,1.61598 -3.13876,2.9212 -5.31408,3.91567 -2.17542,0.96334 -4.58383,1.44506 -7.22533,1.44506 -3.51165,0 -6.58823,-0.83908 -9.22974,-2.51719 -2.61044,-1.70923 -4.55271,-3.82241 -5.82686,-6.33966 -1.24304,-2.54825 -1.86456,-5.25189 -1.86456,-8.11096 0,-2.85901 0.62152,-5.54717 1.86456,-8.06436 1.27415,-2.54826 3.21642,-4.66147 5.82686,-6.33963 2.64151,-1.70918 5.71809,-2.56379 9.22974,-2.56382 2.6415,3e-5 5.04991,0.49726 7.22533,1.49168 2.17532,0.9634 3.94668,2.26861 5.31408,3.91564 1.39842,1.61599 2.47054,3.41847 3.21643,5.40734 m -7.45838,14.8701 c 2.08212,-2.33069 3.12317,-5.23636 3.12317,-8.71695 0,-3.48058 -1.04105,-6.3862 -3.12317,-8.717 -2.05111,-2.3307 -4.81687,-3.49607 -8.29746,-3.49609 -3.51165,2e-5 -6.29301,1.16539 -8.34406,3.49609 -2.05105,2.3308 -3.07658,5.23642 -3.07658,8.717 0,3.48059 1.02553,6.38626 3.07658,8.71695 2.05105,2.33075 4.83241,3.49612 8.34406,3.49612 3.48059,0 6.24635,-1.16537 8.29746,-3.49612"
       inkscape:connector-curvature="0" />
    <path
       id="path5871"
       style="font-size:85.83184814px;font-style:normal;font-variant:normal;font-weight:normal;font-stretch:normal;text-align:start;line-height:100%;letter-spacing:22.58870506px;word-spacing:0px;writing-mode:lr-tb;text-anchor:start;fill:#313131;fill-opacity:1;stroke:none;font-family:SGRegular;-inkscape-font-specification:SGRegular"
       d="m 684.23984,566.24802 0,33.09655 -5.59377,0 -16.96781,-25.40511 0.55939,25.40511 -5.26748,0 0,-33.09655 5.59377,0 16.96781,25.40508 -0.55939,-25.40508 5.26748,0"
       inkscape:connector-curvature="0" />
    <path
       id="path5873"
       style="font-size:85.83184814px;font-style:normal;font-variant:normal;font-weight:normal;font-stretch:normal;text-align:start;line-height:100%;letter-spacing:22.58870506px;word-spacing:0px;writing-mode:lr-tb;text-anchor:start;fill:#313131;fill-opacity:1;stroke:none;font-family:SGRegular;-inkscape-font-specification:SGRegular"
       d="m 723.01547,568.53215 1.02552,6.01329 c -1.77136,-1.36729 -3.4184,-2.33069 -4.94113,-2.89009 -1.52278,-0.59043 -3.18542,-0.88566 -4.98784,-0.88569 -4.25748,3e-5 -6.3862,1.25863 -6.3862,3.77578 0,0.65264 0.10873,1.22756 0.32629,1.72476 0.24863,0.4662 0.65259,0.88574 1.21197,1.25863 0.55939,0.37294 1.04106,0.65263 1.44507,0.83908 0.43507,0.18644 1.10324,0.4506 2.00446,0.79243 l 5.12763,1.86461 c 2.79688,1.02552 4.84793,2.25302 6.15316,3.68256 1.33628,1.42953 2.0044,3.26302 2.00445,5.50052 -5e-5,2.76582 -1.13436,5.1121 -3.40292,7.03889 -2.26857,1.89562 -5.22089,2.84348 -8.8568,2.84348 -1.74029,0 -3.68256,-0.35735 -5.82686,-1.07212 -2.11319,-0.74583 -3.86901,-1.66263 -5.26748,-2.75029 l -1.07213,-6.71254 c 1.61598,1.61598 3.55825,2.95226 5.82687,4.00885 2.26856,1.02553 4.36621,1.53832 6.293,1.53832 2.14425,0 3.82236,-0.40401 5.03439,-1.21197 1.24303,-0.80802 1.86455,-1.88014 1.8646,-3.21643 -5e-5,-1.30522 -0.38847,-2.34628 -1.16537,-3.12323 -0.77695,-0.7769 -2.31521,-1.58486 -4.61489,-2.42394 l -5.12764,-1.86461 c -2.48612,-0.93227 -4.3352,-2.05105 -5.54717,-3.35627 -1.21197,-1.33629 -1.81795,-3.06099 -1.81795,-5.17423 0,-2.7658 1.05659,-4.94116 3.16982,-6.52609 2.11319,-1.58488 4.9256,-2.37733 8.43726,-2.37736 3.23196,3e-5 6.26194,0.90125 9.08989,2.70366"
       inkscape:connector-curvature="0" />
    <path
       sodipodi:nodetypes="cccsccsccsccccscccscscccsccccscsscccssccsccccccccccscccccc"
       inkscape:connector-curvature="0"
       id="path5875"
       d="m 402.64326,293.20539 c -6.8421,1.49975 -16.97874,3.9368 -18.68586,4.03926 -0.72656,0.92775 -17.1144,9.94235 -18.75375,10.31881 -3.79679,-1.3966 -9.1073,-5.62593 -10.77704,-5.8213 -1.23947,-0.14502 -58.11119,29.7714 -59.02764,30.20966 -0.80374,-0.56269 -38.11416,-16.98021 -38.7505,-17.17338 -5.79944,1.62918 -11.00025,2.99332 -17.40891,4.9198 -4.96509,1.49252 -14.2458,2.89342 -16.3268,3.39434 -16.09783,7.46607 -70.92849,34.0647 -73.18205,35.1654 -1.12159,0.0684 -12.85276,-1.28796 -15.17272,-0.8995 -1.54141,0.25809 -11.04953,7.40433 -11.67654,7.75608 -9.55509,4.37013 -15.83479,6.79597 -24.456242,11.04859 -4.067923,3.34851 -9.719006,7.61977 -12.355412,9.01198 4.371253,0.70266 28.356954,3.75709 30.315664,3.45334 1.6226,-1.15087 22.58203,-16.05492 23.48962,-16.43951 0.91084,-0.38597 16.67849,3.00864 18.14097,2.92104 2.04455,-0.95844 12.23198,-6.19019 13.33112,-6.49589 1.77055,-1.37903 13.48823,-11.56402 15.44978,-12.93582 1.15712,-0.38921 17.60252,-9.48156 20.23028,-10.87888 1.5769,-0.83851 14.58291,-11.03037 17.30619,-12.12028 5.13124,-1.29097 11.82242,-1.31096 16.46105,-3.02497 1.9706,-0.72816 8.36152,-3.34322 10.40174,-3.14929 4.38657,1.50661 45.5008,21.84143 46.76549,22.23198 0.84602,-0.0326 13.25469,-6.91236 14.59568,-6.99234 5.96855,-2.94005 40.11194,-27.97434 40.6303,-28.34277 0.63701,-0.45277 8.08635,5.05298 13.33977,7.09417 2.83167,-1.70631 16.52678,-9.32653 19.60233,-10.84492 1.31055,-0.33773 13.82558,-4.82534 16.22497,-5.12546 4.39966,2.01029 28.25451,11.13615 35.01268,14.81631 8.78396,4.23607 17.29502,6.49892 25.00165,10.93731 14.555,8.38255 33.69834,18.08422 43.03533,24.59183 -2.59213,0.6817 -6.59849,0.5141 -12.37642,2.15292 -19.02848,5.39712 -44.53749,11.19976 -45.2339,11.59106 -0.65617,0.36868 -13.96552,9.19501 -15.30919,11.31625 4.64221,1.82905 15.29762,7.50333 18.98312,9.10265 l 13.72233,-7.89425 c 2.53125,-0.9255 20.29986,-8.12866 21.02206,-8.53635 1.06176,-0.59937 13.14323,-2.78709 15.1869,-3.91833 2.1689,-1.20054 16.6603,-5.16145 20.16479,-5.65789 3.00152,-1.03646 52.295,-14.16436 53.42056,-14.56728 10.83866,2.26646 29.5341,7.38038 32.92915,8.13975 3.07425,0.68765 24.61258,6.89419 36.38997,9.92373 1.10895,0.28287 2.78462,0.7768 3.13975,0.8995 0.85428,0.29515 2.18389,0.70242 3.27556,1.00134 4.64596,1.64092 46.75701,15.59906 50.32091,16.93774 6.95552,2.73493 13.51307,5.44285 23.01365,7.82397 l -10.26276,-9.18847 c -19.7118,-6.83356 -47.15998,-17.78506 -64.96285,-23.6577 -2.73465,-1.44239 -65.10308,-18.80248 -66.65796,-19.17216 -2.83827,-0.67474 -7.35204,-1.19039 -11.04862,-2.80033 -0.11356,-0.004 -0.22555,-0.008 -0.33943,0 -13.18749,4.13405 -48.85232,12.51246 -50.7115,12.76273 -1.49845,0.20172 -2.8809,0.46778 -4.1411,0.7807 -11.52317,-7.13883 -29.50765,-17.37447 -40.01931,-24.16773 -0.27301,-0.47631 -10.09147,-5.86094 -10.82796,-6.38136 -2.84766,-1.15743 -23.0685,-11.84597 -26.25527,-13.27189 -10.80987,-4.66441 -25.20917,-11.50501 -36.18368,-14.88419 z"
       style="font-size:medium;font-style:normal;font-variant:normal;font-weight:normal;font-stretch:normal;text-indent:0;text-align:start;text-decoration:none;line-height:normal;letter-spacing:normal;word-spacing:normal;text-transform:none;direction:ltr;block-progression:tb;writing-mode:lr-tb;text-anchor:start;baseline-shift:baseline;color:#000000;fill:#616161;fill-opacity:1;fill-rule:nonzero;stroke:none;stroke-width:15;marker:none;visibility:visible;display:inline;overflow:visible;enable-background:accumulate;font-family:Sans;-inkscape-font-specification:Sans" />
  </g>
</svg>
