<?xml version="1.0" encoding="UTF-8" standalone="no"?>
<!-- Created with Inkscape (http://www.inkscape.org/) -->

<svg
   xmlns:dc="http://purl.org/dc/elements/1.1/"
   xmlns:cc="http://creativecommons.org/ns#"
   xmlns:rdf="http://www.w3.org/1999/02/22-rdf-syntax-ns#"
   xmlns:svg="http://www.w3.org/2000/svg"
   xmlns="http://www.w3.org/2000/svg"
   xmlns:sodipodi="http://sodipodi.sourceforge.net/DTD/sodipodi-0.dtd"
   xmlns:inkscape="http://www.inkscape.org/namespaces/inkscape"
   id="svg3432"
   version="1.1"
   inkscape:version="0.48.5 r10040"
   width="160"
   height="100.02477"
   sodipodi:docname="wm-bw.svg">
  <metadata
     id="metadata3438">
    <rdf:RDF>
      <cc:Work
         rdf:about="">
        <dc:format>image/svg+xml</dc:format>
        <dc:type
           rdf:resource="http://purl.org/dc/dcmitype/StillImage" />
        <dc:title />
      </cc:Work>
    </rdf:RDF>
  </metadata>
  <defs
     id="defs3436" />
  <sodipodi:namedview
     pagecolor="#ffffff"
     bordercolor="#666666"
     borderopacity="1"
     objecttolerance="10"
     gridtolerance="10"
     guidetolerance="10"
     inkscape:pageopacity="0"
     inkscape:pageshadow="2"
     inkscape:window-width="1366"
     inkscape:window-height="732"
     id="namedview3434"
     showgrid="false"
     inkscape:zoom="1.0836098"
     inkscape:cx="280.34747"
     inkscape:cy="175.06004"
     inkscape:window-x="0"
     inkscape:window-y="0"
     inkscape:window-maximized="1"
     inkscape:current-layer="svg3432"
     fit-margin-top="5"
     fit-margin-left="5"
     fit-margin-right="5"
     fit-margin-bottom="5" />
  <g
     id="g4289"
     transform="matrix(0.19584726,0,0,0.19584726,-4.2048212,33.761412)">
    <path
       sodipodi:nodetypes="sssssssssssssscccssssssssssccssssscsssssssssssssssssssssssssssssssscsssssssssss"
       inkscape:connector-curvature="0"
       id="path3467"
       d="m 581.15625,-146.84375 c -11.26179,0.16226 -19.69497,1.81732 -29.15625,5.53125 -9.97136,3.91416 -21.84802,12.31089 -30.8125,21.78125 -4.4378,4.68828 -8.31541,8.53125 -8.625,8.53125 -0.3096,0 -0.5625,-6.2225 -0.5625,-13.8125 0,-9.4 -0.37011,-14.18261 -1.1875,-15 -1.71275,-1.71275 -57.91225,-1.71275 -59.625,0 -1.78845,1.78845 -1.72649,235.43438 0.0625,236.15625 2.04328,0.82448 61.12921,0.70659 62.4375,-0.125 0.91368,-0.58077 1.291,-18.77796 1.5625,-75.75 0.39243,-82.34576 0.20789,-79.67404 6.65625,-92.34375 8.23973,-16.18939 22.61294,-23.94484 42.46875,-22.90625 14.46928,0.75684 22.86507,5.5562 28.28125,16.15625 5.13068,10.04128 5.25972,12.30674 5.375,93.84375 0.0589,41.63755 0.46401,76.96255 0.875,78.5 l 0.75,2.78125 30.78125,0.25 c 21.19756,0.18208 31.21818,-0.0599 32.125,-0.8125 1.06362,-0.88272 1.41342,-15.61722 1.6875,-76.28125 0.3344,-74.01169 0.35188,-75.2707 2.53125,-83.0625 3.91164,-13.98515 10.44021,-22.61439 21.0625,-27.84375 6.05767,-2.98219 7.56719,-3.26839 17.8125,-3.59375 9.37368,-0.29767 12.23915,-0.0174 17.53125,1.75 7.69539,2.57004 14.81464,8.401 17.8125,14.59375 5.46232,11.28364 5.32919,8.88336 5.75,93.96875 0.26437,53.4556 0.7222,79.38812 1.4375,80.25 C 749.00156,96.69964 756.35193,97 780.15625,97 l 30.90625,0 0.875,-2.34375 c 1.2268,-3.22674 1.31323,-155.60794 0.0937,-168.40625 -3.38704,-35.54789 -19.61117,-58.4659 -47.90625,-67.65625 -13.25737,-4.30605 -18.7959,-5.04196 -37.125,-5.0625 -15.58322,-0.0175 -18.32148,0.22714 -25,2.3125 -14.83439,4.63202 -29.87096,14.72683 -41.75,28.0625 -2.98588,3.352 -5.81889,5.86757 -6.3125,5.5625 -0.49361,-0.30506 -2.93527,-3.68026 -5.40625,-7.5 -6.23549,-9.63909 -12.63248,-15.46304 -22.03125,-20 -12.6498,-6.10629 -20.98951,-8.05997 -37.0625,-8.6875 -2.9479,-0.11509 -5.68238,-0.16244 -8.28125,-0.125 z M 81.96875,-141 c -17.487673,0 -32.505016,0.2599 -33.375,0.59375 -0.869983,0.33384 -1.59375,1.11784 -1.59375,1.71875 0,0.6009 11.294162,36.64724 25.09375,80.125 C 85.893338,-15.08475 98.541393,24.775 100.1875,30 c 1.6461,5.225 3.58871,11.3 4.34375,13.5 0.75505,2.2 3.46123,10.75 6,19 8.0123,26.03682 10.55861,33.34596 11.78125,33.84375 0.65366,0.26613 15.64234,0.51908 33.3125,0.5625 24.56183,0.0604 32.36371,-0.20061 33.15625,-1.15625 0.57017,-0.6875 8.80977,-31.85 18.28125,-69.25 9.47149,-37.4 18.1865,-71.7999 19.375,-76.4375 1.18849,-4.6376 2.68109,-8.60203 3.3125,-8.8125 0.63342,-0.21114 1.60153,1.3328 2.15625,3.4375 1.90083,7.21214 13.21206,49.82165 15.75,59.3125 1.39721,5.225 7.41791,27.91272 13.375,50.40625 5.95709,22.49352 11.4299,41.2582 12.15625,41.71875 1.70057,1.07826 63.89646,1.10824 65.59375,0.0312 0.70483,-0.44725 3.54642,-7.99317 6.3125,-16.75 2.76609,-8.75682 8.78908,-27.83125 13.375,-42.40625 20.25946,-64.38871 41.95321,-133.23774 48.375,-153.5 4.96994,-15.68134 6.67126,-22.35901 5.9375,-23.25 -0.78356,-0.95146 -8.51453,-1.25 -32.34375,-1.25 -27.12678,0 -31.51336,0.20085 -32.875,1.5625 -0.86429,0.86428 -1.5625,1.78025 -1.5625,2.03125 0,0.25101 -4.24436,16.09028 -9.4375,35.1875 C 331.36936,-83.12154 322.1126,-49.05 316,-26.5 c -6.1126,22.55 -11.52117,41.42417 -12.03125,41.9375 -0.51009,0.51334 -1.20944,0.66556 -1.53125,0.34375 -0.32182,-0.32181 -9.26007,-35.0646 -19.875,-77.1875 C 271.94758,-103.52915 262.68977,-138.66887 262,-139.5 c -1.06832,-1.28726 -5.72745,-1.5 -31.5,-1.5 -23.00553,0 -30.49167,0.29952 -31.25,1.25 -0.54851,0.6875 -4.68462,16.325 -9.1875,34.75 -4.50288,18.425 -12.45413,51.05 -17.6875,72.5 -11.34511,46.5001 -12.17469,49.5 -13.34375,49.5 -1.16406,0 2.36739,12.67503 -35.59375,-127.875 -4.065,-15.05056 -7.8989,-27.98806 -8.53125,-28.75 -0.93559,-1.12731 -7.06407,-1.375 -32.9375,-1.375 z"
       style="fill:#131313;fill-opacity:1" />
    <path
       sodipodi:nodetypes="cccssssssccsscc"
       inkscape:connector-curvature="0"
       id="path3458"
       d="m 219.61877,182.59375 c -0.0664,-0.002 -0.1176,0.0154 -0.1562,0.0312 -2.082,0.85371 -29.8233,39.41936 -29.3126,40.75 1.2243,3.19024 31.4888,23.77867 52.6876,35.84375 54.3434,30.92888 112.3415,48.97357 169.5,52.71875 17.7824,1.16516 19.6325,1.1564 37.0312,0.0312 21.3285,-1.37926 30.1378,-2.49788 47.9688,-6.03125 45.6078,-9.03769 92.3144,-27.53669 136,-53.90625 20.1113,-12.13977 40.5,-26.92486 40.5,-29.34375 0,-1.43586 -27.5165,-38.83823 -29.3126,-39.84375 -0.6514,-0.36469 -4.1158,1.12865 -7.6874,3.3125 -57.1589,34.94805 -149.3567,53.50353 -237.5,47.8125 -65.707,-4.2424 -128.7907,-21.55851 -170.375,-46.75 -4.3186,-2.61612 -8.3476,-4.59574 -9.3438,-4.625 z"
       style="fill:#131313;fill-opacity:1" />
  </g>
</svg>
