<?xml version="1.0" encoding="UTF-8" standalone="no"?>
<!-- Created with Inkscape (http://www.inkscape.org/) -->

<svg
   xmlns:dc="http://purl.org/dc/elements/1.1/"
   xmlns:cc="http://creativecommons.org/ns#"
   xmlns:rdf="http://www.w3.org/1999/02/22-rdf-syntax-ns#"
   xmlns:svg="http://www.w3.org/2000/svg"
   xmlns="http://www.w3.org/2000/svg"
   xmlns:sodipodi="http://sodipodi.sourceforge.net/DTD/sodipodi-0.dtd"
   xmlns:inkscape="http://www.inkscape.org/namespaces/inkscape"
   width="291.69012"
   height="114.35944"
   viewBox="0 0 77.176349 30.257602"
   version="1.1"
   id="svg8"
   inkscape:version="0.92.2pre0 650254f, 2017-08-06"
   sodipodi:docname="bhang-redraw.svg"
   inkscape:export-filename="/home/tank/Dropbox/web/htdocs-blk/img/edibles/bhang.png"
   inkscape:export-xdpi="96.760002"
   inkscape:export-ydpi="96.760002">
  <defs
     id="defs2" />
  <sodipodi:namedview
     id="base"
     pagecolor="#ffffff"
     bordercolor="#666666"
     borderopacity="1.0"
     inkscape:pageopacity="0.0"
     inkscape:pageshadow="2"
     inkscape:zoom="2.5472723"
     inkscape:cx="156.60028"
     inkscape:cy="61.591038"
     inkscape:document-units="mm"
     inkscape:current-layer="layer1"
     showgrid="false"
     inkscape:window-width="1920"
     inkscape:window-height="1052"
     inkscape:window-x="-1"
     inkscape:window-y="3"
     inkscape:window-maximized="1"
     inkscape:pagecheckerboard="true"
     inkscape:showpageshadow="false"
     borderlayer="true"
     fit-margin-top="10"
     fit-margin-left="10"
     fit-margin-right="10"
     fit-margin-bottom="10"
     units="px" />
  <metadata
     id="metadata5">
    <rdf:RDF>
      <cc:Work
         rdf:about="">
        <dc:format>image/svg+xml</dc:format>
        <dc:type
           rdf:resource="http://purl.org/dc/dcmitype/StillImage" />
        <dc:title />
      </cc:Work>
    </rdf:RDF>
  </metadata>
  <g
     inkscape:label="Layer 1"
     inkscape:groupmode="layer"
     id="layer1"
     transform="translate(-41.001266,-80.199113)">
    <path
       inkscape:connector-curvature="0"
       id="path42"
       d="m 101.45335,107.76511 c -0.0774,-0.0774 -0.91427,-0.21583 -1.79133,-0.29631 -0.45936,-0.0421 -0.87846,-0.11169 -0.93134,-0.15454 -0.0529,-0.0429 -0.26759,-0.0982 -0.47714,-0.12291 -0.563715,-0.0666 -1.390069,-0.27485 -1.695832,-0.42739 -0.147703,-0.0737 -0.40759,-0.1593 -0.577527,-0.19027 -0.169938,-0.031 -0.41011,-0.12722 -0.533714,-0.2139 -0.123605,-0.0867 -0.256955,-0.15858 -0.296334,-0.15977 -0.101429,-0.003 -0.877416,-0.50546 -1.200029,-0.77692 -0.341252,-0.28714 -0.7118,-1.01468 -0.722384,-1.41834 -0.01665,-0.63514 0.359794,-1.43389 0.957477,-2.03157 0.507481,-0.50748 2.051325,-1.44368 2.380716,-1.44368 0.07556,0 0.206339,-0.0762 0.290623,-0.16933 0.08429,-0.0931 0.252115,-0.17068 0.372956,-0.17233 0.120841,-0.002 0.314961,-0.0575 0.431378,-0.124 0.116416,-0.06655 0.312086,-0.122354 0.43482,-0.124003 0.12274,-0.0017 0.33229,-0.05992 0.46567,-0.129479 0.13338,-0.06956 0.3859,-0.126713 0.56116,-0.127 0.17526,-2.54e-4 0.38481,-0.03526 0.46567,-0.07771 0.44154,-0.231832 1.23747,-0.303672 3.32201,-0.29984 1.83507,0.0034 2.23522,0.02703 2.667,0.157679 0.2794,0.08454 0.61106,0.172553 0.73703,0.195582 0.12596,0.02303 0.28993,0.134817 0.36436,0.248417 0.12785,0.195124 0.12455,0.215534 -0.0597,0.369134 -0.23577,0.19655 -0.56454,0.2084 -1.11865,0.0403 -0.59384,-0.18015 -4.0428,-0.17948 -4.73539,9.1e-4 -0.26817,0.0699 -0.59778,0.127 -0.73246,0.127 -0.13468,0 -0.26706,0.0359 -0.29417,0.0798 -0.0271,0.0439 -0.22939,0.10584 -0.4495,0.13768 -0.22011,0.0319 -0.43829,0.0842 -0.48486,0.11642 -0.0466,0.0322 -0.31327,0.13081 -0.59267,0.21916 -0.279397,0.0884 -0.609129,0.22867 -0.732734,0.31181 -0.123604,0.0832 -0.264572,0.15117 -0.313259,0.15117 -0.326101,0 -2.21367,1.48044 -2.21367,1.73619 0,0.0642 -0.08137,0.25469 -0.180814,0.42325 -0.161637,0.27396 -0.168371,0.32991 -0.0635,0.52754 0.238166,0.44884 0.72666,0.866 1.407602,1.20206 0.383693,0.18936 0.767061,0.34429 0.851931,0.34429 0.08487,0 0.312024,0.0762 0.504787,0.16934 0.192764,0.0931 0.457096,0.171 0.587407,0.17305 0.1303,0.002 0.38932,0.0586 0.57559,0.12572 0.18626,0.0671 0.51011,0.12314 0.71966,0.12452 0.20955,0.001 0.55245,0.0627 0.762,0.13617 0.5686,0.19948 6.63158,0.20012 7.19667,7.6e-4 0.20955,-0.0739 0.55732,-0.13497 0.77283,-0.13565 0.2155,-6.7e-4 0.5286,-0.0584 0.69578,-0.12823 0.16717,-0.0699 0.41989,-0.127 0.56159,-0.127 0.14171,0 0.41915,-0.0734 0.61656,-0.16307 0.1974,-0.0897 0.52083,-0.18828 0.71874,-0.21911 0.19791,-0.0308 0.35983,-0.0847 0.35983,-0.11971 0,-0.035 0.16193,-0.11106 0.35984,-0.16897 0.49295,-0.14426 1.48773,-0.64309 1.87019,-0.93781 0.42535,-0.32776 0.73331,-0.61739 0.73331,-0.68964 0,-0.0437 0.0762,-0.16123 0.16933,-0.26119 0.26466,-0.28408 0.25982,-1.26308 -0.008,-1.55229 -0.0889,-0.0961 -0.16166,-0.21266 -0.16166,-0.25893 0,-0.0463 -0.15493,-0.19622 -0.34428,-0.33321 -0.18936,-0.137 -0.38938,-0.28862 -0.4445,-0.33696 -0.15983,-0.14015 -0.84248,-0.43412 -1.53956,-0.66298 -0.3069,-0.10076 -0.7326,-0.13887 -1.54782,-0.13857 -1.22486,4.3e-4 -1.35462,0.054 -1.09406,0.4517 0.0706,0.10778 0.17557,0.35342 0.23323,0.54585 0.0903,0.30143 0.0853,0.37971 -0.0364,0.56538 -0.18992,0.28985 -0.53011,0.28054 -0.95339,-0.0261 -0.4708,-0.34104 -0.61894,-0.60987 -0.67109,-1.21774 -0.0463,-0.539509 -0.16327,-1.071553 -0.3028,-1.377022 -0.0425,-0.09313 -0.10487,-0.778933 -0.13852,-1.524 l -0.0612,-1.354667 -0.29633,0.02108 c -0.16298,0.01159 -0.52787,0.04322 -0.81085,0.07028 -0.42448,0.04059 -0.56939,0.01838 -0.82808,-0.126912 -0.17245,-0.09686 -0.36262,-0.176115 -0.42259,-0.176115 -0.21084,0 -0.78633,-0.522937 -0.96113,-0.873366 -0.39114,-0.784145 -0.39742,-0.806304 -0.29327,-1.034895 0.0542,-0.119006 0.0998,-0.300306 0.10128,-0.40289 0.001,-0.102583 0.0586,-0.260473 0.127,-0.350865 0.0684,-0.09039 0.12431,-0.227741 0.12431,-0.305218 0,-0.155173 0.86279,-1.0121 1.01902,-1.0121 0.0538,0 0.21216,-0.08141 0.35189,-0.180904 0.22055,-0.157044 0.37303,-0.181245 1.15607,-0.183484 0.87031,-0.0025 0.92434,0.0084 1.53702,0.30911 0.92041,0.451786 1.03166,0.563522 0.99987,1.004264 -0.0248,0.344344 -0.0411,0.364772 -0.31064,0.39057 -0.18706,0.0179 -0.34647,-0.02679 -0.46566,-0.130541 -0.23659,-0.205946 -0.6667,-0.394899 -1.21841,-0.535269 -0.37035,-0.09423 -0.51786,-0.09429 -0.8843,-3.38e-4 -0.48019,0.123069 -0.5288,0.153146 -0.98803,0.611391 -0.39528,0.394435 -0.54225,0.882703 -0.36878,1.225171 0.24058,0.474938 0.39755,0.534246 1.41561,0.534887 0.51224,3.38e-4 0.98144,-0.03119 1.04268,-0.07002 0.0612,-0.03884 0.23565,-0.314477 0.38756,-0.612537 0.22584,-0.443109 0.3184,-0.546904 0.50761,-0.569213 0.37272,-0.04395 0.47515,0.110184 0.47515,0.714984 0,0.296982 -0.0288,0.539967 -0.064,0.539967 -0.24488,0 -0.41908,1.809469 -0.29667,3.081586 0.0558,0.579705 0.0931,0.690043 0.28103,0.829977 0.20634,0.153688 0.23618,0.154773 0.6251,0.02273 0.26184,-0.0889 0.56389,-0.12411 0.84164,-0.09812 0.57835,0.05412 2.24738,0.378386 2.4864,0.483062 0.10478,0.04588 0.27623,0.115497 0.381,0.154693 1.09664,0.410255 2.22524,1.306364 2.58732,2.054304 0.22762,0.47021 0.26154,1.61914 0.0558,1.89111 -0.0684,0.0904 -0.1243,0.22938 -0.1243,0.30889 0,0.14372 -1.14137,1.43173 -1.26872,1.43173 -0.0367,0 -0.29488,0.1524 -0.57381,0.33867 -0.27894,0.18626 -0.54998,0.33866 -0.60232,0.33866 -0.0523,0 -0.0952,0.0381 -0.0952,0.0847 0,0.0466 -0.0476,0.0855 -0.10584,0.0865 -0.0582,10e-4 -0.27728,0.0842 -0.48683,0.18478 -0.20955,0.10061 -0.55245,0.22835 -0.762,0.28387 -0.20955,0.0555 -0.55245,0.16011 -0.762,0.23242 -0.6903,0.23819 -1.32329,0.39773 -1.57801,0.39773 -0.13793,0 -0.28903,0.0382 -0.33576,0.085 -0.0467,0.0467 -0.44488,0.11903 -0.88477,0.16064 -0.43989,0.0416 -1.06648,0.13673 -1.39243,0.21136 -0.46078,0.10551 -1.07457,0.1357 -2.75872,0.1357 -1.19135,0 -2.18667,-0.0206 -2.21183,-0.0457 z m -49.575978,-2.73269 c -0.400367,-0.25071 -0.46747,-0.51544 -0.20885,-0.82396 0.24649,-0.29405 1.480821,-0.86223 2.579516,-1.18738 0.267758,-0.0792 0.486833,-0.17201 0.486833,-0.20614 0,-0.0341 0.179727,-0.0823 0.399392,-0.10708 0.219664,-0.0248 0.413339,-0.0869 0.430388,-0.13802 0.01705,-0.0511 0.118718,-0.093 0.225932,-0.093 0.107212,0 0.304062,-0.0569 0.437444,-0.12648 0.133381,-0.0696 0.309601,-0.12671 0.391601,-0.127 0.082,-2.5e-4 0.310598,-0.071 0.508,-0.15723 0.1974,-0.0862 0.53036,-0.20211 0.73991,-0.25758 0.20955,-0.0555 0.5715,-0.15595 0.804333,-0.22328 0.618925,-0.17898 0.938891,-0.16037 1.095866,0.0637 0.355169,0.50708 -0.05654,0.93767 -1.095866,1.14614 -0.797001,0.15987 -1.439331,0.36465 -1.533333,0.48884 -0.05654,0.0747 -0.236497,0.12418 -0.451556,0.12418 -0.249339,0 -0.346354,0.032 -0.320545,0.10584 0.0213,0.0609 0.159065,0.0996 0.324556,0.0913 0.484121,-0.0245 1.622969,-0.18042 1.980878,-0.27114 0.186267,-0.0472 0.603464,-0.14612 0.927105,-0.21981 0.32364,-0.0737 0.700969,-0.1901 0.838508,-0.25872 0.137538,-0.0686 0.368041,-0.12498 0.512229,-0.12527 0.144187,-2.6e-4 0.371288,-0.0574 0.50467,-0.127 0.133381,-0.0696 0.310001,-0.12648 0.392488,-0.12648 0.08249,0 0.259107,-0.0569 0.392489,-0.12648 0.133381,-0.0696 0.310704,-0.12671 0.394051,-0.127 0.08335,-2.5e-4 0.292897,-0.0721 0.465667,-0.15952 0.17277,-0.0875 0.436318,-0.18537 0.585664,-0.2176 0.149346,-0.0322 0.416046,-0.12765 0.592667,-0.21206 0.176621,-0.0844 0.451901,-0.18154 0.611735,-0.21585 0.159833,-0.0343 0.407483,-0.12775 0.550334,-0.20763 0.142849,-0.0799 0.365516,-0.17156 0.494814,-0.20373 0.129298,-0.0322 0.441182,-0.15276 0.693075,-0.26798 0.251893,-0.11522 0.508053,-0.21034 0.569245,-0.21137 0.06119,-0.001 0.206509,-0.0764 0.322926,-0.16745 0.116416,-0.0911 0.29467,-0.16642 0.396119,-0.16745 0.101449,-10e-4 0.241602,-0.059 0.311452,-0.12888 0.06985,-0.06985 0.168338,-0.127004 0.218863,-0.127004 0.05052,0 0.158021,-0.03616 0.238881,-0.08036 0.08086,-0.0442 0.413718,-0.199794 0.739685,-0.345772 0.955763,-0.428018 1.338537,-0.604205 1.608666,-0.740452 0.1397,-0.07046 0.581561,-0.292621 0.981914,-0.493689 0.400352,-0.201068 0.776493,-0.424112 0.835867,-0.495654 0.05937,-0.07154 0.164085,-0.130075 0.232689,-0.130075 0.141431,0 0.64418,-0.263294 0.687085,-0.359833 0.01552,-0.03493 0.07612,-0.0635 0.134653,-0.0635 0.05854,0 0.423394,-0.1905 0.810792,-0.423333 0.387398,-0.232834 0.722728,-0.423334 0.745177,-0.423334 0.02245,0 0.372919,-0.20955 0.778823,-0.465666 0.405904,-0.256117 0.781505,-0.465667 0.83467,-0.465667 0.05317,0 0.09666,-0.03376 0.09666,-0.07502 0,-0.04126 0.140417,-0.141651 0.312039,-0.223091 0.420985,-0.199771 1.360255,-0.87191 2.19408,-1.57008 0.723361,-0.605676 1.005887,-1.030609 0.918012,-1.380731 -0.09274,-0.369501 -0.589112,-0.709011 -1.246959,-0.852894 -0.390445,-0.0854 -0.542076,-0.782946 -0.248897,-1.145006 0.159592,-0.197088 0.114534,-0.20189 0.823392,0.08777 0.09313,0.03806 0.302683,0.09351 0.465666,0.123232 0.404293,0.07372 1.251693,0.494708 1.592501,0.791145 0.235683,0.205 0.28783,0.317947 0.328435,0.711371 0.06439,0.623831 -0.02774,1.182609 -0.230932,1.40071 -0.0913,0.098 -0.166004,0.212238 -0.166004,0.253858 0,0.07605 -1.423405,1.540073 -1.497343,1.540073 -0.02173,0 -0.27426,0.180975 -0.561166,0.402167 -0.83942,0.647156 -1.019653,0.773508 -1.243115,0.871481 -0.11621,0.05095 -0.32576,0.178928 -0.465667,0.284394 -0.21283,0.160439 -0.857424,0.546681 -1.503208,0.900727 -0.08149,0.04468 -0.214842,0.120437 -0.296334,0.168356 -0.08149,0.04792 -0.214841,0.109512 -0.296333,0.136875 -0.08149,0.02736 -0.148167,0.07928 -0.148167,0.115363 0,0.03609 -0.104775,0.09162 -0.232833,0.123402 -0.128058,0.03178 -0.309033,0.126785 -0.402167,0.211113 -0.09313,0.08433 -0.264583,0.181754 -0.381,0.216499 -0.116416,0.03475 -0.312798,0.134374 -0.436403,0.221398 -0.123605,0.08702 -0.258342,0.158225 -0.299416,0.158225 -0.04107,0 -0.492393,0.209474 -1.00293,0.465498 -0.510538,0.256024 -0.966351,0.466421 -1.012917,0.467549 -0.04657,0.0011 -0.179917,0.07656 -0.296334,0.167615 -0.116416,0.0911 -0.272667,0.16642 -0.347223,0.16745 -0.07456,0.001 -0.303155,0.0896 -0.508,0.19678 -0.204844,0.10718 -0.562943,0.26459 -0.795776,0.3498 -0.232834,0.0852 -0.459529,0.188 -0.503767,0.22844 -0.04424,0.0404 -0.142556,0.0735 -0.218484,0.0735 -0.07593,0 -0.325483,0.0951 -0.554567,0.21131 -0.229083,0.11622 -0.475909,0.21147 -0.5485,0.21167 -0.07259,1.6e-4 -0.205942,0.0563 -0.296333,0.12466 -0.09039,0.0684 -0.240549,0.12673 -0.333683,0.12969 -0.09313,0.003 -0.24329,0.0613 -0.333682,0.12969 -0.09039,0.0684 -0.232108,0.12431 -0.314924,0.12431 -0.08282,0 -0.286244,0.0762 -0.45206,0.16933 -0.165817,0.0931 -0.361242,0.16934 -0.43428,0.16934 -0.07304,0 -0.252854,0.0546 -0.399591,0.12129 -0.349129,0.15872 -1.047864,0.38671 -1.185185,0.38671 -0.05948,0 -0.265855,0.0762 -0.458618,0.16933 -0.192764,0.0931 -0.418996,0.16914 -0.502736,0.16891 -0.163071,-4.2e-4 -0.901266,0.22519 -1.148941,0.35119 -0.08251,0.042 -0.33016,0.099 -0.550333,0.12676 -0.220174,0.0277 -0.526319,0.12215 -0.680322,0.20979 -0.154004,0.0876 -0.412402,0.15935 -0.57422,0.15935 -0.161817,0 -0.430992,0.0572 -0.598166,0.127 -0.167176,0.0698 -0.425031,0.127 -0.573014,0.127 -0.147984,0 -0.3054,0.0363 -0.349817,0.0808 -0.04442,0.0444 -0.34731,0.11846 -0.6731,0.16456 -0.325788,0.0461 -1.011444,0.16027 -1.523677,0.25374 -0.512233,0.0935 -1.159933,0.17232 -1.439333,0.17523 -0.2794,0.003 -0.9271,0.0805 -1.439333,0.17238 -1.280274,0.22968 -1.769653,0.21446 -2.2225,-0.0691 z m 33.054893,-4.15702 c -0.947427,-0.49837 -1.506127,-1.083351 -2.024561,-2.119775 -0.128059,-0.256007 -0.232834,-0.51558 -0.232834,-0.57683 0,-0.149474 -0.301446,-0.732633 -0.461391,-0.892578 -0.07056,-0.07056 -0.202487,-0.108895 -0.293164,-0.08518 -0.191359,0.05004 -0.938778,0.968231 -0.938778,1.15327 0,0.0688 -0.05311,0.14547 -0.11801,0.170377 -0.06491,0.02491 -0.205009,0.219483 -0.311341,0.432392 -0.106332,0.212908 -0.22211,0.387107 -0.257285,0.387107 -0.03517,0 -0.0862,0.07009 -0.113386,0.155749 -0.112345,0.353969 -1.30606,1.368248 -1.610303,1.368248 -0.466094,0 -0.897874,-1.074426 -0.955498,-2.377634 l -0.03213,-0.726635 0.473004,-0.325771 c 0.60483,-0.416562 0.665783,-0.360925 0.722584,0.659561 0.05353,0.961822 0.170102,1.037104 0.625137,0.403729 0.168975,-0.235201 0.307228,-0.44714 0.307228,-0.470973 0,-0.05755 0.699862,-0.931462 1.069494,-1.335471 0.452151,-0.494203 1.08535,-0.852601 1.396417,-0.790388 0.376826,0.07537 0.905858,0.482712 0.964484,0.742639 0.0278,0.12323 0.124576,0.291059 0.215071,0.372956 0.09049,0.0819 0.164534,0.230964 0.164534,0.331263 0,0.100299 0.05594,0.256319 0.124308,0.346711 0.06837,0.09039 0.125518,0.214827 0.127,0.276523 0.0045,0.188311 0.727177,1.227513 1.030042,1.481231 0.15674,0.131306 0.504058,0.390578 0.771817,0.576159 0.397981,0.27584 0.486833,0.38104 0.486833,0.57639 0,0.50555 -0.466174,0.61574 -1.129272,0.26693 z m -22.774671,-0.0219 c -0.315829,-0.23548 -0.903389,-1.58993 -0.903389,-2.082506 0,-0.0932 -0.05692,-0.278588 -0.126479,-0.411969 -0.06956,-0.133382 -0.126713,-0.365416 -0.127,-0.515632 -2.54e-4,-0.150217 -0.07658,-0.397867 -0.169538,-0.550334 -0.102235,-0.16768 -0.169349,-0.427753 -0.169855,-0.658213 -4.23e-4,-0.20955 -0.05775,-0.49013 -0.127317,-0.623511 -0.06956,-0.133382 -0.126478,-0.372023 -0.126478,-0.530316 0,-0.158292 -0.03192,-0.353962 -0.07093,-0.434822 -0.03901,-0.08086 -0.126048,-0.261048 -0.193411,-0.400418 -0.154087,-0.318805 -0.344233,-0.357421 -0.658402,-0.133713 -0.135516,0.0965 -0.302446,0.175447 -0.370955,0.175447 -0.06851,0 -0.329327,0.09033 -0.579596,0.200733 -0.25027,0.110403 -0.587135,0.229548 -0.74859,0.264766 -0.161454,0.03522 -0.351954,0.09284 -0.423333,0.128055 -0.240208,0.118499 -0.550234,0.228558 -1.061112,0.37669 -0.2794,0.08101 -0.573012,0.180886 -0.652469,0.221935 -0.07946,0.04105 -0.308058,0.100352 -0.508,0.131782 -0.199942,0.03143 -0.528615,0.127397 -0.730384,0.213259 -0.522254,0.222244 -1.35903,0.212445 -1.653729,-0.01936 -0.180434,-0.141929 -0.223085,-0.246491 -0.223085,-0.546907 0,-0.564109 0.202821,-0.713416 2.243667,-1.651674 0.186266,-0.08563 0.472016,-0.181452 0.635,-0.21293 0.162983,-0.03148 0.334433,-0.08407 0.381,-0.11687 0.04657,-0.0328 0.256116,-0.108542 0.465666,-0.168312 0.20955,-0.05977 0.534674,-0.161882 0.722497,-0.226917 0.187824,-0.06503 0.402544,-0.118245 0.477156,-0.118245 0.07461,0 0.244788,-0.05691 0.378169,-0.126478 0.133381,-0.06956 0.356812,-0.127561 0.496512,-0.128883 0.1397,-0.0013 0.34925,-0.07691 0.465666,-0.167972 0.116417,-0.09106 0.334152,-0.166415 0.483855,-0.167451 0.390997,-0.0027 0.486186,-0.221853 0.353634,-0.814156 -0.05729,-0.256001 -0.135812,-0.485016 -0.174493,-0.508921 -0.03868,-0.02391 -0.07056,-0.260293 -0.07085,-0.525303 -2.54e-4,-0.26501 -0.05744,-0.590966 -0.127,-0.724348 -0.06956,-0.133381 -0.126478,-0.39306 -0.126478,-0.577066 0,-0.184005 -0.0378,-0.405191 -0.08401,-0.491526 -0.0462,-0.08633 -0.123615,-0.436254 -0.172024,-0.7776 -0.113332,-0.799146 -0.324745,-1.219978 -0.600305,-1.19495 -0.541123,0.04915 -1.43846,0.188764 -1.514243,0.235602 -0.04687,0.02896 -0.285132,0.0899 -0.529482,0.135405 -1.639729,0.305392 -3.82547,0.802789 -4.051327,0.921939 -0.07465,0.03938 -0.322297,0.09704 -0.550333,0.128139 -0.228035,0.0311 -0.54796,0.117731 -0.710943,0.192522 -0.162984,0.07479 -0.467784,0.161523 -0.677334,0.192736 -0.474768,0.07072 -1.18183,0.246606 -1.368445,0.340416 -0.07743,0.03892 -0.335459,0.09659 -0.573401,0.128159 -0.237941,0.03156 -0.453064,0.09047 -0.478051,0.130896 -0.02499,0.04043 -0.168911,0.07351 -0.319833,0.07351 -0.150921,0 -0.312137,0.03773 -0.358257,0.08385 -0.04612,0.04612 -0.272815,0.108828 -0.503767,0.139351 -0.230952,0.03052 -0.521044,0.126139 -0.644649,0.212479 -0.123605,0.08634 -0.359009,0.156982 -0.523119,0.156982 -0.16411,0 -0.355532,0.05715 -0.425382,0.127 -0.157191,0.157192 -1.156295,0.176601 -1.307495,0.0254 -0.1326,-0.132599 -0.130208,-0.447038 0.0042,-0.556511 0.255104,-0.207729 0.917119,-0.527383 1.095793,-0.529105 0.107456,-0.001 0.290624,-0.07639 0.40704,-0.16745 0.117959,-0.09227 0.345065,-0.166402 0.512984,-0.167451 0.165725,-10e-4 0.375275,-0.05782 0.465667,-0.12619 0.09039,-0.06837 0.245719,-0.125519 0.345171,-0.127 0.09945,-0.0015 0.289952,-0.05961 0.423333,-0.129171 0.133382,-0.06956 0.330077,-0.126713 0.437102,-0.127 0.107024,-2.54e-4 0.352305,-0.07672 0.545069,-0.169855 0.192764,-0.09313 0.418192,-0.169333 0.500951,-0.169333 0.149821,0 0.807633,-0.19579 1.130056,-0.336348 0.09313,-0.0406 0.332923,-0.09655 0.532864,-0.124328 0.199943,-0.02778 0.428543,-0.08375 0.508,-0.12438 0.151148,-0.07729 0.765897,-0.254828 1.520303,-0.439068 0.244475,-0.0597 0.4445,-0.139453 0.4445,-0.177216 0,-0.03776 0.115252,-0.06866 0.256115,-0.06866 0.140863,0 0.474238,-0.07953 0.740833,-0.176737 0.266595,-0.09721 0.541869,-0.189188 0.611718,-0.204406 0.06985,-0.01522 0.45085,-0.09451 0.846667,-0.176206 0.395817,-0.08169 0.757767,-0.175968 0.804333,-0.209496 0.04657,-0.03353 0.322861,-0.088 0.613985,-0.121056 0.291126,-0.03305 0.55055,-0.09445 0.576497,-0.136431 0.02595,-0.04198 0.23327,-0.07634 0.460714,-0.07634 0.572965,0 0.681737,-0.166292 0.616643,-0.942729 -0.04088,-0.487603 -0.02393,-0.610538 0.103599,-0.751456 0.08386,-0.09266 0.235914,-0.168482 0.337896,-0.168482 0.287403,0 0.491145,0.305018 0.726009,1.086896 0.108336,0.36066 0.115703,0.366274 0.411817,0.313814 0.165829,-0.02938 0.68765,-0.08546 1.159604,-0.124616 0.471954,-0.03916 0.986304,-0.110287 1.143,-0.158058 0.27432,-0.08363 2.995768,-0.220296 4.306569,-0.216268 1.567264,0.0048 3.615334,0.134578 3.917547,0.248209 0.175568,0.06601 0.483987,0.120023 0.685378,0.120023 0.258638,0 0.411165,0.04973 0.519408,0.169334 0.08428,0.09313 0.217614,0.169333 0.296287,0.169333 0.07867,0 0.253743,0.0952 0.389044,0.211563 0.135302,0.11636 0.267521,0.21161 0.293822,0.211667 0.0922,1.69e-4 0.333173,0.600823 0.332387,0.828476 -9.4e-4,0.271675 -0.390547,0.980306 -0.71946,1.308578 -0.425403,0.424572 -1.346842,1.137596 -1.946746,1.506423 -0.325967,0.200407 -0.671322,0.434183 -0.767457,0.519502 -0.09614,0.08532 -0.23901,0.155124 -0.3175,0.155124 -0.08581,0 -0.14271,0.06687 -0.14271,0.167721 0,0.228115 0.315058,0.294961 0.820499,0.174086 0.944788,-0.225943 1.8769,-0.331444 3.793834,-0.429406 2.348667,-0.120025 3.400391,-0.09568 3.509731,0.08123 0.148052,0.239554 0.193023,0.869568 0.0708,0.991796 -0.126218,0.126218 -1.079623,0.236236 -3.157192,0.364326 -1.316099,0.08114 -2.351652,0.206851 -4.233333,0.513895 -0.605367,0.09878 -1.405467,0.219042 -1.778,0.267246 -0.372534,0.04821 -0.753534,0.11713 -0.846667,0.153167 -0.09313,0.03604 -0.275901,0.108366 -0.40615,0.160731 -0.13025,0.05236 -0.381369,0.09521 -0.558044,0.09521 -0.176675,0 -0.508257,0.05674 -0.73685,0.126084 -0.228592,0.06935 -0.537199,0.126496 -0.685792,0.127 -0.148594,5.08e-4 -0.291401,0.03527 -0.317349,0.07725 -0.02595,0.04198 -0.275915,0.102884 -0.555482,0.135331 -0.279566,0.03245 -0.529534,0.09335 -0.555481,0.135331 -0.02595,0.04198 -0.156982,0.07634 -0.291185,0.07634 -0.134204,0 -0.265505,0.03478 -0.29178,0.0773 -0.02628,0.04251 -0.207867,0.104347 -0.403536,0.137405 -0.195669,0.03306 -0.501701,0.156685 -0.680074,0.274726 -0.316114,0.209194 -0.322958,0.224449 -0.270746,0.603428 0.02946,0.213845 0.107095,0.576699 0.172518,0.806342 0.06542,0.229644 0.118951,0.526759 0.118951,0.660257 0,0.133497 0.0762,0.400439 0.169334,0.593203 0.09313,0.192763 0.169333,0.512205 0.169333,0.70987 0,0.290774 0.03396,0.37017 0.177856,0.415841 0.09782,0.03105 0.219741,0.01457 0.270933,-0.03663 0.05119,-0.05119 0.171183,-0.09181 0.266644,-0.09026 0.179917,0.0029 0.554173,0.267052 0.555088,0.391755 2.54e-4,0.0391 0.06434,0.185395 0.142339,0.325095 0.228251,0.408806 0.207904,1.748039 -0.03431,2.258125 -0.311427,0.65586 -0.699076,0.81693 -1.152495,0.47886 z m -0.330716,-8.959987 c 0.192764,-0.09313 0.427189,-0.169333 0.520945,-0.169333 0.190664,0 0.901486,-0.215147 1.127733,-0.341335 0.08086,-0.0451 0.227501,-0.082 0.325871,-0.082 0.09837,0 0.298911,-0.0538 0.445648,-0.119555 0.146738,-0.06575 0.495396,-0.201991 0.774796,-0.302747 0.62173,-0.224204 0.972967,-0.371768 1.525342,-0.640834 0.233572,-0.113775 0.455902,-0.206864 0.494069,-0.206864 0.142987,0 1.43373,-0.680638 2.295193,-1.210306 0.350942,-0.215776 1.370659,-1.113106 1.633229,-1.437208 0.167094,-0.206251 0.275167,-0.434729 0.275167,-0.581734 0,-0.258145 -0.257246,-0.580752 -0.463091,-0.580752 -0.06843,0 -0.260093,-0.0762 -0.425909,-0.169333 -0.284932,-0.160037 -0.455897,-0.169198 -3.114076,-0.166868 -2.519815,0.0022 -2.874284,0.01958 -3.405257,0.166868 -0.373912,0.103721 -0.867114,0.165313 -1.33622,0.166868 -0.46412,0.0015 -0.85778,0.05019 -1.047506,0.129465 -0.167175,0.06985 -0.537426,0.128212 -0.82278,0.129693 -0.296546,0.0015 -0.582306,0.05088 -0.666994,0.115168 -0.185903,0.141119 -0.193634,0.603338 -0.02117,1.265482 0.06985,0.268172 0.127,0.611456 0.127,0.762855 0,0.151398 0.03671,0.311977 0.08157,0.356842 0.04487,0.04487 0.104985,0.309661 0.133598,0.588433 0.04838,0.471385 0.114857,0.70794 0.302707,1.077212 0.04113,0.08086 0.07479,0.332896 0.07479,0.560082 0,0.784649 0.435546,1.042499 1.16534,0.6899 z m 25.885659,8.156147 c -0.09313,-0.0203 -0.245533,-0.06992 -0.338667,-0.110317 -0.09313,-0.04039 -0.294957,-0.09499 -0.448497,-0.121318 -0.295389,-0.05066 -0.880206,-0.415908 -1.155393,-0.721601 -0.383413,-0.425918 -0.497136,-1.369632 -0.254457,-2.111582 0.183186,-0.560057 1.456272,-1.869993 1.820247,-1.872935 0.07218,-5.92e-4 0.175729,-0.04556 0.230114,-0.09994 0.133944,-0.133945 0.626157,-0.30972 1.289653,-0.460552 0.302683,-0.06881 0.616491,-0.161586 0.697351,-0.206171 0.246064,-0.135676 2.790378,-0.102 3.078474,0.04075 0.135212,0.06699 0.348624,0.160545 0.474247,0.207888 0.125623,0.04734 0.293359,0.185208 0.372746,0.306369 0.137543,0.209917 0.13636,0.231029 -0.02511,0.448279 -0.207967,0.279806 -0.492919,0.321675 -1.068363,0.15698 -1.144253,-0.327493 -1.682182,-0.32138 -3.057008,0.03474 -1.62883,0.421914 -3.103337,2.079267 -2.471258,2.777706 0.0831,0.09182 0.361718,0.269998 0.619161,0.395953 0.410469,0.200824 0.531543,0.222377 0.983714,0.175115 0.283599,-0.02964 0.553497,-0.09176 0.599774,-0.138034 0.04628,-0.04628 0.210388,-0.08414 0.364689,-0.08414 0.154302,0 0.346707,-0.03625 0.427567,-0.08057 0.08086,-0.04431 0.299418,-0.14764 0.485684,-0.229621 0.186267,-0.08198 0.389013,-0.198126 0.450548,-0.258101 0.06153,-0.05998 0.157145,-0.109046 0.212467,-0.109046 0.05532,0 0.148174,-0.0762 0.206337,-0.169333 0.05816,-0.09313 0.143102,-0.169334 0.188754,-0.169334 0.04565,0 0.302504,-0.166163 0.570782,-0.36925 0.268278,-0.203089 0.604854,-0.429177 0.747945,-0.502418 0.143092,-0.07324 0.309682,-0.192829 0.370201,-0.265749 0.08236,-0.09924 0.272466,-0.132437 0.755833,-0.132004 l 0.6458,5.92e-4 0.210854,0.309532 c 0.47891,0.703037 0.677056,2.132727 0.353815,2.552888 -0.121261,0.157619 -0.216844,0.191179 -0.482291,0.169334 -0.357677,-0.02943 -0.436134,-0.127795 -0.629544,-0.789244 -0.162204,-0.554727 -0.271318,-0.719667 -0.476086,-0.719667 -0.104666,0 -0.203003,0.03052 -0.218526,0.06783 -0.07295,0.175318 -1.563711,1.146357 -2.187222,1.424691 -0.162983,0.07276 -0.417045,0.188667 -0.564582,0.257581 -0.147537,0.06891 -0.471387,0.158345 -0.719666,0.198736 -0.24828,0.04039 -0.622869,0.112069 -0.832419,0.159283 -0.38767,0.0873 -0.921783,0.10331 -1.227666,0.0367 z m 8.560908,-0.89598 c -0.07451,-0.116989 -0.157805,-0.639875 -0.215855,-1.355038 -0.05199,-0.640496 -0.13162,-1.2621 -0.176957,-1.381345 -0.04534,-0.119245 -0.0841,-0.395302 -0.08615,-0.613462 -0.002,-0.21816 -0.05862,-0.549055 -0.125726,-0.735322 -0.0671,-0.186267 -0.122582,-0.405859 -0.123283,-0.487982 -6.77e-4,-0.08212 -0.03693,-0.215474 -0.0805,-0.296334 -0.213587,-0.396376 -0.344112,-0.74113 -0.344112,-0.908903 0,-0.382168 0.541372,-0.605603 0.872135,-0.359948 0.152895,0.113554 0.482532,0.712024 0.482532,0.876057 0,0.05468 0.05691,0.20855 0.126478,0.341932 0.06956,0.133381 0.126713,0.398532 0.127,0.589222 3.39e-4,0.231013 0.05351,0.394666 0.159314,0.490417 0.150886,0.136549 0.169856,0.130556 0.381,-0.120374 0.122214,-0.145244 0.222207,-0.303676 0.222207,-0.352073 0,-0.115325 0.575782,-0.902032 0.846472,-1.156554 0.27226,-0.255995 0.78974,-0.52046 1.01839,-0.52046 0.0981,0 0.25109,-0.03897 0.34009,-0.0866 0.10517,-0.05629 0.21436,-0.05808 0.31193,-0.0051 0.0826,0.04482 0.25321,0.103143 0.37922,0.129612 0.33344,0.07004 1.39523,1.140168 2.39862,2.417437 0.63262,0.805303 1.54879,1.445684 2.26007,1.579731 0.38645,0.07283 0.57321,0.261567 0.57321,0.579269 0,0.535177 -0.4152,0.658063 -1.36059,0.402689 -0.77133,-0.208353 -2.02278,-1.300963 -3.23689,-2.826043 -0.76662,-0.962973 -0.98017,-1.125354 -1.40498,-1.068374 -0.29584,0.03968 -0.85554,0.456193 -0.85554,0.636664 0,0.04547 -0.0562,0.12934 -0.12498,0.186387 -0.15483,0.128497 -0.62695,1.1155 -0.694039,1.450933 -0.02724,0.13618 -0.0827,0.268107 -0.123251,0.29317 -0.04055,0.02506 -0.07373,0.136321 -0.07373,0.247241 0,0.11092 -0.03634,0.224132 -0.08075,0.251582 -0.04441,0.02745 -0.106582,0.278201 -0.13815,0.557224 -0.03157,0.279024 -0.09048,0.527762 -0.130913,0.552752 -0.04043,0.02499 -0.07352,0.106266 -0.07352,0.180614 0,0.07435 -0.09719,0.262599 -0.215975,0.418336 -0.265169,0.347654 -0.643563,0.389756 -0.832783,0.09266 z M 77.551688,89.544013 c -0.06605,-4.917686 -0.04109,-6.22484 0.124821,-6.534841 0.07852,-0.146712 0.161588,-0.179233 0.40513,-0.158607 0.259448,0.02197 0.316915,0.06484 0.375286,0.279948 0.03791,0.1397 0.06334,2.586956 0.05651,5.438347 l -0.01242,5.184346 -0.220241,0.148188 c -0.220309,0.148234 -0.600665,0.362786 -0.643142,0.362786 -0.0124,0 -0.05108,-2.124075 -0.08595,-4.720167 z"
       style="fill:#040404;stroke-width:0.08466666"
       sodipodi:nodetypes="cccccccccccscccccccccccsccscccccsscccsccccccccsccsccsccscccccccccccccccsccccssccccccccccccccssccccccccsscssccccscccscccscsccsccccccccscccccccsccccccccsccccssccccscscscssscccccccccssscccccsccccssccccccscccccscscscccccscscscccccccsscsccscsscccssscccsccccsccscccccssccscccccsccscccscsccccccccsccccccccccccsscsscccccccccccsccccssccccccsccsccccccscsccccccsssscccccccscccccscccccscscccccccccscscccsscssccccccccscccsccccccccccscccccscsccscccscscccccsccssccccccccccccccsssccccscsccccsscscscccssccscccccccscsscc" />
    <path
       style="fill:#040404;fill-opacity:1;stroke:none;stroke-width:0.09409905;stroke-linecap:round;stroke-linejoin:miter;stroke-miterlimit:4;stroke-dasharray:none;stroke-dashoffset:0.55000001;stroke-opacity:1;paint-order:stroke markers fill"
       d="m 111.20096,91.442055 a 1.3459859,1.3459859 0 0 0 -1.34609,1.345645 1.3459859,1.3459859 0 0 0 1.34609,1.346088 1.3459859,1.3459859 0 0 0 1.34609,-1.346088 1.3459859,1.3459859 0 0 0 -1.34609,-1.345645 z m 0,0.165419 a 1.1803262,1.1803262 0 0 1 1.18023,1.180226 1.1803262,1.1803262 0 0 1 -1.18023,1.180669 1.1803262,1.1803262 0 0 1 -1.18022,-1.180669 1.1803262,1.1803262 0 0 1 1.18022,-1.180226 z"
       id="circle72"
       inkscape:connector-curvature="0" />
    <g
       aria-label="R"
       style="font-style:normal;font-variant:normal;font-weight:bold;font-stretch:normal;font-size:10.58333302px;line-height:1.25;font-family:'Museo Sans Cyrl';-inkscape-font-specification:'Museo Sans Cyrl, Bold';font-variant-ligatures:normal;font-variant-caps:normal;font-variant-numeric:normal;text-align:start;letter-spacing:0px;word-spacing:0px;writing-mode:lr-tb;text-anchor:start;fill:#000000;fill-opacity:1;stroke:none;stroke-width:0.26458332"
       id="text77"
       transform="matrix(0.23511589,0,0,0.26018206,84.082197,69.620091)">
      <path
         d="m 112.8746,92.091779 h 1.49158 v -2.054122 h 0.69891 l 1.08247,2.054122 h 1.66205 l -1.18475,-2.130832 c -0.14489,-0.2557 -0.23013,-0.366504 -0.23013,-0.366504 v -0.01705 c 0.60516,-0.306839 0.912,-1.014276 0.912,-1.662049 0,-0.886426 -0.43469,-1.508629 -1.12508,-1.772853 -0.26422,-0.10228 -0.56254,-0.144896 -1.18474,-0.144896 h -2.12231 z m 1.49158,-3.332622 v -1.483059 h 0.50288 c 0.24717,0 0.42616,0.02557 0.56254,0.08523 0.28127,0.110803 0.35798,0.340933 0.35798,0.647773 0,0.485829 -0.29832,0.750053 -0.77563,0.750053 z"
         style="stroke-width:0.21308324"
         id="path79"
         inkscape:connector-curvature="0" />
    </g>
  </g>
</svg>
