<?xml version="1.0" encoding="UTF-8" standalone="no"?>
<!-- Created with Inkscape (http://www.inkscape.org/) -->

<svg
   xmlns:dc="http://purl.org/dc/elements/1.1/"
   xmlns:cc="http://creativecommons.org/ns#"
   xmlns:rdf="http://www.w3.org/1999/02/22-rdf-syntax-ns#"
   xmlns:svg="http://www.w3.org/2000/svg"
   xmlns="http://www.w3.org/2000/svg"
   xmlns:sodipodi="http://sodipodi.sourceforge.net/DTD/sodipodi-0.dtd"
   xmlns:inkscape="http://www.inkscape.org/namespaces/inkscape"
   id="svg2"
   version="1.1"
   inkscape:version="0.92.2pre0 650254f, 2017-08-06"
   width="600"
   height="600"
   sodipodi:docname="darkheartnursery.svg"
   inkscape:export-filename="/home/tank/Dropbox/web/htdocs-blk/img/clones/darkheartnursery.png"
   inkscape:export-xdpi="128"
   inkscape:export-ydpi="128">
  <metadata
     id="metadata8">
    <rdf:RDF>
      <cc:Work
         rdf:about="">
        <dc:format>image/svg+xml</dc:format>
        <dc:type
           rdf:resource="http://purl.org/dc/dcmitype/StillImage" />
        <dc:title></dc:title>
      </cc:Work>
    </rdf:RDF>
  </metadata>
  <defs
     id="defs6" />
  <sodipodi:namedview
     pagecolor="#000000"
     bordercolor="#4600cc"
     borderopacity="1"
     objecttolerance="10"
     gridtolerance="10"
     guidetolerance="10"
     inkscape:pageopacity="0.44705882"
     inkscape:pageshadow="2"
     inkscape:window-width="1920"
     inkscape:window-height="1052"
     id="namedview4"
     showgrid="false"
     inkscape:zoom="0.86233292"
     inkscape:cx="150.36156"
     inkscape:cy="232.91853"
     inkscape:window-x="-1"
     inkscape:window-y="3"
     inkscape:window-maximized="1"
     inkscape:current-layer="svg2"
     inkscape:pagecheckerboard="true"
     showborder="true"
     borderlayer="true"
     inkscape:showpageshadow="false"
     units="px" />
  <rect
     style="fill:#eeebdb;fill-opacity:1;stroke:none;stroke-width:1.25620723;stroke-linecap:round;stroke-linejoin:miter;stroke-miterlimit:4;stroke-dasharray:none;stroke-dashoffset:0.55000001;stroke-opacity:1;paint-order:stroke markers fill"
     id="rect402"
     width="625"
     height="625"
     x="-12.5"
     y="-12.5" />
  <path
     style="fill:#ad1010;fill-opacity:1;stroke-width:2.32698035"
     d="m 310.97076,558.87704 c -21.27551,-5.97082 -35.13007,-14.65981 -52.55222,-32.95846 -19.50354,-20.48478 -25.48253,-24.09381 -39.91553,-24.09381 -9.17782,0 -12.02581,1.27835 -20.73687,9.30792 -7.8862,7.26925 -11.93459,9.30792 -18.48361,9.30792 h -8.38571 l 16.189,-16.18899 c 14.89206,-14.89207 16.00415,-16.67518 13.88164,-22.2578 -4.75527,-12.50731 -2.83843,-20.94715 7.55862,-33.28058 5.42631,-6.4369 10.28923,-11.2802 10.80654,-10.76289 0.51729,0.51728 -0.87003,6.69684 -3.08297,13.73232 -4.63108,14.72343 -3.40921,24.08667 4.05572,31.07903 4.75998,4.45862 17.74246,10.70176 19.20753,9.23667 0.35677,-0.35677 -0.31999,-5.83367 -1.50391,-12.17087 -2.77029,-14.82864 -0.62358,-31.17986 6.58261,-50.13912 17.48258,-45.99614 16.1734,-63.46497 -7.21241,-96.23723 -20.85302,-29.22291 -47.47841,-42.06919 -84.0952,-40.5745 -17.40219,0.71035 -23.51858,2.06098 -36.17842,7.98891 -25.918576,12.1363 -41.202667,29.44524 -51.248371,58.03778 -5.907342,16.81373 -5.33645,44.09565 1.184542,56.60721 7.374589,14.14935 23.854715,29.50686 38.917849,36.26681 12.48628,5.60351 16.37303,6.26776 31.13175,5.32061 19.97088,-1.28165 36.01431,-9.30768 42.179,-21.10089 8.32133,-15.91887 2.20086,-40.70587 -13.26446,-53.71908 -13.48811,-11.3495 -37.15519,-6.28906 -37.15519,7.94442 0,2.61066 2.15885,8.97835 4.79744,14.15042 3.46274,6.78752 4.34651,11.45535 3.17661,16.7779 -1.53856,6.99979 -1.71987,7.10664 -3.57146,2.10468 -1.07283,-2.89818 -6.1673,-9.2807 -11.32103,-14.18332 -5.28575,-5.02821 -9.37042,-11.09962 -9.37042,-13.92811 0,-3.99899 -1.38722,-5.01427 -6.85117,-5.01427 -14.661812,0 -26.262991,-20.44886 -17.82214,-31.41424 3.493495,-4.53835 3.584324,-4.49919 3.656493,1.57634 0.08512,7.16552 9.597117,15.87601 17.336887,15.87601 2.7502,0 10.72433,-3.7241 17.72029,-8.27576 9.82528,-6.39247 14.64034,-8.10574 21.15887,-7.5286 7.80672,0.69121 8.82365,0.0209 13.57397,-8.93241 6.85236,-12.91684 5.61416,-19.6251 -4.56057,-24.70795 l -8.14443,-4.06859 10.76823,-0.005 c 6.99218,-0.002 11.84137,1.28945 13.82853,3.68384 2.33383,2.81209 5.43206,3.33177 13.05131,2.1892 8.66467,-1.29936 10.76754,-0.72171 15.84046,4.35122 4.08419,4.08418 5.84946,8.38069 5.84946,14.23698 0,4.99914 -0.94005,7.80655 -2.32698,6.94939 -1.27983,-0.79099 -2.32698,-2.78477 -2.32698,-4.43064 0,-4.56451 -7.8758,-10.69371 -13.74236,-10.69371 -2.87731,0 -8.29235,3.06086 -12.03342,6.80195 -10.34266,10.34266 -9.34663,19.58228 3.76714,34.94547 5.813,6.8101 11.9559,15.12463 13.65089,18.47676 13.1505,26.00722 -1.21344,57.81634 -30.23962,66.96603 -11.17768,3.52346 -12.34478,4.56064 -13.74131,12.21176 -2.02164,11.07593 -6.69056,17.95186 -15.16566,22.33449 -8.14782,4.21339 -8.70941,2.94801 -2.30506,-5.19382 5.26684,-6.69572 6.12571,-17.45949 1.68706,-21.14324 -1.63179,-1.35428 -8.69999,-3.19923 -15.70712,-4.09991 -26.972131,-3.46688 -52.578643,-22.64294 -63.888353,-47.84432 -9.699089,-21.61246 -10.80185,-48.50763 -2.917882,-71.16394 5.550969,-15.95197 5.629786,-16.86426 1.568333,-18.15331 -5.209136,-1.65332 -18.475206,-13.75879 -18.475206,-16.85886 0,-1.25603 4.557451,-0.73751 10.387488,1.1818 9.699945,3.19337 11.054306,3.09691 20.461887,-1.45722 5.54092,-2.68231 13.615308,-8.53022 17.943089,-12.99537 l 7.868689,-8.11842 -8.464617,-3.53675 c -4.65554,-1.94519 -12.035749,-6.67222 -16.400468,-10.5045 -7.122773,-6.25388 -8.668882,-6.71225 -15.090409,-4.47369 -5.416945,1.88837 -8.696514,1.74268 -13.503516,-0.59987 -9.086935,-4.42825 -9.768109,-8.91143 -1.354005,-8.91143 11.92022,0 13.736146,-5.27843 6.6406,-19.30253 -11.059351,-21.85807 -6.992132,-47.95811 10.585258,-67.92709 12.593345,-14.30679 22.901047,-19.11403 47.534532,-22.16884 31.32265,-3.88434 42.8689,-13.01313 39.4577,-31.19636 -3.37599,-17.99559 -19.34974,-25.45021 -30.54515,-14.25478 -9.82109,9.82109 -6.32899,19.82042 6.97036,19.95909 6.74397,0.0703 6.87242,0.2441 2.58032,3.49047 -11.0421,8.35184 -26.897251,-0.60776 -26.897251,-15.19937 0,-12.75455 15.702941,-25.596785 31.298671,-25.596785 6.6242,0 8.25999,-0.894212 8.25999,-4.515435 0,-2.552861 5.00486,-8.735624 11.51494,-14.224994 6.33322,-5.340257 11.97103,-11.423658 12.52846,-13.518661 0.55743,-2.095004 1.12962,-0.667681 1.27152,3.171837 0.1419,3.839517 -2.32179,11.169505 -5.47489,16.288862 -7.26564,11.796463 -7.27581,16.904445 -0.0607,30.474206 3.1996,6.01759 5.81745,13.43663 5.81745,16.48672 0,8.03425 -6.29611,21.87576 -13.2558,29.14185 l -6.02799,6.29339 7.20995,8.21166 c 7.36208,8.38494 10.04897,15.61466 14.48359,38.97149 2.06295,10.8654 4.15302,14.71292 11.69271,21.52457 13.31242,12.02698 32.20155,10.68335 37.27136,-2.6512 3.64249,-9.58055 -0.17755,-15.38992 -12.24144,-18.61654 -7.39721,-1.97847 -11.13494,-4.49356 -13.10561,-8.81872 -4.25562,-9.34005 -3.29936,-10.81671 2.95471,-4.56265 3.43478,3.43479 8.3983,5.71169 12.45115,5.71169 16.94119,0 27.6218,9.83896 25.65208,23.63063 -0.56066,3.92557 1.03437,6.59952 5.68465,9.52991 7.49197,4.72107 11.84161,14.37071 9.92317,22.01442 -1.62858,6.48876 -5.90217,7.0713 -5.90217,0.80451 0,-5.22167 -8.26395,-11.76684 -14.85686,-11.76684 -2.4824,0 -9.95441,1.71512 -16.60449,3.81136 -17.69712,5.57854 -27.02313,3.08122 -41.11374,-11.00939 l -11.54122,-11.54121 -7.22771,6.08172 c -5.72076,4.81371 -8.7171,5.76942 -14.37112,4.58387 -18.57838,-3.89557 -24.41043,-3.95496 -29.62615,-0.30171 -11.071212,7.75457 -22.893363,2.90588 -22.893363,-9.38941 0,-3.19576 0.620529,-3.48831 2.792376,-1.31647 4.703023,4.70301 14.633997,3.19497 20.569997,-3.12362 4.69702,-4.99975 5.12024,-6.61663 2.73261,-10.43984 -5.334786,-8.54236 -1.39202,-20.07002 8.71448,-25.47885 3.95271,-2.11541 4.11022,-1.75612 1.85238,4.22559 -3.00943,7.97288 -0.87567,17.54776 5.28298,23.70641 14.56101,14.56101 31.96881,-9.48563 21.48921,-29.68454 -6.3738,-12.28518 -17.23222,-18.05967 -33.54294,-17.83805 -29.36511,0.39896 -50.151624,17.35348 -54.482756,44.4389 -3.437022,21.49395 9.979834,43.66902 34.005312,56.20323 14.865494,7.75538 15.222634,7.81609 34.798964,5.91579 10.87864,-1.05601 29.33177,-1.92032 41.00697,-1.92064 19.96265,-6.1e-4 22.31509,0.53681 39.47642,9.01839 39.58603,19.56449 65.8584,57.59805 69.91156,101.20843 0.8399,9.0369 2.16207,16.4155 2.93816,16.39688 0.7761,-0.0186 5.89617,-1.59617 11.37796,-3.50562 12.18435,-4.24416 24.9386,-2.66416 41.80974,5.17939 14.10262,6.55643 22.6448,18.63637 25.16827,35.59177 2.30722,15.50227 6.7336,21.37062 15.46115,20.49784 7.37979,-0.73801 9.16302,-2.62449 13.87697,-14.68039 l 2.72957,-6.98094 2.24319,12.17416 c 2.55037,13.84134 0.54635,17.95209 -11.14905,22.86963 -5.75099,2.41813 -8.08756,2.32107 -13.67443,-0.56802 -6.63783,-3.43255 -6.88123,-3.32914 -16.33452,6.94141 -8.66542,9.41457 -20.84092,15.53359 -31.00243,15.58085 -1.53466,0.007 -5.58573,3.67798 -9.00236,8.15742 -6.52371,8.55305 -11.90851,9.97576 -20.35629,5.3783 l -5.08273,-2.7661 5.80524,-1.40813 c 3.2732,-0.79396 6.1499,-3.3935 6.5955,-5.96007 0.43463,-2.50355 2.34792,-5.76954 4.25172,-7.25776 2.9974,-2.34308 2.61687,-3.98204 -2.83836,-12.22549 -5.56823,-8.41417 -6.09262,-10.80221 -4.5156,-20.56396 0.98131,-6.07438 1.75508,-13.43864 1.71943,-16.36505 -0.13101,-10.76682 6.10972,-0.41534 7.77232,12.8918 1.70724,13.66412 8.63982,23.84317 16.23877,23.84317 7.90794,0 19.388,-7.53574 22.96569,-15.07511 4.82981,-10.17807 4.56353,-18.79979 -0.95621,-30.96134 -5.66445,-12.48043 -18.47101,-19.0168 -37.25916,-19.0168 -32.64018,0 -51.29558,22.34455 -48.04975,57.55169 2.40021,26.03477 17.26042,50.40153 38.2334,62.6925 9.32721,5.46613 13.97789,6.47669 33.3952,7.2566 20.18694,0.81081 23.86453,0.30195 34.97646,-4.83963 7.06116,-3.26725 17.9383,-11.40702 25.21598,-18.87004 23.00385,-23.58972 32.01515,-48.45423 29.13882,-80.40159 -3.51402,-39.03003 -14.1523,-67.61714 -32.8528,-88.28184 -7.13094,-7.87997 -13.73798,-14.32722 -14.68232,-14.32722 -0.94431,0 -4.06763,5.20131 -6.9407,11.55848 -5.67509,12.55704 -16.61608,23.34622 -23.67472,23.34622 -2.44312,0 -9.16309,-1.26269 -14.93326,-2.80596 -13.32003,-3.56259 -16.93225,-0.93645 -13.2482,9.6316 2.41983,6.94152 2.33343,7.08829 -2.61962,4.45019 -8.85472,-4.71623 -11.10044,-9.38378 -9.65485,-20.06683 1.1395,-8.42114 0.42742,-11.04734 -4.62275,-17.04916 -3.28337,-3.90204 -5.96976,-9.99945 -5.96976,-13.5498 0,-13.31207 -4.50275,-20.87941 -14.14222,-23.76747 -12.579,-3.76875 -17.29563,-9.63333 -16.38422,-20.3719 0.17964,-2.11711 2.26315,-1.10403 5.98204,2.90873 4.381,4.72716 7.91978,6.15723 15.23648,6.15723 7.10513,0 10.86458,1.43989 14.7744,5.65864 3.72787,4.02244 6.2189,5.04201 8.61506,3.52609 5.82406,-3.68456 17.62299,-2.39695 23.99982,2.61907 6.84116,5.38126 7.51743,10.77454 2.98361,23.79463 -2.57897,7.40624 -3.53601,8.28575 -5.9072,5.42866 -1.55629,-1.87522 -2.51168,-7.42309 -2.12309,-12.32862 0.61723,-7.79174 0.0286,-9.01524 -4.65724,-9.6795 -7.99118,-1.13284 -12.08857,3.63833 -12.08857,14.07637 0,7.42346 1.56619,10.8219 7.91173,17.16744 10.60696,10.60696 21.18057,10.82979 32.72944,0.68974 6.99044,-6.13769 8.22541,-8.70542 8.22541,-17.10219 0,-6.99621 -1.86789,-12.5663 -6.39919,-19.08249 -3.51956,-5.06126 -36.76629,-38.86255 -73.88163,-75.114 -37.11533,-36.25144 -71.39273,-71.61691 -76.172,-78.58994 -11.16721,-16.29312 -15.74938,-32.04522 -15.72099,-54.04386 0.0492,-38.138282 23.64896,-62.987871 59.81976,-62.987871 29.33298,0 50.6638,17.536146 69.76012,57.35003 13.96302,29.111481 12.31997,54.588521 -3.95524,61.329921 -21.21584,8.78791 -44.77717,-17.49379 -26.44906,-29.50285 5.98685,-3.92273 6.23835,-3.87077 11.6349,2.40309 3.03371,3.52689 5.55292,8.1866 5.59827,10.35495 0.0603,2.87915 0.97938,2.37345 3.40801,-1.87499 7.98214,-13.9633 1.0019,-27.92376 -13.96189,-27.92376 -7.20091,0 -8.14443,-0.69467 -8.14443,-5.99644 0,-3.52503 -2.80343,-8.799871 -6.80195,-12.798396 -5.66168,-5.661683 -8.70781,-6.80195 -18.17108,-6.80195 -13.94024,0 -17.70495,2.689687 -23.74588,16.965226 -3.36147,7.94361 -6.74711,12.00121 -11.77918,14.11704 -8.64042,3.63302 -6.74463,6.14942 4.63276,6.14942 8.50572,0 18.63365,-7.32485 18.63365,-13.47647 0,-4.20148 10.51709,-10.076201 14.97575,-8.36527 7.37489,2.83003 8.78842,11.90856 3.65945,23.50344 -9.64612,21.80667 -4.69589,38.92358 13.99602,48.39549 10.47956,5.3104 11.5814,6.62379 11.5814,13.80509 0,10.74178 8.66908,17.58203 22.28279,17.58203 5.51116,0 10.66744,-1.04714 11.45843,-2.32698 0.79099,-1.27984 -0.24196,-2.32698 -2.29543,-2.32698 -4.73101,0 -15.15692,-10.28455 -15.15692,-14.95143 0,-1.98931 5.55699,-6.15696 12.7411,-9.55558 14.81262,-7.00749 21.39423,-14.43528 25.11391,-28.34274 2.26617,-8.4729 3.57138,-9.97872 8.64945,-9.97872 3.28931,0 8.37392,-1.67638 11.29915,-3.72528 8.41454,-5.89378 9.97255,-13.05676 5.85542,-26.92058 l -3.63202,-12.230357 6.63643,-5.310611 6.63643,-5.310611 -9.88966,-0.01163 c -6.79834,-0.007 -11.3444,1.443263 -14.54363,4.642488 -5.35308,5.353102 -5.75385,9.0019 -1.91429,17.428831 2.26192,4.9644 2.07941,6.67313 -1.04672,9.79926 -5.41181,5.41181 -9.31057,1.35647 -15.58642,-16.212441 -2.84997,-7.978359 -8.72287,-21.049472 -13.05089,-29.046908 l -7.86915,-14.540765 8.87087,-5.870482 c 25.93308,-17.161689 62.8731,-12.791271 81.45327,9.636816 10.36095,12.506705 15.14305,30.202971 13.70812,50.72729 -2.48926,35.60506 -13.42982,51.26333 -70.96398,101.56457 -20.79739,18.18284 -37.81343,34.56457 -37.81343,36.40384 0,4.20828 24.04438,29.59198 33.58137,35.45192 16.24346,9.98072 34.23277,8.14732 49.22601,-5.01692 6.70052,-5.88315 7.94485,-8.52406 7.94485,-16.86191 0,-6.45002 -1.85202,-12.63443 -5.32839,-17.79304 -4.55763,-6.76302 -6.66145,-7.9068 -14.54363,-7.9068 -8.60087,0 -9.5442,0.6855 -14.14946,10.28218 -4.80168,10.00599 -10.98988,16.47809 -15.75526,16.47809 -1.33175,0 -1.13929,-1.20833 0.44476,-2.79238 1.5358,-1.5358 2.79237,-8.34222 2.79237,-15.12537 0,-14.37534 4.56142,-20.53958 16.91368,-22.85688 6.95162,-1.30413 8.11558,-2.60326 10.01944,-11.18295 1.93654,-8.72685 3.43297,-10.33042 14.81477,-15.8755 6.96335,-3.39246 13.91737,-7.88679 15.45338,-9.98742 2.39063,-3.26936 2.96953,-2.54877 4.02049,5.00461 0.67524,4.85317 2.21954,13.27428 3.43176,18.7136 1.21219,5.43931 1.67021,9.88966 1.01782,9.88966 -0.65239,0 -4.61754,-3.92677 -8.81146,-8.72617 -6.40206,-7.32634 -8.30809,-8.31486 -11.88151,-6.16222 -2.74647,1.65451 -4.50518,5.8885 -4.95805,11.93636 -0.60702,8.10599 0.57206,10.84429 8.72617,20.26563 9.25142,10.68919 10.70174,15.50013 9.51202,31.55299 -1.05633,14.2531 -21.80483,32.57772 -36.88687,32.57772 -8.13363,0 -5.95677,5.06282 6.95956,16.1862 34.96099,30.10796 60.12933,40.78931 96.16225,40.81088 26.62654,0.0163 37.08445,-3.73562 55.43076,-19.8847 22.33247,-19.65781 31.13525,-59.53341 19.86006,-89.96389 -13.88107,-37.46345 -59.94208,-49.4461 -95.45841,-24.83326 -12.93825,8.96621 -16.62974,17.16314 -15.39805,34.19116 0.87536,12.10188 1.98466,14.80737 8.43384,20.56972 5.7875,5.17113 9.69145,6.63503 17.69438,6.63503 18.72954,0 23.23599,-12.22267 9.43742,-25.59678 -5.95186,-5.76877 -8.10041,-9.80697 -7.98087,-15.00011 0.12333,-5.36055 0.57455,-6.06311 1.83671,-2.86002 0.92023,2.3354 6.86769,7.04754 13.21657,10.47141 10.01242,5.39957 11.82914,7.51272 13.69756,15.93262 1.9283,8.68981 3.01756,9.8694 10.39099,11.25265 4.53028,0.84991 11.27501,3.11634 14.98829,5.03656 3.7133,1.9202 8.84329,2.94426 11.39999,2.27565 4.27188,-1.11711 4.20272,-0.73795 -0.85355,4.67905 -5.16681,5.53544 -6.4513,5.80223 -21.07744,4.37786 -11.94737,-1.16349 -17.23208,-0.66005 -22.68806,2.16135 -8.33569,4.31054 -8.03316,3.11438 -3.51968,13.91667 4.01958,9.62017 2.85002,16.19005 -4.26614,23.96491 -6.58629,7.19593 -12.63436,7.24683 -7.60329,0.064 4.99784,-7.13543 4.53228,-16.24386 -1.14157,-22.33404 -2.62018,-2.81245 -12.51164,-8.79012 -21.98101,-13.28373 -20.24242,-9.60586 -27.04009,-17.68221 -28.60689,-33.98808 -1.83711,-19.11924 3.19231,-31.49093 19.67154,-48.38927 l 14.59117,-14.96228 -10.14931,-10.85045 c -13.83732,-14.7932 -18.50361,-24.4625 -18.50361,-38.34233 0,-13.83253 4.8877,-24.03462 17.38217,-36.2817 12.90008,-12.64465 12.36869,-20.633525 -1.92544,-28.946755 -7.12656,-4.144701 -16.43271,-18.630502 -13.71487,-21.348345 0.69523,-0.695232 4.42464,1.395373 8.28754,4.645792 3.8629,3.250443 10.17723,6.602551 14.03181,7.449153 8.03199,1.76413 15.39023,10.026144 17.5051,19.655144 1.3134,5.979831 2.63719,6.767581 13.69449,8.149081 14.7545,1.84346 25.45479,7.94022 31.8562,18.15084 4.18005,6.66741 4.57407,9.90405 3.26031,26.78155 l -1.49434,19.19759 h 5.74142 c 3.15776,0 7.03542,-1.55917 8.61698,-3.46485 3.24783,-3.9134 7.0022,-2.60584 7.0022,2.43868 0,6.10837 -8.94512,12.66105 -17.28369,12.66105 -6.17471,0 -9.26641,-1.64913 -13.69118,-7.30295 -5.37363,-6.8662 -6.17225,-7.14369 -13.35424,-4.64002 -6.23759,2.17442 -8.65399,1.99774 -13.17296,-0.96318 -7.0196,-4.59944 -10.73923,-13.90557 -7.77317,-19.44772 1.21432,-2.26897 1.61591,-6.38898 0.89242,-9.15557 -0.74938,-2.86559 -0.23246,-5.03017 1.20107,-5.03017 3.50846,0 7.33423,7.83613 7.33423,15.02229 0,8.5154 9.29135,12.6453 17.03463,7.57172 6.45993,-4.23271 9.63833,-16.23516 6.06658,-22.90902 -6.72299,-12.56206 -29.54725,-17.43173 -45.72388,-9.75542 -20.31556,9.64038 -19.27943,44.17954 1.7427,58.09133 6.61677,4.37877 13.72446,6.24561 30.31343,7.9619 31.10004,3.21756 37.6228,5.53393 51.62829,18.33416 21.0158,19.20722 31.28495,46.12038 29.02084,76.05705 -1.55791,20.5992 -10.48509,41.72303 -23.91474,56.58806 -8.32971,9.21999 -8.66484,10.17563 -6.07761,17.33047 3.5815,9.90444 3.45889,15.83833 -0.43729,21.16668 -2.95794,4.04522 -3.36928,3.75563 -6.00379,-4.22708 -3.50816,-10.62979 -9.4028,-14.30825 -15.51428,-9.68145 -2.41653,1.82947 -6.16436,3.3596 -8.32855,3.40032 -6.91385,0.13008 -6.80302,4.14615 0.42922,15.55019 8.64873,13.63764 11.62019,23.82716 11.63711,39.90515 0.014,14.28962 -3.87731,23.04865 -14.04386,31.60323 -6.30179,5.30261 -9.35656,6.09464 -23.50637,6.09464 -19.80381,0 -25.26525,2.49683 -25.26525,11.55058 0,8.31739 5.4039,14.04621 13.24952,14.04621 5.01276,0 5.48555,0.54298 3.03934,3.49047 -4.43714,5.34642 -15.11914,4.17425 -23.09126,-2.53383 -9.72608,-8.18396 -10.12815,-22.66828 -0.93263,-33.59654 5.19883,-6.17846 5.7751,-8.12361 3.49047,-11.78188 -6.64052,-10.63318 -1.19867,-22.51611 13.82024,-30.17819 5.09749,-2.60054 10.19762,-7.03688 11.33363,-9.85853 1.7581,-4.36676 2.08744,-3.81994 2.21298,3.67442 0.12845,7.66421 -0.90741,9.42706 -7.99692,13.60997 -6.71432,3.96155 -8.14443,6.16543 -8.14443,12.55104 0,14.32338 19.39133,22.6424 32.07325,13.75966 11.54362,-8.08548 14.83267,-22.64791 8.52545,-37.74692 -7.61599,-18.23212 -25.59964,-30.97257 -51.37139,-36.39383 -9.03836,-1.90128 -21.86936,-5.59951 -28.51328,-8.21831 -6.64395,-2.61879 -12.87993,-4.76145 -13.85777,-4.76145 -0.97785,0 1.62274,10.20963 5.77903,22.68806 13.07067,39.24189 16.04467,75.03702 8.07169,97.15143 l -4.19478,11.6349 7.78203,8.73288 c 9.22478,10.35194 9.82781,17.71646 2.1788,26.60897 l -5.60321,6.5141 0.24112,-8.50597 c 0.24352,-8.59082 -3.69122,-15.92181 -8.51721,-15.86882 -1.4431,0.0163 -4.946,3.61445 -7.78424,7.99695 -7.06373,10.90704 -31.87151,31.15568 -46.23302,37.7364 -15.32813,7.02364 -35.7773,8.73332 -51.54157,4.30917 z"
     id="path4198"
     inkscape:connector-curvature="0" />
</svg>
