<?xml version="1.0" encoding="UTF-8" standalone="no"?>
<!-- Created with Inkscape (http://www.inkscape.org/) -->

<svg
   xmlns:dc="http://purl.org/dc/elements/1.1/"
   xmlns:cc="http://creativecommons.org/ns#"
   xmlns:rdf="http://www.w3.org/1999/02/22-rdf-syntax-ns#"
   xmlns:svg="http://www.w3.org/2000/svg"
   xmlns="http://www.w3.org/2000/svg"
   xmlns:sodipodi="http://sodipodi.sourceforge.net/DTD/sodipodi-0.dtd"
   xmlns:inkscape="http://www.inkscape.org/namespaces/inkscape"
   width="1199"
   height="799"
   id="svg3007"
   version="1.1"
   inkscape:version="0.92.2pre0 650254f, 2017-08-06"
   sodipodi:docname="default.svg"
   inkscape:export-filename="/home/tank/Dropbox/web/htdocs-blk/img/concentrates/default.png"
   inkscape:export-xdpi="72.059998"
   inkscape:export-ydpi="72.059998">
  <defs
     id="defs3009" />
  <sodipodi:namedview
     id="base"
     pagecolor="#2c2c2c"
     bordercolor="#ca0202"
     borderopacity="1"
     inkscape:pageopacity="0"
     inkscape:pageshadow="2"
     inkscape:zoom="0.55254703"
     inkscape:cx="1012.6352"
     inkscape:cy="310.0703"
     inkscape:document-units="px"
     inkscape:current-layer="layer1"
     showgrid="false"
     fit-margin-top="25"
     fit-margin-left="25"
     fit-margin-right="25"
     fit-margin-bottom="25"
     inkscape:window-width="1920"
     inkscape:window-height="1052"
     inkscape:window-x="-1"
     inkscape:window-y="3"
     inkscape:window-maximized="1"
     borderlayer="true"
     inkscape:showpageshadow="false"
     inkscape:pagecheckerboard="true" />
  <metadata
     id="metadata3012">
    <rdf:RDF>
      <cc:Work
         rdf:about="">
        <dc:format>image/svg+xml</dc:format>
        <dc:type
           rdf:resource="http://purl.org/dc/dcmitype/StillImage" />
        <dc:title></dc:title>
      </cc:Work>
    </rdf:RDF>
  </metadata>
  <g
     inkscape:label="Layer 1"
     inkscape:groupmode="layer"
     id="layer1"
     transform="translate(156.89779,108.19531)">
    <path
       sodipodi:nodetypes="cccsccsccsccccscccscscccsccccscsscccssccsccccccccccscccccc"
       inkscape:connector-curvature="0"
       id="path5875"
       d="m 439.44075,87.506833 c -8.94413,1.960497 -22.19493,5.146252 -24.4265,5.280197 -0.94977,1.212773 -22.37226,12.99682 -24.51525,13.48894 -4.96324,-1.82566 -11.90522,-7.354322 -14.08794,-7.609709 -1.62026,-0.189574 -75.96401,38.917709 -77.16202,39.490609 -1.05066,-0.73555 -49.82352,-22.19684 -50.65536,-22.44935 -7.58114,2.1297 -14.37972,3.91292 -22.75724,6.43125 -6.49045,1.95105 -18.62237,3.78233 -21.34269,4.43715 -21.04338,9.75978 -92.71901,44.53 -95.66491,45.96885 -1.46616,0.0894 -16.801365,-1.68363 -19.834059,-1.17584 -2.014959,0.33738 -14.444151,9.67908 -15.263791,10.13889 -12.490573,5.71271 -20.699509,8.8838 -31.969631,14.44292 -5.317668,4.37723 -12.704864,9.9607 -16.151227,11.78062 5.714194,0.91852 37.068725,4.91133 39.629183,4.51426 2.121091,-1.50444 29.519645,-20.98728 30.706065,-21.49003 1.190667,-0.50454 21.80243,3.93295 23.71421,3.81846 2.67267,-1.2529 15.98987,-8.09193 17.42668,-8.49156 2.31449,-1.8027 17.63206,-15.11668 20.19623,-16.90994 1.51261,-0.50877 23.01034,-12.39447 26.44539,-14.22107 2.06135,-1.09611 19.06306,-14.4191 22.62297,-15.84385 6.70766,-1.68758 15.45449,-1.71371 21.51818,-3.9543 2.57601,-0.95186 10.93034,-4.37032 13.59735,-4.11681 5.7342,1.96948 59.47947,28.55152 61.13269,29.06206 1.10593,-0.0427 17.32678,-9.03597 19.07975,-9.14052 7.80219,-3.84329 52.43507,-36.56856 53.11267,-37.05019 0.83271,-0.59187 10.57063,6.60535 17.43799,9.27363 3.70162,-2.23051 21.60412,-12.19181 25.62452,-14.17668 1.71317,-0.44148 18.07306,-6.30777 21.20959,-6.70009 5.75131,2.62788 36.93481,14.55738 45.7692,19.36814 11.48257,5.53747 22.60838,8.49551 32.68263,14.29746 19.02656,10.95782 44.05107,23.64003 56.25657,32.14689 -3.38848,0.89113 -8.62567,0.67205 -16.17868,2.81434 -24.87438,7.05522 -58.22023,14.64053 -59.13059,15.15205 -0.85776,0.48194 -18.25598,12.01988 -20.01244,14.79281 6.06838,2.39097 19.99732,9.80848 24.81508,11.89914 l 17.93807,-10.31951 c 3.3089,-1.20982 26.53634,-10.62593 27.48042,-11.15887 1.38796,-0.78351 17.18108,-3.64333 19.8526,-5.12211 2.83522,-1.56937 21.77864,-6.74714 26.35978,-7.3961 3.92364,-1.35487 68.36097,-18.51591 69.83232,-19.04262 14.16851,2.96277 38.60752,9.64778 43.04559,10.64045 4.01871,0.8989 32.17402,9.0122 47.56964,12.97247 1.44963,0.36977 3.64011,1.01545 4.10433,1.17585 1.11674,0.38582 2.85482,0.91821 4.28187,1.30897 6.07328,2.14503 61.12163,20.39137 65.78041,22.14132 9.09238,3.57515 17.66453,7.11499 30.08391,10.22764 l -13.41568,-12.01134 c -25.76765,-8.93296 -61.64841,-23.24897 -84.92065,-30.92579 -3.57477,-1.88552 -85.10393,-24.57894 -87.1365,-25.06219 -3.71024,-0.88203 -9.61072,-1.55611 -14.44295,-3.66065 -0.14846,-0.005 -0.29485,-0.0104 -0.44372,0 -17.23892,5.4041 -63.86065,16.35652 -66.291,16.68367 -1.95879,0.2637 -3.76596,0.61149 -5.41332,1.02055 -15.0633,-9.33202 -38.57294,-22.71223 -52.31396,-31.5925 -0.35689,-0.62264 -13.19177,-7.66153 -14.15452,-8.34183 -3.72251,-1.51301 -30.15555,-15.48527 -34.32137,-17.34926 -14.13086,-6.09739 -32.95388,-15.039559 -47.29997,-19.456877 z"
       style="color:#000000;font-style:normal;font-variant:normal;font-weight:normal;font-stretch:normal;font-size:medium;line-height:normal;font-family:Sans;-inkscape-font-specification:Sans;text-indent:0;text-align:start;text-decoration:none;text-decoration-line:none;letter-spacing:normal;word-spacing:normal;text-transform:none;writing-mode:lr-tb;direction:ltr;baseline-shift:baseline;text-anchor:start;display:inline;overflow:visible;visibility:visible;fill:#272727;fill-opacity:1;fill-rule:nonzero;stroke:none;stroke-width:12.42019272;marker:none;enable-background:accumulate" />
  </g>
</svg>
